<mxfile host="65bd71144e">
    <diagram id="LNM6P5PzcX6RtV_x82l9" name="Page-1">
        <mxGraphModel dx="493" dy="280" grid="1" gridSize="10" guides="1" tooltips="1" connect="1" arrows="1" fold="1" page="1" pageScale="1" pageWidth="850" pageHeight="1100" math="0" shadow="0">
            <root>
                <mxCell id="0"/>
                <mxCell id="1" parent="0"/>
                <mxCell id="4" style="edgeStyle=orthogonalEdgeStyle;html=1;sketch=1;curveFitting=1;jiggle=2;fillColor=#fff2cc;strokeColor=#d6b656;" parent="1" source="2" target="3" edge="1">
                    <mxGeometry relative="1" as="geometry">
                        <Array as="points">
                            <mxPoint x="320" y="170"/>
                            <mxPoint x="320" y="170"/>
                        </Array>
                    </mxGeometry>
                </mxCell>
                <mxCell id="2" value="Browser" style="rounded=1;whiteSpace=wrap;html=1;sketch=1;curveFitting=1;jiggle=2;fillColor=#dae8fc;strokeColor=#6c8ebf;fillStyle=solid;" parent="1" vertex="1">
                    <mxGeometry x="80" y="160" width="120" height="60" as="geometry"/>
                </mxCell>
                <mxCell id="6" style="edgeStyle=orthogonalEdgeStyle;html=1;sketch=1;curveFitting=1;jiggle=2;fillColor=#fff2cc;strokeColor=#d6b656;" parent="1" source="3" target="2" edge="1">
                    <mxGeometry relative="1" as="geometry">
                        <Array as="points">
                            <mxPoint x="320" y="210"/>
                            <mxPoint x="320" y="210"/>
                        </Array>
                    </mxGeometry>
                </mxCell>
                <mxCell id="3" value="Server" style="rounded=1;whiteSpace=wrap;html=1;sketch=1;curveFitting=1;jiggle=2;fillColor=#d5e8d4;strokeColor=#82b366;fillStyle=solid;" parent="1" vertex="1">
                    <mxGeometry x="360" y="160" width="120" height="60" as="geometry"/>
                </mxCell>
                <mxCell id="7" value="Give me a doc" style="rounded=0;whiteSpace=wrap;html=1;sketch=1;curveFitting=1;jiggle=2;fillColor=#fff2cc;strokeColor=#d6b656;fillStyle=solid;" parent="1" vertex="1">
                    <mxGeometry x="220" y="160" width="120" height="20" as="geometry"/>
                </mxCell>
                <mxCell id="8" value="OK!" style="rounded=0;whiteSpace=wrap;html=1;sketch=1;curveFitting=1;jiggle=2;fillColor=#fff2cc;strokeColor=#d6b656;fillStyle=solid;" parent="1" vertex="1">
                    <mxGeometry x="220" y="200" width="120" height="20" as="geometry"/>
                </mxCell>
            </root>
        </mxGraphModel>
    </diagram>
    <diagram id="VgODFHdBfnJpJ36eYc-t" name="Page-2">
        <mxGraphModel dx="1343" dy="314" grid="1" gridSize="10" guides="1" tooltips="1" connect="1" arrows="1" fold="1" page="1" pageScale="1" pageWidth="850" pageHeight="1100" math="0" shadow="0">
            <root>
                <mxCell id="0"/>
                <mxCell id="1" parent="0"/>
                <mxCell id="WkQnjWxLYktoWhpxMdoD-39" value="Render Thread" style="rounded=1;whiteSpace=wrap;html=1;sketch=1;curveFitting=1;jiggle=2;fillColor=#dae8fc;strokeColor=#6c8ebf;fillStyle=solid;verticalAlign=top;" parent="1" vertex="1">
                    <mxGeometry x="230" y="449.97" width="250" height="160.03" as="geometry"/>
                </mxCell>
                <mxCell id="WkQnjWxLYktoWhpxMdoD-68" value="UI Thread" style="rounded=1;whiteSpace=wrap;html=1;sketch=1;curveFitting=1;jiggle=2;fillColor=#dae8fc;strokeColor=#6c8ebf;fillStyle=solid;verticalAlign=top;" parent="1" vertex="1">
                    <mxGeometry y="455" width="96.41" height="70" as="geometry"/>
                </mxCell>
                <mxCell id="WkQnjWxLYktoWhpxMdoD-71" style="edgeStyle=orthogonalEdgeStyle;curved=1;sketch=1;html=1;endArrow=classic;endFill=1;fillColor=#fff2cc;strokeColor=#d6b656;" parent="1" source="WkQnjWxLYktoWhpxMdoD-70" target="WkQnjWxLYktoWhpxMdoD-85" edge="1">
                    <mxGeometry relative="1" as="geometry"/>
                </mxCell>
                <mxCell id="WkQnjWxLYktoWhpxMdoD-74" value="" style="group;fillColor=#f5f5f5;strokeColor=#666666;sketch=1;curveFitting=1;jiggle=2;rounded=1;fontColor=#333333;fillStyle=solid;" parent="1" vertex="1" connectable="0">
                    <mxGeometry x="320" y="490" width="90" height="100" as="geometry"/>
                </mxCell>
                <mxCell id="WkQnjWxLYktoWhpxMdoD-70" value="" style="rounded=1;whiteSpace=wrap;html=1;sketch=1;curveFitting=1;jiggle=2;fillColor=none;strokeColor=none;fillStyle=solid;container=0;" parent="WkQnjWxLYktoWhpxMdoD-74" vertex="1">
                    <mxGeometry width="90" height="100" as="geometry"/>
                </mxCell>
                <mxCell id="WkQnjWxLYktoWhpxMdoD-49" value="" style="ellipse;whiteSpace=wrap;html=1;rounded=1;sketch=1;fillStyle=solid;fillColor=#dae8fc;strokeColor=#6c8ebf;container=0;" parent="WkQnjWxLYktoWhpxMdoD-74" vertex="1">
                    <mxGeometry x="60" y="10" width="10" height="10" as="geometry"/>
                </mxCell>
                <mxCell id="WkQnjWxLYktoWhpxMdoD-50" value="" style="ellipse;whiteSpace=wrap;html=1;rounded=1;sketch=1;fillStyle=solid;fillColor=#dae8fc;strokeColor=#6c8ebf;container=0;" parent="WkQnjWxLYktoWhpxMdoD-74" vertex="1">
                    <mxGeometry x="40" y="35" width="10" height="10" as="geometry"/>
                </mxCell>
                <mxCell id="WkQnjWxLYktoWhpxMdoD-51" style="sketch=1;html=1;endArrow=none;endFill=0;fillColor=#dae8fc;strokeColor=#6c8ebf;" parent="WkQnjWxLYktoWhpxMdoD-74" source="WkQnjWxLYktoWhpxMdoD-49" target="WkQnjWxLYktoWhpxMdoD-50" edge="1">
                    <mxGeometry relative="1" as="geometry">
                        <mxPoint x="40" y="40" as="targetPoint"/>
                    </mxGeometry>
                </mxCell>
                <mxCell id="WkQnjWxLYktoWhpxMdoD-52" value="" style="ellipse;whiteSpace=wrap;html=1;rounded=1;sketch=1;fillStyle=solid;fillColor=#dae8fc;strokeColor=#6c8ebf;container=0;" parent="WkQnjWxLYktoWhpxMdoD-74" vertex="1">
                    <mxGeometry x="70" y="35" width="10" height="10" as="geometry"/>
                </mxCell>
                <mxCell id="WkQnjWxLYktoWhpxMdoD-53" style="edgeStyle=none;sketch=1;html=1;endArrow=none;endFill=0;fillColor=#dae8fc;strokeColor=#6c8ebf;" parent="WkQnjWxLYktoWhpxMdoD-74" source="WkQnjWxLYktoWhpxMdoD-49" target="WkQnjWxLYktoWhpxMdoD-52" edge="1">
                    <mxGeometry relative="1" as="geometry"/>
                </mxCell>
                <mxCell id="WkQnjWxLYktoWhpxMdoD-54" value="" style="ellipse;whiteSpace=wrap;html=1;rounded=1;sketch=1;fillStyle=solid;fillColor=#dae8fc;strokeColor=#6c8ebf;container=0;" parent="WkQnjWxLYktoWhpxMdoD-74" vertex="1">
                    <mxGeometry x="50" y="60" width="10" height="10" as="geometry"/>
                </mxCell>
                <mxCell id="WkQnjWxLYktoWhpxMdoD-55" style="edgeStyle=none;sketch=1;html=1;endArrow=none;endFill=0;fillColor=#dae8fc;strokeColor=#6c8ebf;" parent="WkQnjWxLYktoWhpxMdoD-74" source="WkQnjWxLYktoWhpxMdoD-50" target="WkQnjWxLYktoWhpxMdoD-54" edge="1">
                    <mxGeometry relative="1" as="geometry"/>
                </mxCell>
                <mxCell id="WkQnjWxLYktoWhpxMdoD-56" value="" style="ellipse;whiteSpace=wrap;html=1;rounded=1;sketch=1;fillStyle=solid;fillColor=#dae8fc;strokeColor=#6c8ebf;container=0;" parent="WkQnjWxLYktoWhpxMdoD-74" vertex="1">
                    <mxGeometry x="20" y="60" width="10" height="10" as="geometry"/>
                </mxCell>
                <mxCell id="WkQnjWxLYktoWhpxMdoD-57" style="edgeStyle=none;sketch=1;html=1;endArrow=none;endFill=0;fillColor=#dae8fc;strokeColor=#6c8ebf;" parent="WkQnjWxLYktoWhpxMdoD-74" source="WkQnjWxLYktoWhpxMdoD-50" target="WkQnjWxLYktoWhpxMdoD-56" edge="1">
                    <mxGeometry relative="1" as="geometry"/>
                </mxCell>
                <mxCell id="WkQnjWxLYktoWhpxMdoD-58" value="" style="ellipse;whiteSpace=wrap;html=1;rounded=1;sketch=1;fillStyle=solid;fillColor=#dae8fc;strokeColor=#6c8ebf;container=0;" parent="WkQnjWxLYktoWhpxMdoD-74" vertex="1">
                    <mxGeometry x="70" y="80" width="10" height="10" as="geometry"/>
                </mxCell>
                <mxCell id="WkQnjWxLYktoWhpxMdoD-59" style="edgeStyle=none;sketch=1;html=1;endArrow=none;endFill=0;fillColor=#dae8fc;strokeColor=#6c8ebf;" parent="WkQnjWxLYktoWhpxMdoD-74" source="WkQnjWxLYktoWhpxMdoD-54" target="WkQnjWxLYktoWhpxMdoD-58" edge="1">
                    <mxGeometry relative="1" as="geometry"/>
                </mxCell>
                <mxCell id="WkQnjWxLYktoWhpxMdoD-60" value="" style="ellipse;whiteSpace=wrap;html=1;rounded=1;sketch=1;fillStyle=solid;fillColor=#dae8fc;strokeColor=#6c8ebf;container=0;" parent="WkQnjWxLYktoWhpxMdoD-74" vertex="1">
                    <mxGeometry x="40" y="80" width="10" height="10" as="geometry"/>
                </mxCell>
                <mxCell id="WkQnjWxLYktoWhpxMdoD-61" style="edgeStyle=none;sketch=1;html=1;endArrow=none;endFill=0;fillColor=#dae8fc;strokeColor=#6c8ebf;" parent="WkQnjWxLYktoWhpxMdoD-74" source="WkQnjWxLYktoWhpxMdoD-56" target="WkQnjWxLYktoWhpxMdoD-60" edge="1">
                    <mxGeometry relative="1" as="geometry"/>
                </mxCell>
                <mxCell id="WkQnjWxLYktoWhpxMdoD-62" value="" style="ellipse;whiteSpace=wrap;html=1;rounded=1;sketch=1;fillStyle=solid;fillColor=#dae8fc;strokeColor=#6c8ebf;container=0;" parent="WkQnjWxLYktoWhpxMdoD-74" vertex="1">
                    <mxGeometry x="10" y="80" width="10" height="10" as="geometry"/>
                </mxCell>
                <mxCell id="WkQnjWxLYktoWhpxMdoD-63" style="edgeStyle=none;sketch=1;html=1;endArrow=none;endFill=0;fillColor=#dae8fc;strokeColor=#6c8ebf;" parent="WkQnjWxLYktoWhpxMdoD-74" source="WkQnjWxLYktoWhpxMdoD-56" target="WkQnjWxLYktoWhpxMdoD-62" edge="1">
                    <mxGeometry relative="1" as="geometry"/>
                </mxCell>
                <mxCell id="WkQnjWxLYktoWhpxMdoD-78" style="edgeStyle=orthogonalEdgeStyle;curved=1;sketch=1;html=1;endArrow=classic;endFill=1;fillColor=#fff2cc;strokeColor=#d6b656;" parent="1" source="WkQnjWxLYktoWhpxMdoD-77" target="WkQnjWxLYktoWhpxMdoD-115" edge="1">
                    <mxGeometry relative="1" as="geometry">
                        <mxPoint x="510" y="375" as="targetPoint"/>
                    </mxGeometry>
                </mxCell>
                <mxCell id="WkQnjWxLYktoWhpxMdoD-77" value="" style="shape=umlActor;verticalLabelPosition=bottom;verticalAlign=top;html=1;outlineConnect=0;rounded=1;sketch=1;fillStyle=solid;strokeColor=#b85450;fillColor=#f8cecc;" parent="1" vertex="1">
                    <mxGeometry x="-60" y="462.5" width="30" height="60" as="geometry"/>
                </mxCell>
                <mxCell id="WkQnjWxLYktoWhpxMdoD-38" style="edgeStyle=orthogonalEdgeStyle;sketch=1;html=1;endArrow=classic;endFill=1;curved=1;fillColor=#e1d5e7;strokeColor=#9673a6;strokeWidth=2;" parent="1" source="WkQnjWxLYktoWhpxMdoD-39" target="WkQnjWxLYktoWhpxMdoD-39" edge="1">
                    <mxGeometry relative="1" as="geometry">
                        <Array as="points">
                            <mxPoint x="510" y="480"/>
                            <mxPoint x="510" y="420"/>
                            <mxPoint x="440" y="420"/>
                        </Array>
                        <mxPoint x="332.5" y="659.97" as="sourcePoint"/>
                        <mxPoint x="502.5" y="519.97" as="targetPoint"/>
                    </mxGeometry>
                </mxCell>
                <mxCell id="WkQnjWxLYktoWhpxMdoD-75" style="edgeStyle=orthogonalEdgeStyle;curved=1;sketch=1;html=1;endArrow=classic;endFill=1;fillColor=#fff2cc;strokeColor=#d6b656;" parent="1" source="WkQnjWxLYktoWhpxMdoD-115" target="WkQnjWxLYktoWhpxMdoD-82" edge="1">
                    <mxGeometry relative="1" as="geometry">
                        <Array as="points">
                            <mxPoint x="120" y="500"/>
                            <mxPoint x="120" y="560"/>
                        </Array>
                    </mxGeometry>
                </mxCell>
                <mxCell id="WkQnjWxLYktoWhpxMdoD-84" style="edgeStyle=orthogonalEdgeStyle;curved=1;sketch=1;html=1;endArrow=classic;endFill=1;fillColor=#fff2cc;strokeColor=#d6b656;" parent="1" source="WkQnjWxLYktoWhpxMdoD-82" target="WkQnjWxLYktoWhpxMdoD-70" edge="1">
                    <mxGeometry relative="1" as="geometry"/>
                </mxCell>
                <mxCell id="WkQnjWxLYktoWhpxMdoD-82" value="" style="shape=cylinder3;whiteSpace=wrap;html=1;boundedLbl=1;backgroundOutline=1;size=15;rounded=1;fillStyle=solid;fillColor=#d5e8d4;rotation=-90;sketch=1;curveFitting=1;jiggle=2;strokeColor=#82b366;" parent="1" vertex="1">
                    <mxGeometry x="204.87" y="478.26" width="45" height="123.45" as="geometry"/>
                </mxCell>
                <mxCell id="WkQnjWxLYktoWhpxMdoD-83" value="Mailbox" style="rounded=0;whiteSpace=wrap;html=1;sketch=1;fillStyle=solid;fillColor=#d5e8d4;strokeColor=none;" parent="1" vertex="1">
                    <mxGeometry x="200" y="525" width="80" height="30" as="geometry"/>
                </mxCell>
                <mxCell id="WkQnjWxLYktoWhpxMdoD-85" value="GPU Thread" style="rounded=1;whiteSpace=wrap;html=1;sketch=1;curveFitting=1;jiggle=2;fillColor=#dae8fc;strokeColor=#6c8ebf;fillStyle=solid;verticalAlign=middle;" parent="1" vertex="1">
                    <mxGeometry x="530" y="519.98" width="90" height="40" as="geometry"/>
                </mxCell>
                <mxCell id="WkQnjWxLYktoWhpxMdoD-65" value="Render" style="rounded=1;whiteSpace=wrap;html=1;sketch=1;fillStyle=solid;fillColor=#fff2cc;strokeColor=#d6b656;" parent="1" vertex="1">
                    <mxGeometry x="430" y="530" width="75" height="20" as="geometry"/>
                </mxCell>
                <mxCell id="WkQnjWxLYktoWhpxMdoD-94" style="edgeStyle=orthogonalEdgeStyle;sketch=1;html=1;endArrow=classic;endFill=1;curved=1;fillColor=#e1d5e7;strokeColor=#9673a6;strokeWidth=2;" parent="1" source="WkQnjWxLYktoWhpxMdoD-85" target="WkQnjWxLYktoWhpxMdoD-85" edge="1">
                    <mxGeometry relative="1" as="geometry">
                        <Array as="points">
                            <mxPoint x="630" y="540"/>
                            <mxPoint x="630" y="500"/>
                            <mxPoint x="590" y="500"/>
                        </Array>
                        <mxPoint x="590" y="549.98" as="sourcePoint"/>
                        <mxPoint x="550" y="519.95" as="targetPoint"/>
                    </mxGeometry>
                </mxCell>
                <mxCell id="WkQnjWxLYktoWhpxMdoD-115" value="event" style="rounded=1;whiteSpace=wrap;html=1;sketch=1;fillStyle=solid;fillColor=#f5f5f5;strokeColor=#666666;fontColor=#333333;" parent="1" vertex="1">
                    <mxGeometry x="16.410000000000025" y="482.5" width="71.88" height="20" as="geometry"/>
                </mxCell>
                <mxCell id="WkQnjWxLYktoWhpxMdoD-118" value="message" style="rounded=1;whiteSpace=wrap;html=1;sketch=1;fillStyle=solid;fillColor=#f5f5f5;strokeColor=#666666;fontColor=#333333;" parent="1" vertex="1">
                    <mxGeometry x="174.39" y="550" width="55.61" height="20" as="geometry"/>
                </mxCell>
                <mxCell id="WkQnjWxLYktoWhpxMdoD-122" value="Network Thread" style="rounded=1;whiteSpace=wrap;html=1;sketch=1;curveFitting=1;jiggle=2;fillColor=#dae8fc;strokeColor=#6c8ebf;fillStyle=solid;verticalAlign=top;" parent="1" vertex="1">
                    <mxGeometry x="-13.049999999999997" y="565.0000000000001" width="122.5" height="60" as="geometry"/>
                </mxCell>
                <mxCell id="WkQnjWxLYktoWhpxMdoD-123" value="event" style="rounded=1;whiteSpace=wrap;html=1;sketch=1;fillStyle=solid;fillColor=#f5f5f5;strokeColor=#666666;fontColor=#333333;" parent="1" vertex="1">
                    <mxGeometry x="-2.739999999999995" y="594.9700000000001" width="102.19" height="20" as="geometry"/>
                </mxCell>
                <mxCell id="WkQnjWxLYktoWhpxMdoD-124" style="edgeStyle=orthogonalEdgeStyle;curved=1;sketch=1;html=1;strokeWidth=1;endArrow=classic;endFill=1;fillColor=#fff2cc;strokeColor=#d6b656;" parent="1" source="WkQnjWxLYktoWhpxMdoD-123" target="WkQnjWxLYktoWhpxMdoD-82" edge="1">
                    <mxGeometry relative="1" as="geometry">
                        <Array as="points">
                            <mxPoint x="130" y="610"/>
                            <mxPoint x="130" y="560"/>
                        </Array>
                    </mxGeometry>
                </mxCell>
                <mxCell id="WkQnjWxLYktoWhpxMdoD-127" style="edgeStyle=orthogonalEdgeStyle;sketch=1;html=1;endArrow=classic;endFill=1;curved=1;fillColor=#e1d5e7;strokeColor=#9673a6;strokeWidth=2;" parent="1" source="WkQnjWxLYktoWhpxMdoD-68" target="WkQnjWxLYktoWhpxMdoD-68" edge="1">
                    <mxGeometry relative="1" as="geometry">
                        <Array as="points">
                            <mxPoint x="120" y="483"/>
                            <mxPoint x="120" y="430"/>
                            <mxPoint x="60" y="430"/>
                        </Array>
                        <mxPoint x="100" y="482.5" as="sourcePoint"/>
                        <mxPoint x="60" y="452.4699999999999" as="targetPoint"/>
                    </mxGeometry>
                </mxCell>
                <mxCell id="WkQnjWxLYktoWhpxMdoD-128" style="edgeStyle=orthogonalEdgeStyle;sketch=1;html=1;endArrow=classic;endFill=1;curved=1;fillColor=#e1d5e7;strokeColor=#9673a6;strokeWidth=2;" parent="1" source="WkQnjWxLYktoWhpxMdoD-122" target="WkQnjWxLYktoWhpxMdoD-122" edge="1">
                    <mxGeometry relative="1" as="geometry">
                        <Array as="points">
                            <mxPoint x="120" y="580"/>
                            <mxPoint x="120" y="542"/>
                            <mxPoint x="80" y="542"/>
                        </Array>
                        <mxPoint x="96.41000000000008" y="594.9700000000001" as="sourcePoint"/>
                        <mxPoint x="60" y="566.97" as="targetPoint"/>
                    </mxGeometry>
                </mxCell>
                <mxCell id="QuIVlfK3Vs2aFNbySI51-1" value="IPC&lt;br&gt;(Inter Process Comunication)" style="rounded=1;whiteSpace=wrap;html=1;sketch=1;fillStyle=solid;fillColor=#f5f5f5;strokeColor=#666666;fontColor=#333333;" vertex="1" parent="1">
                    <mxGeometry x="130" y="584.97" width="180" height="30" as="geometry"/>
                </mxCell>
            </root>
        </mxGraphModel>
    </diagram>
    <diagram id="T4AhUFLhOno82xi8LcD4" name="Page-3">
        <mxGraphModel dx="595" dy="232" grid="1" gridSize="10" guides="1" tooltips="1" connect="1" arrows="1" fold="1" page="1" pageScale="1" pageWidth="850" pageHeight="1100" math="0" shadow="0">
            <root>
                <mxCell id="0"/>
                <mxCell id="1" parent="0"/>
                <mxCell id="P5WHXRzJVsFPviINSVoN-2" value="Browser" style="rounded=1;whiteSpace=wrap;html=1;sketch=1;curveFitting=1;jiggle=2;fillColor=#dae8fc;strokeColor=#6c8ebf;fillStyle=solid;" parent="1" vertex="1">
                    <mxGeometry x="80" y="160" width="120" height="60" as="geometry"/>
                </mxCell>
                <mxCell id="P5WHXRzJVsFPviINSVoN-4" value="Server" style="rounded=1;whiteSpace=wrap;html=1;sketch=1;curveFitting=1;jiggle=2;fillColor=#d5e8d4;strokeColor=#82b366;fillStyle=solid;verticalAlign=top;" parent="1" vertex="1">
                    <mxGeometry x="360" y="130" width="190" height="100" as="geometry"/>
                </mxCell>
                <mxCell id="P5WHXRzJVsFPviINSVoN-11" style="edgeStyle=orthogonalEdgeStyle;curved=1;sketch=1;html=1;strokeWidth=1;endArrow=classic;endFill=1;fillColor=#e1d5e7;strokeColor=#9673a6;" parent="1" source="P5WHXRzJVsFPviINSVoN-12" target="P5WHXRzJVsFPviINSVoN-7" edge="1">
                    <mxGeometry relative="1" as="geometry">
                        <Array as="points">
                            <mxPoint x="500" y="180"/>
                        </Array>
                    </mxGeometry>
                </mxCell>
                <mxCell id="P5WHXRzJVsFPviINSVoN-7" value="File System" style="rounded=1;whiteSpace=wrap;html=1;sketch=1;curveFitting=1;jiggle=2;fillColor=#d5e8d4;strokeColor=#82b366;fillStyle=solid;" parent="1" vertex="1">
                    <mxGeometry x="620" y="130" width="50" height="100" as="geometry"/>
                </mxCell>
                <mxCell id="P5WHXRzJVsFPviINSVoN-8" value="CGI" style="rounded=1;whiteSpace=wrap;html=1;sketch=1;curveFitting=1;jiggle=2;fillColor=#f5f5f5;strokeColor=#666666;fillStyle=solid;fontColor=#333333;" parent="1" vertex="1">
                    <mxGeometry x="370" y="150" width="40" height="75" as="geometry"/>
                </mxCell>
                <mxCell id="P5WHXRzJVsFPviINSVoN-1" style="edgeStyle=orthogonalEdgeStyle;html=1;sketch=1;curveFitting=1;jiggle=2;fillColor=#fff2cc;strokeColor=#d6b656;" parent="1" source="P5WHXRzJVsFPviINSVoN-2" target="P5WHXRzJVsFPviINSVoN-8" edge="1">
                    <mxGeometry relative="1" as="geometry">
                        <Array as="points">
                            <mxPoint x="360" y="170"/>
                            <mxPoint x="360" y="170"/>
                        </Array>
                    </mxGeometry>
                </mxCell>
                <mxCell id="P5WHXRzJVsFPviINSVoN-3" style="edgeStyle=orthogonalEdgeStyle;html=1;sketch=1;curveFitting=1;jiggle=2;fillColor=#fff2cc;strokeColor=#d6b656;" parent="1" source="P5WHXRzJVsFPviINSVoN-8" target="P5WHXRzJVsFPviINSVoN-2" edge="1">
                    <mxGeometry relative="1" as="geometry">
                        <Array as="points">
                            <mxPoint x="240" y="213"/>
                            <mxPoint x="240" y="213"/>
                        </Array>
                    </mxGeometry>
                </mxCell>
                <mxCell id="P5WHXRzJVsFPviINSVoN-9" style="edgeStyle=orthogonalEdgeStyle;curved=1;sketch=1;html=1;strokeWidth=1;endArrow=classic;endFill=1;fillColor=#e1d5e7;strokeColor=#9673a6;" parent="1" source="P5WHXRzJVsFPviINSVoN-8" target="P5WHXRzJVsFPviINSVoN-12" edge="1">
                    <mxGeometry relative="1" as="geometry">
                        <mxPoint x="450" y="250" as="targetPoint"/>
                        <Array as="points">
                            <mxPoint x="420" y="175"/>
                            <mxPoint x="420" y="175"/>
                        </Array>
                    </mxGeometry>
                </mxCell>
                <mxCell id="P5WHXRzJVsFPviINSVoN-6" value="OK!" style="rounded=0;whiteSpace=wrap;html=1;sketch=1;curveFitting=1;jiggle=2;fillColor=#fff2cc;strokeColor=#d6b656;fillStyle=solid;" parent="1" vertex="1">
                    <mxGeometry x="220" y="200" width="120" height="20" as="geometry"/>
                </mxCell>
                <mxCell id="P5WHXRzJVsFPviINSVoN-5" value="Give me a doc" style="rounded=0;whiteSpace=wrap;html=1;sketch=1;curveFitting=1;jiggle=2;fillColor=#fff2cc;strokeColor=#d6b656;fillStyle=solid;" parent="1" vertex="1">
                    <mxGeometry x="220" y="160" width="120" height="20" as="geometry"/>
                </mxCell>
                <mxCell id="P5WHXRzJVsFPviINSVoN-12" value="perl &lt;br&gt;c++&lt;br&gt;&amp;nbsp;java&lt;br&gt;&amp;nbsp;shell" style="rounded=1;whiteSpace=wrap;html=1;sketch=1;curveFitting=1;jiggle=2;fillColor=#f5f5f5;strokeColor=#666666;fillStyle=solid;fontColor=#333333;" parent="1" vertex="1">
                    <mxGeometry x="490" y="150" width="50" height="70" as="geometry"/>
                </mxCell>
                <mxCell id="GakJRxS2InnoLYVHhaYQ-1" value="exec" style="rounded=0;whiteSpace=wrap;html=1;sketch=1;curveFitting=1;jiggle=2;fillColor=#e1d5e7;strokeColor=#9673a6;fillStyle=solid;" vertex="1" parent="1">
                    <mxGeometry x="420" y="160" width="40" height="20" as="geometry"/>
                </mxCell>
                <mxCell id="GakJRxS2InnoLYVHhaYQ-3" style="edgeStyle=orthogonalEdgeStyle;curved=1;sketch=1;html=1;strokeWidth=1;endArrow=classic;endFill=1;fillColor=#e1d5e7;strokeColor=#9673a6;" edge="1" parent="1" source="P5WHXRzJVsFPviINSVoN-12" target="P5WHXRzJVsFPviINSVoN-8">
                    <mxGeometry relative="1" as="geometry">
                        <Array as="points">
                            <mxPoint x="450" y="200"/>
                            <mxPoint x="450" y="200"/>
                        </Array>
                        <mxPoint x="540" y="195" as="sourcePoint"/>
                        <mxPoint x="590" y="195" as="targetPoint"/>
                    </mxGeometry>
                </mxCell>
                <mxCell id="GakJRxS2InnoLYVHhaYQ-4" value="compose" style="rounded=0;whiteSpace=wrap;html=1;sketch=1;curveFitting=1;jiggle=2;fillColor=#e1d5e7;strokeColor=#9673a6;fillStyle=solid;" vertex="1" parent="1">
                    <mxGeometry x="425" y="190" width="55" height="20" as="geometry"/>
                </mxCell>
                <mxCell id="GakJRxS2InnoLYVHhaYQ-5" value="read" style="rounded=0;whiteSpace=wrap;html=1;sketch=1;curveFitting=1;jiggle=2;fillColor=#e1d5e7;strokeColor=#9673a6;fillStyle=solid;" vertex="1" parent="1">
                    <mxGeometry x="550" y="177.5" width="55" height="20" as="geometry"/>
                </mxCell>
            </root>
        </mxGraphModel>
    </diagram>
    <diagram id="yFNTWd3W0hQ-gUNkfXd4" name="Page-4">
        <mxGraphModel dx="863" dy="337" grid="1" gridSize="10" guides="1" tooltips="1" connect="1" arrows="1" fold="1" page="1" pageScale="1" pageWidth="850" pageHeight="1100" math="0" shadow="0">
            <root>
                <mxCell id="0"/>
                <mxCell id="1" parent="0"/>
                <mxCell id="kH616te_Trx6RcRLmQu2-1" value="Browser" style="rounded=1;whiteSpace=wrap;html=1;sketch=1;curveFitting=1;jiggle=2;fillColor=#dae8fc;strokeColor=#6c8ebf;fillStyle=solid;" parent="1" vertex="1">
                    <mxGeometry x="80" y="160" width="120" height="60" as="geometry"/>
                </mxCell>
                <mxCell id="kH616te_Trx6RcRLmQu2-2" value="Server" style="rounded=1;whiteSpace=wrap;html=1;sketch=1;curveFitting=1;jiggle=2;fillColor=#d5e8d4;strokeColor=#82b366;fillStyle=solid;verticalAlign=top;" parent="1" vertex="1">
                    <mxGeometry x="360" y="130" width="230" height="130" as="geometry"/>
                </mxCell>
                <mxCell id="3xOYpIA9WgBP4cpjj3es-1" style="edgeStyle=orthogonalEdgeStyle;html=1;sketch=1;curveFitting=1;jiggle=2;fillColor=#e1d5e7;strokeColor=#9673a6;" edge="1" parent="1" source="kH616te_Trx6RcRLmQu2-5" target="kH616te_Trx6RcRLmQu2-11">
                    <mxGeometry relative="1" as="geometry">
                        <Array as="points">
                            <mxPoint x="440" y="165"/>
                            <mxPoint x="440" y="165"/>
                        </Array>
                    </mxGeometry>
                </mxCell>
                <mxCell id="kH616te_Trx6RcRLmQu2-5" value="Contoller" style="rounded=1;whiteSpace=wrap;html=1;sketch=1;curveFitting=1;jiggle=2;fillColor=#f5f5f5;strokeColor=#666666;fillStyle=solid;fontColor=#333333;" parent="1" vertex="1">
                    <mxGeometry x="370" y="150" width="60" height="70" as="geometry"/>
                </mxCell>
                <mxCell id="kH616te_Trx6RcRLmQu2-6" style="edgeStyle=orthogonalEdgeStyle;html=1;sketch=1;curveFitting=1;jiggle=2;fillColor=#fff2cc;strokeColor=#d6b656;" parent="1" source="kH616te_Trx6RcRLmQu2-1" target="kH616te_Trx6RcRLmQu2-5" edge="1">
                    <mxGeometry relative="1" as="geometry">
                        <Array as="points">
                            <mxPoint x="330" y="170"/>
                            <mxPoint x="330" y="170"/>
                        </Array>
                    </mxGeometry>
                </mxCell>
                <mxCell id="kH616te_Trx6RcRLmQu2-7" style="edgeStyle=orthogonalEdgeStyle;html=1;sketch=1;curveFitting=1;jiggle=2;fillColor=#fff2cc;strokeColor=#d6b656;" parent="1" source="kH616te_Trx6RcRLmQu2-5" target="kH616te_Trx6RcRLmQu2-1" edge="1">
                    <mxGeometry relative="1" as="geometry">
                        <Array as="points">
                            <mxPoint x="240" y="210"/>
                            <mxPoint x="240" y="210"/>
                        </Array>
                    </mxGeometry>
                </mxCell>
                <mxCell id="kH616te_Trx6RcRLmQu2-9" value="OK!" style="rounded=0;whiteSpace=wrap;html=1;sketch=1;curveFitting=1;jiggle=2;fillColor=#fff2cc;strokeColor=#d6b656;fillStyle=solid;" parent="1" vertex="1">
                    <mxGeometry x="220" y="200" width="120" height="20" as="geometry"/>
                </mxCell>
                <mxCell id="kH616te_Trx6RcRLmQu2-10" value="Give me a doc" style="rounded=0;whiteSpace=wrap;html=1;sketch=1;curveFitting=1;jiggle=2;fillColor=#fff2cc;strokeColor=#d6b656;fillStyle=solid;" parent="1" vertex="1">
                    <mxGeometry x="220" y="160" width="120" height="20" as="geometry"/>
                </mxCell>
                <mxCell id="3xOYpIA9WgBP4cpjj3es-4" style="edgeStyle=orthogonalEdgeStyle;sketch=1;html=1;fillColor=#e1d5e7;strokeColor=#9673a6;" edge="1" parent="1" source="kH616te_Trx6RcRLmQu2-11" target="kH616te_Trx6RcRLmQu2-12">
                    <mxGeometry relative="1" as="geometry">
                        <Array as="points">
                            <mxPoint x="555" y="180"/>
                            <mxPoint x="430" y="180"/>
                            <mxPoint x="430" y="200"/>
                            <mxPoint x="555" y="200"/>
                        </Array>
                    </mxGeometry>
                </mxCell>
                <mxCell id="kH616te_Trx6RcRLmQu2-11" value="Model" style="rounded=1;whiteSpace=wrap;html=1;sketch=1;curveFitting=1;jiggle=2;fillColor=#f5f5f5;strokeColor=#666666;fillStyle=solid;fontColor=#333333;" parent="1" vertex="1">
                    <mxGeometry x="530" y="142.5" width="50" height="30" as="geometry"/>
                </mxCell>
                <mxCell id="kH616te_Trx6RcRLmQu2-12" value="View" style="rounded=1;whiteSpace=wrap;html=1;sketch=1;curveFitting=1;jiggle=2;fillColor=#f5f5f5;strokeColor=#666666;fillStyle=solid;fontColor=#333333;" parent="1" vertex="1">
                    <mxGeometry x="530" y="220" width="50" height="30" as="geometry"/>
                </mxCell>
                <mxCell id="kH616te_Trx6RcRLmQu2-14" value="DB" style="shape=datastore;whiteSpace=wrap;html=1;rounded=1;sketch=1;fillStyle=solid;strokeColor=#82b366;fillColor=#d5e8d4;" parent="1" vertex="1">
                    <mxGeometry x="650" y="127.5" width="60" height="60" as="geometry"/>
                </mxCell>
                <mxCell id="3xOYpIA9WgBP4cpjj3es-2" style="edgeStyle=orthogonalEdgeStyle;html=1;sketch=1;curveFitting=1;jiggle=2;fillColor=#e1d5e7;strokeColor=#9673a6;" edge="1" parent="1" source="kH616te_Trx6RcRLmQu2-12" target="kH616te_Trx6RcRLmQu2-5">
                    <mxGeometry relative="1" as="geometry">
                        <mxPoint x="440" y="175" as="sourcePoint"/>
                        <mxPoint x="490" y="175" as="targetPoint"/>
                        <Array as="points">
                            <mxPoint x="400" y="240"/>
                        </Array>
                    </mxGeometry>
                </mxCell>
                <mxCell id="3xOYpIA9WgBP4cpjj3es-3" value="manipulate" style="rounded=0;whiteSpace=wrap;html=1;sketch=1;curveFitting=1;jiggle=2;fillColor=#e1d5e7;strokeColor=#9673a6;fillStyle=solid;" vertex="1" parent="1">
                    <mxGeometry x="445" y="157.5" width="65" height="15" as="geometry"/>
                </mxCell>
                <mxCell id="3xOYpIA9WgBP4cpjj3es-5" value="generate" style="rounded=0;whiteSpace=wrap;html=1;sketch=1;curveFitting=1;jiggle=2;fillColor=#e1d5e7;strokeColor=#9673a6;fillStyle=solid;" vertex="1" parent="1">
                    <mxGeometry x="485" y="182.5" width="55" height="15" as="geometry"/>
                </mxCell>
                <mxCell id="kH616te_Trx6RcRLmQu2-15" style="edgeStyle=orthogonalEdgeStyle;curved=1;sketch=1;html=1;strokeWidth=1;endArrow=classic;endFill=1;fillColor=#e1d5e7;strokeColor=#9673a6;" parent="1" source="kH616te_Trx6RcRLmQu2-11" target="kH616te_Trx6RcRLmQu2-14" edge="1">
                    <mxGeometry relative="1" as="geometry">
                        <mxPoint x="600" y="180" as="sourcePoint"/>
                    </mxGeometry>
                </mxCell>
                <mxCell id="3xOYpIA9WgBP4cpjj3es-8" value="CRUD" style="rounded=0;whiteSpace=wrap;html=1;sketch=1;curveFitting=1;jiggle=2;fillColor=#e1d5e7;strokeColor=#9673a6;fillStyle=solid;" vertex="1" parent="1">
                    <mxGeometry x="590" y="150" width="40" height="15" as="geometry"/>
                </mxCell>
                <mxCell id="3xOYpIA9WgBP4cpjj3es-12" value="return" style="rounded=0;whiteSpace=wrap;html=1;sketch=1;curveFitting=1;jiggle=2;fillColor=#e1d5e7;strokeColor=#9673a6;fillStyle=solid;" vertex="1" parent="1">
                    <mxGeometry x="430" y="235" width="55" height="15" as="geometry"/>
                </mxCell>
            </root>
        </mxGraphModel>
    </diagram>
    <diagram id="Zhfu0MhyqaMdSIVd3gGf" name="Page-9">
        <mxGraphModel dx="719" dy="281" grid="1" gridSize="10" guides="1" tooltips="1" connect="1" arrows="1" fold="1" page="1" pageScale="1" pageWidth="850" pageHeight="1100" math="0" shadow="0">
            <root>
                <mxCell id="0"/>
                <mxCell id="1" parent="0"/>
                <mxCell id="YfiYyZgXhgQEPwwtKmts-1" value="Browser" style="rounded=1;whiteSpace=wrap;html=1;sketch=1;curveFitting=1;jiggle=2;fillColor=#dae8fc;strokeColor=#6c8ebf;fillStyle=solid;" vertex="1" parent="1">
                    <mxGeometry x="80" y="160" width="120" height="60" as="geometry"/>
                </mxCell>
                <mxCell id="YfiYyZgXhgQEPwwtKmts-2" value="Web Server" style="rounded=1;whiteSpace=wrap;html=1;sketch=1;curveFitting=1;jiggle=2;fillColor=#d5e8d4;strokeColor=#82b366;fillStyle=solid;verticalAlign=top;" vertex="1" parent="1">
                    <mxGeometry x="360" y="130" width="230" height="130" as="geometry"/>
                </mxCell>
                <mxCell id="YfiYyZgXhgQEPwwtKmts-3" style="edgeStyle=orthogonalEdgeStyle;html=1;sketch=1;curveFitting=1;jiggle=2;fillColor=#e1d5e7;strokeColor=#9673a6;" edge="1" parent="1" source="YfiYyZgXhgQEPwwtKmts-4" target="YfiYyZgXhgQEPwwtKmts-10">
                    <mxGeometry relative="1" as="geometry">
                        <Array as="points">
                            <mxPoint x="440" y="165"/>
                            <mxPoint x="440" y="165"/>
                        </Array>
                    </mxGeometry>
                </mxCell>
                <mxCell id="YfiYyZgXhgQEPwwtKmts-4" value="Contoller" style="rounded=1;whiteSpace=wrap;html=1;sketch=1;curveFitting=1;jiggle=2;fillColor=#f5f5f5;strokeColor=#666666;fillStyle=solid;fontColor=#333333;" vertex="1" parent="1">
                    <mxGeometry x="370" y="150" width="60" height="70" as="geometry"/>
                </mxCell>
                <mxCell id="YfiYyZgXhgQEPwwtKmts-5" style="edgeStyle=orthogonalEdgeStyle;html=1;sketch=1;curveFitting=1;jiggle=2;fillColor=#fff2cc;strokeColor=#d6b656;" edge="1" parent="1" source="YfiYyZgXhgQEPwwtKmts-1" target="YfiYyZgXhgQEPwwtKmts-4">
                    <mxGeometry relative="1" as="geometry">
                        <Array as="points">
                            <mxPoint x="330" y="170"/>
                            <mxPoint x="330" y="170"/>
                        </Array>
                    </mxGeometry>
                </mxCell>
                <mxCell id="YfiYyZgXhgQEPwwtKmts-6" style="edgeStyle=orthogonalEdgeStyle;html=1;sketch=1;curveFitting=1;jiggle=2;fillColor=#fff2cc;strokeColor=#d6b656;" edge="1" parent="1" source="YfiYyZgXhgQEPwwtKmts-4" target="YfiYyZgXhgQEPwwtKmts-1">
                    <mxGeometry relative="1" as="geometry">
                        <Array as="points">
                            <mxPoint x="240" y="210"/>
                            <mxPoint x="240" y="210"/>
                        </Array>
                    </mxGeometry>
                </mxCell>
                <mxCell id="YfiYyZgXhgQEPwwtKmts-7" value="OK!" style="rounded=0;whiteSpace=wrap;html=1;sketch=1;curveFitting=1;jiggle=2;fillColor=#fff2cc;strokeColor=#d6b656;fillStyle=solid;" vertex="1" parent="1">
                    <mxGeometry x="220" y="200" width="120" height="20" as="geometry"/>
                </mxCell>
                <mxCell id="YfiYyZgXhgQEPwwtKmts-8" value="Give me a doc" style="rounded=0;whiteSpace=wrap;html=1;sketch=1;curveFitting=1;jiggle=2;fillColor=#fff2cc;strokeColor=#d6b656;fillStyle=solid;" vertex="1" parent="1">
                    <mxGeometry x="220" y="160" width="120" height="20" as="geometry"/>
                </mxCell>
                <mxCell id="YfiYyZgXhgQEPwwtKmts-9" style="edgeStyle=orthogonalEdgeStyle;sketch=1;html=1;fillColor=#e1d5e7;strokeColor=#9673a6;" edge="1" parent="1" source="YfiYyZgXhgQEPwwtKmts-10" target="YfiYyZgXhgQEPwwtKmts-11">
                    <mxGeometry relative="1" as="geometry">
                        <Array as="points">
                            <mxPoint x="555" y="180"/>
                            <mxPoint x="430" y="180"/>
                            <mxPoint x="430" y="200"/>
                            <mxPoint x="555" y="200"/>
                        </Array>
                    </mxGeometry>
                </mxCell>
                <mxCell id="YfiYyZgXhgQEPwwtKmts-10" value="Model" style="rounded=1;whiteSpace=wrap;html=1;sketch=1;curveFitting=1;jiggle=2;fillColor=#f5f5f5;strokeColor=#666666;fillStyle=solid;fontColor=#333333;" vertex="1" parent="1">
                    <mxGeometry x="530" y="142.5" width="50" height="30" as="geometry"/>
                </mxCell>
                <mxCell id="YfiYyZgXhgQEPwwtKmts-11" value="View" style="rounded=1;whiteSpace=wrap;html=1;sketch=1;curveFitting=1;jiggle=2;fillColor=#f5f5f5;strokeColor=#666666;fillStyle=solid;fontColor=#333333;" vertex="1" parent="1">
                    <mxGeometry x="530" y="220" width="50" height="30" as="geometry"/>
                </mxCell>
                <mxCell id="YfiYyZgXhgQEPwwtKmts-12" value="DB" style="shape=datastore;whiteSpace=wrap;html=1;rounded=1;sketch=1;fillStyle=solid;strokeColor=#82b366;fillColor=#d5e8d4;" vertex="1" parent="1">
                    <mxGeometry x="650" y="127.5" width="60" height="60" as="geometry"/>
                </mxCell>
                <mxCell id="YfiYyZgXhgQEPwwtKmts-13" style="edgeStyle=orthogonalEdgeStyle;html=1;sketch=1;curveFitting=1;jiggle=2;fillColor=#e1d5e7;strokeColor=#9673a6;" edge="1" parent="1" source="YfiYyZgXhgQEPwwtKmts-11" target="YfiYyZgXhgQEPwwtKmts-4">
                    <mxGeometry relative="1" as="geometry">
                        <mxPoint x="440" y="175" as="sourcePoint"/>
                        <mxPoint x="490" y="175" as="targetPoint"/>
                        <Array as="points">
                            <mxPoint x="400" y="240"/>
                        </Array>
                    </mxGeometry>
                </mxCell>
                <mxCell id="YfiYyZgXhgQEPwwtKmts-14" value="manipulate" style="rounded=0;whiteSpace=wrap;html=1;sketch=1;curveFitting=1;jiggle=2;fillColor=#e1d5e7;strokeColor=#9673a6;fillStyle=solid;" vertex="1" parent="1">
                    <mxGeometry x="445" y="157.5" width="65" height="15" as="geometry"/>
                </mxCell>
                <mxCell id="YfiYyZgXhgQEPwwtKmts-15" value="generate" style="rounded=0;whiteSpace=wrap;html=1;sketch=1;curveFitting=1;jiggle=2;fillColor=#e1d5e7;strokeColor=#9673a6;fillStyle=solid;" vertex="1" parent="1">
                    <mxGeometry x="485" y="182.5" width="55" height="15" as="geometry"/>
                </mxCell>
                <mxCell id="YfiYyZgXhgQEPwwtKmts-16" style="edgeStyle=orthogonalEdgeStyle;curved=1;sketch=1;html=1;strokeWidth=1;endArrow=classic;endFill=1;fillColor=#e1d5e7;strokeColor=#9673a6;" edge="1" parent="1" source="YfiYyZgXhgQEPwwtKmts-10" target="YfiYyZgXhgQEPwwtKmts-12">
                    <mxGeometry relative="1" as="geometry">
                        <mxPoint x="600" y="180" as="sourcePoint"/>
                    </mxGeometry>
                </mxCell>
                <mxCell id="YfiYyZgXhgQEPwwtKmts-17" value="CRUD" style="rounded=0;whiteSpace=wrap;html=1;sketch=1;curveFitting=1;jiggle=2;fillColor=#e1d5e7;strokeColor=#9673a6;fillStyle=solid;" vertex="1" parent="1">
                    <mxGeometry x="590" y="150" width="40" height="15" as="geometry"/>
                </mxCell>
                <mxCell id="YfiYyZgXhgQEPwwtKmts-18" value="return" style="rounded=0;whiteSpace=wrap;html=1;sketch=1;curveFitting=1;jiggle=2;fillColor=#e1d5e7;strokeColor=#9673a6;fillStyle=solid;" vertex="1" parent="1">
                    <mxGeometry x="430" y="235" width="55" height="15" as="geometry"/>
                </mxCell>
                <mxCell id="YfiYyZgXhgQEPwwtKmts-19" value="Data Server" style="rounded=1;whiteSpace=wrap;html=1;sketch=1;curveFitting=1;jiggle=2;fillColor=#d5e8d4;strokeColor=#82b366;fillStyle=solid;verticalAlign=middle;" vertex="1" parent="1">
                    <mxGeometry x="80" y="280" width="120" height="40" as="geometry"/>
                </mxCell>
                <mxCell id="YfiYyZgXhgQEPwwtKmts-25" style="edgeStyle=orthogonalEdgeStyle;sketch=1;html=1;fillColor=#fff2cc;strokeColor=#d6b656;" edge="1" parent="1" source="YfiYyZgXhgQEPwwtKmts-19" target="YfiYyZgXhgQEPwwtKmts-1">
                    <mxGeometry relative="1" as="geometry">
                        <mxPoint x="130" y="229.99999999999994" as="sourcePoint"/>
                        <mxPoint x="130" y="290" as="targetPoint"/>
                        <Array as="points">
                            <mxPoint x="170" y="270"/>
                            <mxPoint x="170" y="270"/>
                        </Array>
                    </mxGeometry>
                </mxCell>
                <mxCell id="YfiYyZgXhgQEPwwtKmts-26" value="OK!" style="rounded=0;whiteSpace=wrap;html=1;sketch=1;curveFitting=1;jiggle=2;fillColor=#fff2cc;strokeColor=#d6b656;fillStyle=solid;" vertex="1" parent="1">
                    <mxGeometry x="150" y="250" width="60" height="20" as="geometry"/>
                </mxCell>
                <mxCell id="YfiYyZgXhgQEPwwtKmts-27" value="AJAX" style="rounded=1;whiteSpace=wrap;html=1;sketch=1;curveFitting=1;jiggle=2;fillColor=none;strokeColor=#b85450;fillStyle=solid;verticalAlign=bottom;" vertex="1" parent="1">
                    <mxGeometry x="40" y="210" width="200" height="140" as="geometry"/>
                </mxCell>
                <mxCell id="YfiYyZgXhgQEPwwtKmts-29" style="edgeStyle=orthogonalEdgeStyle;sketch=1;html=1;fillColor=#fff2cc;strokeColor=#d6b656;" edge="1" parent="1" source="YfiYyZgXhgQEPwwtKmts-1" target="YfiYyZgXhgQEPwwtKmts-19">
                    <mxGeometry relative="1" as="geometry">
                        <mxPoint x="180" y="290" as="sourcePoint"/>
                        <mxPoint x="180" y="229.99999999999994" as="targetPoint"/>
                        <Array as="points">
                            <mxPoint x="110" y="250"/>
                            <mxPoint x="110" y="250"/>
                        </Array>
                    </mxGeometry>
                </mxCell>
                <mxCell id="YfiYyZgXhgQEPwwtKmts-23" value="Give me data" style="rounded=0;whiteSpace=wrap;html=1;sketch=1;curveFitting=1;jiggle=2;fillColor=#fff2cc;strokeColor=#d6b656;fillStyle=solid;" vertex="1" parent="1">
                    <mxGeometry x="50" y="232.5" width="90" height="20" as="geometry"/>
                </mxCell>
            </root>
        </mxGraphModel>
    </diagram>
    <diagram id="e4kxtxYOSvKK1QZgdD58" name="Page-5">
        <mxGraphModel dx="1015" dy="646" grid="1" gridSize="10" guides="1" tooltips="1" connect="1" arrows="1" fold="1" page="1" pageScale="1" pageWidth="850" pageHeight="1100" math="0" shadow="0">
            <root>
                <mxCell id="0"/>
                <mxCell id="1" parent="0"/>
                <mxCell id="2Bjr2uXdAos7gRiqIqDr-1" value="Browser&lt;br&gt;(App)" style="rounded=1;whiteSpace=wrap;html=1;sketch=1;curveFitting=1;jiggle=2;fillColor=#dae8fc;strokeColor=#6c8ebf;fillStyle=solid;verticalAlign=top;" parent="1" vertex="1">
                    <mxGeometry x="30" y="70" width="170" height="170" as="geometry"/>
                </mxCell>
                <mxCell id="2Bjr2uXdAos7gRiqIqDr-2" style="edgeStyle=orthogonalEdgeStyle;curved=1;sketch=1;html=1;strokeWidth=1;endArrow=classic;endFill=1;fillColor=#e1d5e7;strokeColor=#9673a6;" parent="1" source="2Bjr2uXdAos7gRiqIqDr-3" target="2Bjr2uXdAos7gRiqIqDr-11" edge="1">
                    <mxGeometry relative="1" as="geometry"/>
                </mxCell>
                <mxCell id="2Bjr2uXdAos7gRiqIqDr-3" value="Server" style="rounded=1;whiteSpace=wrap;html=1;sketch=1;curveFitting=1;jiggle=2;fillColor=#d5e8d4;strokeColor=#82b366;fillStyle=solid;verticalAlign=top;" parent="1" vertex="1">
                    <mxGeometry x="360" y="130" width="150" height="110" as="geometry"/>
                </mxCell>
                <mxCell id="2Bjr2uXdAos7gRiqIqDr-4" value="Contoller" style="rounded=1;whiteSpace=wrap;html=1;sketch=1;curveFitting=1;jiggle=2;fillColor=#f5f5f5;strokeColor=#666666;fillStyle=solid;fontColor=#333333;" parent="1" vertex="1">
                    <mxGeometry x="380" y="155" width="50" height="70" as="geometry"/>
                </mxCell>
                <mxCell id="2Bjr2uXdAos7gRiqIqDr-5" style="edgeStyle=orthogonalEdgeStyle;html=1;sketch=1;curveFitting=1;jiggle=2;fillColor=#fff2cc;strokeColor=#d6b656;" parent="1" source="2Bjr2uXdAos7gRiqIqDr-1" target="2Bjr2uXdAos7gRiqIqDr-3" edge="1">
                    <mxGeometry relative="1" as="geometry">
                        <Array as="points">
                            <mxPoint x="320" y="170"/>
                            <mxPoint x="320" y="170"/>
                        </Array>
                    </mxGeometry>
                </mxCell>
                <mxCell id="2Bjr2uXdAos7gRiqIqDr-6" style="edgeStyle=orthogonalEdgeStyle;html=1;sketch=1;curveFitting=1;jiggle=2;fillColor=#fff2cc;strokeColor=#d6b656;" parent="1" source="2Bjr2uXdAos7gRiqIqDr-3" target="2Bjr2uXdAos7gRiqIqDr-1" edge="1">
                    <mxGeometry relative="1" as="geometry">
                        <Array as="points">
                            <mxPoint x="320" y="210"/>
                            <mxPoint x="320" y="210"/>
                        </Array>
                    </mxGeometry>
                </mxCell>
                <mxCell id="2Bjr2uXdAos7gRiqIqDr-7" value="OK!&amp;nbsp;" style="rounded=0;whiteSpace=wrap;html=1;sketch=1;curveFitting=1;jiggle=2;fillColor=#fff2cc;strokeColor=#d6b656;fillStyle=solid;" parent="1" vertex="1">
                    <mxGeometry x="220" y="200" width="120" height="20" as="geometry"/>
                </mxCell>
                <mxCell id="2Bjr2uXdAos7gRiqIqDr-8" value="Give me data" style="rounded=0;whiteSpace=wrap;html=1;sketch=1;curveFitting=1;jiggle=2;fillColor=#fff2cc;strokeColor=#d6b656;fillStyle=solid;" parent="1" vertex="1">
                    <mxGeometry x="220" y="160" width="120" height="20" as="geometry"/>
                </mxCell>
                <mxCell id="2Bjr2uXdAos7gRiqIqDr-9" value="Model" style="rounded=1;whiteSpace=wrap;html=1;sketch=1;curveFitting=1;jiggle=2;fillColor=#f5f5f5;strokeColor=#666666;fillStyle=solid;fontColor=#333333;" parent="1" vertex="1">
                    <mxGeometry x="440" y="155" width="50" height="70" as="geometry"/>
                </mxCell>
                <mxCell id="2Bjr2uXdAos7gRiqIqDr-11" value="DB" style="shape=datastore;whiteSpace=wrap;html=1;rounded=1;sketch=1;fillStyle=solid;strokeColor=#82b366;fillColor=#d5e8d4;" parent="1" vertex="1">
                    <mxGeometry x="540" y="150" width="60" height="70" as="geometry"/>
                </mxCell>
                <mxCell id="y7e5QDdVsJKGVDJLD4Yc-1" style="edgeStyle=orthogonalEdgeStyle;sketch=1;html=1;fillColor=#e1d5e7;strokeColor=#9673a6;" parent="1" source="2Bjr2uXdAos7gRiqIqDr-12" target="2Bjr2uXdAos7gRiqIqDr-13" edge="1">
                    <mxGeometry relative="1" as="geometry">
                        <Array as="points">
                            <mxPoint x="120" y="192"/>
                            <mxPoint x="120" y="140"/>
                            <mxPoint x="110" y="140"/>
                            <mxPoint x="110" y="190"/>
                        </Array>
                    </mxGeometry>
                </mxCell>
                <mxCell id="2Bjr2uXdAos7gRiqIqDr-12" value="Model" style="rounded=1;whiteSpace=wrap;html=1;sketch=1;curveFitting=1;jiggle=2;fillColor=#f5f5f5;strokeColor=#666666;fillStyle=solid;fontColor=#333333;" parent="1" vertex="1">
                    <mxGeometry x="140" y="160" width="50" height="65" as="geometry"/>
                </mxCell>
                <mxCell id="y7e5QDdVsJKGVDJLD4Yc-2" style="edgeStyle=orthogonalEdgeStyle;sketch=1;html=1;fillColor=#e1d5e7;strokeColor=#9673a6;" parent="1" source="2Bjr2uXdAos7gRiqIqDr-13" target="PGA_4quRig7JHF05sKg5-1" edge="1">
                    <mxGeometry relative="1" as="geometry">
                        <Array as="points">
                            <mxPoint x="60" y="130"/>
                        </Array>
                    </mxGeometry>
                </mxCell>
                <mxCell id="2Bjr2uXdAos7gRiqIqDr-13" value="View" style="rounded=1;whiteSpace=wrap;html=1;sketch=1;curveFitting=1;jiggle=2;fillColor=#f5f5f5;strokeColor=#666666;fillStyle=solid;fontColor=#333333;" parent="1" vertex="1">
                    <mxGeometry x="40" y="160" width="50" height="65" as="geometry"/>
                </mxCell>
                <mxCell id="AKmaBhgDIHPoIrjdy7fX-1" style="edgeStyle=orthogonalEdgeStyle;sketch=1;html=1;fillColor=#e1d5e7;strokeColor=#9673a6;" parent="1" source="PGA_4quRig7JHF05sKg5-1" target="2Bjr2uXdAos7gRiqIqDr-12" edge="1">
                    <mxGeometry relative="1" as="geometry">
                        <Array as="points">
                            <mxPoint x="165" y="130"/>
                        </Array>
                    </mxGeometry>
                </mxCell>
                <mxCell id="PGA_4quRig7JHF05sKg5-1" value="Contoller" style="rounded=1;whiteSpace=wrap;html=1;sketch=1;curveFitting=1;jiggle=2;fillColor=#f5f5f5;strokeColor=#666666;fillStyle=solid;fontColor=#333333;" parent="1" vertex="1">
                    <mxGeometry x="80" y="110" width="60" height="30" as="geometry"/>
                </mxCell>
                <mxCell id="y7e5QDdVsJKGVDJLD4Yc-3" value="manipulate" style="rounded=0;whiteSpace=wrap;html=1;sketch=1;curveFitting=1;jiggle=2;fillColor=#e1d5e7;strokeColor=#9673a6;fillStyle=solid;" parent="1" vertex="1">
                    <mxGeometry x="160" y="120" width="70" height="20" as="geometry"/>
                </mxCell>
                <mxCell id="y7e5QDdVsJKGVDJLD4Yc-4" value="update" style="rounded=0;whiteSpace=wrap;html=1;sketch=1;curveFitting=1;jiggle=2;fillColor=#e1d5e7;strokeColor=#9673a6;fillStyle=solid;" parent="1" vertex="1">
                    <mxGeometry x="95" y="150" width="40" height="20" as="geometry"/>
                </mxCell>
                <mxCell id="y7e5QDdVsJKGVDJLD4Yc-5" value="event" style="rounded=0;whiteSpace=wrap;html=1;sketch=1;curveFitting=1;jiggle=2;fillColor=#e1d5e7;strokeColor=#9673a6;fillStyle=solid;" parent="1" vertex="1">
                    <mxGeometry x="20" y="120" width="40" height="20" as="geometry"/>
                </mxCell>
            </root>
        </mxGraphModel>
    </diagram>
    <diagram id="Xg4QulKAdN20QSbxHdAf" name="Page-6">
        <mxGraphModel dx="863" dy="549" grid="1" gridSize="10" guides="1" tooltips="1" connect="1" arrows="1" fold="1" page="1" pageScale="1" pageWidth="850" pageHeight="1100" math="0" shadow="0">
            <root>
                <mxCell id="0"/>
                <mxCell id="1" parent="0"/>
                <mxCell id="JjuIBOztVaa5Q4OvXmsB-1" value="Browser" style="rounded=1;whiteSpace=wrap;html=1;sketch=1;curveFitting=1;jiggle=2;fillColor=#dae8fc;strokeColor=#6c8ebf;fillStyle=solid;verticalAlign=top;" parent="1" vertex="1">
                    <mxGeometry x="60" y="130" width="140" height="110" as="geometry"/>
                </mxCell>
                <mxCell id="JjuIBOztVaa5Q4OvXmsB-2" style="edgeStyle=orthogonalEdgeStyle;curved=1;sketch=1;html=1;strokeWidth=1;endArrow=classic;endFill=1;fillColor=#e1d5e7;strokeColor=#9673a6;" parent="1" source="JjuIBOztVaa5Q4OvXmsB-3" target="JjuIBOztVaa5Q4OvXmsB-10" edge="1">
                    <mxGeometry relative="1" as="geometry"/>
                </mxCell>
                <mxCell id="JjuIBOztVaa5Q4OvXmsB-3" value="Server" style="rounded=1;whiteSpace=wrap;html=1;sketch=1;curveFitting=1;jiggle=2;fillColor=#d5e8d4;strokeColor=#82b366;fillStyle=solid;verticalAlign=top;" parent="1" vertex="1">
                    <mxGeometry x="360" y="130" width="150" height="100" as="geometry"/>
                </mxCell>
                <mxCell id="JjuIBOztVaa5Q4OvXmsB-4" value="C" style="rounded=1;whiteSpace=wrap;html=1;sketch=1;curveFitting=1;jiggle=2;fillColor=#f5f5f5;strokeColor=#666666;fillStyle=solid;fontColor=#333333;" parent="1" vertex="1">
                    <mxGeometry x="385" y="155" width="40" height="70" as="geometry"/>
                </mxCell>
                <mxCell id="JjuIBOztVaa5Q4OvXmsB-5" style="edgeStyle=orthogonalEdgeStyle;html=1;sketch=1;curveFitting=1;jiggle=2;fillColor=#fff2cc;strokeColor=#d6b656;" parent="1" source="JjuIBOztVaa5Q4OvXmsB-1" target="JjuIBOztVaa5Q4OvXmsB-3" edge="1">
                    <mxGeometry relative="1" as="geometry">
                        <Array as="points">
                            <mxPoint x="320" y="170"/>
                            <mxPoint x="320" y="170"/>
                        </Array>
                    </mxGeometry>
                </mxCell>
                <mxCell id="JjuIBOztVaa5Q4OvXmsB-6" style="edgeStyle=orthogonalEdgeStyle;html=1;sketch=1;curveFitting=1;jiggle=2;fillColor=#fff2cc;strokeColor=#d6b656;" parent="1" source="JjuIBOztVaa5Q4OvXmsB-3" target="JjuIBOztVaa5Q4OvXmsB-1" edge="1">
                    <mxGeometry relative="1" as="geometry">
                        <Array as="points">
                            <mxPoint x="320" y="210"/>
                            <mxPoint x="320" y="210"/>
                        </Array>
                    </mxGeometry>
                </mxCell>
                <mxCell id="JjuIBOztVaa5Q4OvXmsB-7" value="OK! (JSON)" style="rounded=0;whiteSpace=wrap;html=1;sketch=1;curveFitting=1;jiggle=2;fillColor=#fff2cc;strokeColor=#d6b656;fillStyle=solid;" parent="1" vertex="1">
                    <mxGeometry x="220" y="200" width="120" height="20" as="geometry"/>
                </mxCell>
                <mxCell id="JjuIBOztVaa5Q4OvXmsB-8" value="Give me a data" style="rounded=0;whiteSpace=wrap;html=1;sketch=1;curveFitting=1;jiggle=2;fillColor=#fff2cc;strokeColor=#d6b656;fillStyle=solid;" parent="1" vertex="1">
                    <mxGeometry x="220" y="160" width="120" height="20" as="geometry"/>
                </mxCell>
                <mxCell id="JjuIBOztVaa5Q4OvXmsB-9" value="M" style="rounded=1;whiteSpace=wrap;html=1;sketch=1;curveFitting=1;jiggle=2;fillColor=#f5f5f5;strokeColor=#666666;fillStyle=solid;fontColor=#333333;" parent="1" vertex="1">
                    <mxGeometry x="440" y="155" width="40" height="70" as="geometry"/>
                </mxCell>
                <mxCell id="JjuIBOztVaa5Q4OvXmsB-10" value="DB" style="shape=datastore;whiteSpace=wrap;html=1;rounded=1;sketch=1;fillStyle=solid;strokeColor=#82b366;fillColor=#d5e8d4;" parent="1" vertex="1">
                    <mxGeometry x="540" y="150" width="60" height="60" as="geometry"/>
                </mxCell>
                <mxCell id="JjuIBOztVaa5Q4OvXmsB-11" value="M" style="rounded=1;whiteSpace=wrap;html=1;sketch=1;curveFitting=1;jiggle=2;fillColor=#f5f5f5;strokeColor=#666666;fillStyle=solid;fontColor=#333333;" parent="1" vertex="1">
                    <mxGeometry x="70" y="155" width="70" height="30" as="geometry"/>
                </mxCell>
                <mxCell id="JjuIBOztVaa5Q4OvXmsB-12" value="V" style="rounded=1;whiteSpace=wrap;html=1;sketch=1;curveFitting=1;jiggle=2;fillColor=#f5f5f5;strokeColor=#666666;fillStyle=solid;fontColor=#333333;" parent="1" vertex="1">
                    <mxGeometry x="70" y="195" width="70" height="30" as="geometry"/>
                </mxCell>
                <mxCell id="JjuIBOztVaa5Q4OvXmsB-13" value="C" style="rounded=1;whiteSpace=wrap;html=1;sketch=1;curveFitting=1;jiggle=2;fillColor=#f5f5f5;strokeColor=#666666;fillStyle=solid;fontColor=#333333;" parent="1" vertex="1">
                    <mxGeometry x="150" y="160" width="40" height="65" as="geometry"/>
                </mxCell>
            </root>
        </mxGraphModel>
    </diagram>
    <diagram id="1oZbxFfijhPz62Db84-W" name="Page-7">
        <mxGraphModel dx="863" dy="549" grid="1" gridSize="10" guides="1" tooltips="1" connect="1" arrows="1" fold="1" page="1" pageScale="1" pageWidth="850" pageHeight="1100" math="0" shadow="0">
            <root>
                <mxCell id="0"/>
                <mxCell id="1" parent="0"/>
                <mxCell id="qPDr9I2L0zI6H6qqkBgV-15" style="edgeStyle=none;html=1;sketch=1;curveFitting=1;jiggle=2;endArrow=none;endFill=0;fillColor=#dae8fc;strokeColor=#6c8ebf;" parent="1" source="qPDr9I2L0zI6H6qqkBgV-1" target="qPDr9I2L0zI6H6qqkBgV-2" edge="1">
                    <mxGeometry relative="1" as="geometry"/>
                </mxCell>
                <mxCell id="qPDr9I2L0zI6H6qqkBgV-17" style="edgeStyle=none;sketch=1;html=1;endArrow=none;endFill=0;fillColor=#dae8fc;strokeColor=#6c8ebf;" parent="1" source="qPDr9I2L0zI6H6qqkBgV-1" target="qPDr9I2L0zI6H6qqkBgV-4" edge="1">
                    <mxGeometry relative="1" as="geometry"/>
                </mxCell>
                <mxCell id="qPDr9I2L0zI6H6qqkBgV-1" value="" style="ellipse;whiteSpace=wrap;html=1;fillColor=#dae8fc;strokeColor=#6c8ebf;sketch=1;curveFitting=1;jiggle=2;" parent="1" vertex="1">
                    <mxGeometry x="280" y="170" width="50" height="50" as="geometry"/>
                </mxCell>
                <mxCell id="qPDr9I2L0zI6H6qqkBgV-18" style="edgeStyle=none;sketch=1;html=1;endArrow=none;endFill=0;fillColor=#dae8fc;strokeColor=#6c8ebf;" parent="1" source="qPDr9I2L0zI6H6qqkBgV-2" target="qPDr9I2L0zI6H6qqkBgV-3" edge="1">
                    <mxGeometry relative="1" as="geometry"/>
                </mxCell>
                <mxCell id="qPDr9I2L0zI6H6qqkBgV-19" style="edgeStyle=none;sketch=1;html=1;endArrow=none;endFill=0;fillColor=#dae8fc;strokeColor=#6c8ebf;" parent="1" source="qPDr9I2L0zI6H6qqkBgV-2" target="qPDr9I2L0zI6H6qqkBgV-5" edge="1">
                    <mxGeometry relative="1" as="geometry"/>
                </mxCell>
                <mxCell id="qPDr9I2L0zI6H6qqkBgV-2" value="" style="ellipse;whiteSpace=wrap;html=1;fillColor=#dae8fc;strokeColor=#6c8ebf;sketch=1;curveFitting=1;jiggle=2;" parent="1" vertex="1">
                    <mxGeometry x="230" y="250" width="50" height="50" as="geometry"/>
                </mxCell>
                <mxCell id="qPDr9I2L0zI6H6qqkBgV-23" style="edgeStyle=none;sketch=1;html=1;endArrow=none;endFill=0;fillColor=#dae8fc;strokeColor=#6c8ebf;" parent="1" source="qPDr9I2L0zI6H6qqkBgV-3" target="qPDr9I2L0zI6H6qqkBgV-14" edge="1">
                    <mxGeometry relative="1" as="geometry"/>
                </mxCell>
                <mxCell id="qPDr9I2L0zI6H6qqkBgV-3" value="" style="ellipse;whiteSpace=wrap;html=1;fillColor=#dae8fc;strokeColor=#6c8ebf;sketch=1;curveFitting=1;jiggle=2;" parent="1" vertex="1">
                    <mxGeometry x="190" y="350" width="50" height="50" as="geometry"/>
                </mxCell>
                <mxCell id="qPDr9I2L0zI6H6qqkBgV-20" style="edgeStyle=none;sketch=1;html=1;endArrow=none;endFill=0;fillColor=#dae8fc;strokeColor=#6c8ebf;" parent="1" source="qPDr9I2L0zI6H6qqkBgV-4" target="qPDr9I2L0zI6H6qqkBgV-6" edge="1">
                    <mxGeometry relative="1" as="geometry"/>
                </mxCell>
                <mxCell id="qPDr9I2L0zI6H6qqkBgV-4" value="" style="ellipse;whiteSpace=wrap;html=1;fillColor=#dae8fc;strokeColor=#6c8ebf;sketch=1;curveFitting=1;jiggle=2;" parent="1" vertex="1">
                    <mxGeometry x="340" y="250" width="50" height="50" as="geometry"/>
                </mxCell>
                <mxCell id="qPDr9I2L0zI6H6qqkBgV-21" style="edgeStyle=none;sketch=1;html=1;endArrow=none;endFill=0;fillColor=#f8cecc;strokeColor=#b85450;" parent="1" source="qPDr9I2L0zI6H6qqkBgV-5" target="qPDr9I2L0zI6H6qqkBgV-13" edge="1">
                    <mxGeometry relative="1" as="geometry"/>
                </mxCell>
                <mxCell id="qPDr9I2L0zI6H6qqkBgV-22" style="edgeStyle=none;sketch=1;html=1;endArrow=none;endFill=0;fillColor=#f8cecc;strokeColor=#b85450;" parent="1" source="qPDr9I2L0zI6H6qqkBgV-5" target="qPDr9I2L0zI6H6qqkBgV-11" edge="1">
                    <mxGeometry relative="1" as="geometry"/>
                </mxCell>
                <mxCell id="qPDr9I2L0zI6H6qqkBgV-5" value="" style="ellipse;whiteSpace=wrap;html=1;fillColor=#f8cecc;strokeColor=#b85450;sketch=1;curveFitting=1;jiggle=2;fillStyle=solid;" parent="1" vertex="1">
                    <mxGeometry x="290" y="350" width="50" height="50" as="geometry"/>
                </mxCell>
                <mxCell id="qPDr9I2L0zI6H6qqkBgV-24" style="edgeStyle=none;sketch=1;html=1;endArrow=none;endFill=0;fillColor=#dae8fc;strokeColor=#6c8ebf;" parent="1" source="qPDr9I2L0zI6H6qqkBgV-6" target="qPDr9I2L0zI6H6qqkBgV-7" edge="1">
                    <mxGeometry relative="1" as="geometry"/>
                </mxCell>
                <mxCell id="qPDr9I2L0zI6H6qqkBgV-25" style="edgeStyle=none;sketch=1;html=1;endArrow=none;endFill=0;fillColor=#dae8fc;strokeColor=#6c8ebf;" parent="1" source="qPDr9I2L0zI6H6qqkBgV-6" target="qPDr9I2L0zI6H6qqkBgV-9" edge="1">
                    <mxGeometry relative="1" as="geometry"/>
                </mxCell>
                <mxCell id="qPDr9I2L0zI6H6qqkBgV-26" style="edgeStyle=none;sketch=1;html=1;endArrow=none;endFill=0;fillColor=#dae8fc;strokeColor=#6c8ebf;" parent="1" source="qPDr9I2L0zI6H6qqkBgV-6" target="qPDr9I2L0zI6H6qqkBgV-8" edge="1">
                    <mxGeometry relative="1" as="geometry"/>
                </mxCell>
                <mxCell id="qPDr9I2L0zI6H6qqkBgV-6" value="" style="ellipse;whiteSpace=wrap;html=1;fillColor=#dae8fc;strokeColor=#6c8ebf;sketch=1;curveFitting=1;jiggle=2;" parent="1" vertex="1">
                    <mxGeometry x="400" y="350" width="50" height="50" as="geometry"/>
                </mxCell>
                <mxCell id="qPDr9I2L0zI6H6qqkBgV-7" value="" style="ellipse;whiteSpace=wrap;html=1;fillColor=#dae8fc;strokeColor=#6c8ebf;sketch=1;curveFitting=1;jiggle=2;fillStyle=solid;" parent="1" vertex="1">
                    <mxGeometry x="375" y="470" width="50" height="50" as="geometry"/>
                </mxCell>
                <mxCell id="qPDr9I2L0zI6H6qqkBgV-8" value="" style="ellipse;whiteSpace=wrap;html=1;fillColor=#dae8fc;strokeColor=#6c8ebf;sketch=1;curveFitting=1;jiggle=2;" parent="1" vertex="1">
                    <mxGeometry x="520" y="420" width="50" height="50" as="geometry"/>
                </mxCell>
                <mxCell id="qPDr9I2L0zI6H6qqkBgV-9" value="" style="ellipse;whiteSpace=wrap;html=1;fillColor=#dae8fc;strokeColor=#6c8ebf;sketch=1;curveFitting=1;jiggle=2;fillStyle=solid;" parent="1" vertex="1">
                    <mxGeometry x="450" y="470" width="50" height="50" as="geometry"/>
                </mxCell>
                <mxCell id="qPDr9I2L0zI6H6qqkBgV-11" value="" style="ellipse;whiteSpace=wrap;html=1;fillColor=#f8cecc;strokeColor=#b85450;sketch=1;curveFitting=1;jiggle=2;fillStyle=solid;" parent="1" vertex="1">
                    <mxGeometry x="310" y="470" width="50" height="50" as="geometry"/>
                </mxCell>
                <mxCell id="qPDr9I2L0zI6H6qqkBgV-13" value="" style="ellipse;whiteSpace=wrap;html=1;fillColor=#f8cecc;strokeColor=#b85450;sketch=1;curveFitting=1;jiggle=2;fillStyle=solid;" parent="1" vertex="1">
                    <mxGeometry x="240" y="470" width="50" height="50" as="geometry"/>
                </mxCell>
                <mxCell id="qPDr9I2L0zI6H6qqkBgV-14" value="" style="ellipse;whiteSpace=wrap;html=1;fillColor=#dae8fc;strokeColor=#6c8ebf;sketch=1;curveFitting=1;jiggle=2;fillStyle=solid;" parent="1" vertex="1">
                    <mxGeometry x="150" y="470" width="50" height="50" as="geometry"/>
                </mxCell>
                <mxCell id="qPDr9I2L0zI6H6qqkBgV-28" value="" style="ellipse;whiteSpace=wrap;html=1;fillColor=#dae8fc;strokeColor=#6c8ebf;sketch=1;curveFitting=1;jiggle=2;fillStyle=solid;" parent="1" vertex="1">
                    <mxGeometry x="280" y="170" width="50" height="50" as="geometry"/>
                </mxCell>
                <mxCell id="qPDr9I2L0zI6H6qqkBgV-29" value="" style="ellipse;whiteSpace=wrap;html=1;fillColor=#dae8fc;strokeColor=#6c8ebf;sketch=1;curveFitting=1;jiggle=2;fillStyle=solid;" parent="1" vertex="1">
                    <mxGeometry x="340" y="250" width="50" height="50" as="geometry"/>
                </mxCell>
                <mxCell id="qPDr9I2L0zI6H6qqkBgV-30" value="" style="ellipse;whiteSpace=wrap;html=1;fillColor=#dae8fc;strokeColor=#6c8ebf;sketch=1;curveFitting=1;jiggle=2;fillStyle=solid;" parent="1" vertex="1">
                    <mxGeometry x="230" y="250" width="50" height="50" as="geometry"/>
                </mxCell>
                <mxCell id="qPDr9I2L0zI6H6qqkBgV-31" value="" style="ellipse;whiteSpace=wrap;html=1;fillColor=#dae8fc;strokeColor=#6c8ebf;sketch=1;curveFitting=1;jiggle=2;fillStyle=solid;" parent="1" vertex="1">
                    <mxGeometry x="190" y="350" width="50" height="50" as="geometry"/>
                </mxCell>
                <mxCell id="qPDr9I2L0zI6H6qqkBgV-32" value="" style="ellipse;whiteSpace=wrap;html=1;fillColor=#dae8fc;strokeColor=#6c8ebf;sketch=1;curveFitting=1;jiggle=2;fillStyle=solid;" parent="1" vertex="1">
                    <mxGeometry x="400" y="350" width="50" height="50" as="geometry"/>
                </mxCell>
                <mxCell id="qPDr9I2L0zI6H6qqkBgV-33" value="" style="ellipse;whiteSpace=wrap;html=1;fillColor=#dae8fc;strokeColor=#6c8ebf;sketch=1;curveFitting=1;jiggle=2;fillStyle=solid;" parent="1" vertex="1">
                    <mxGeometry x="520" y="420" width="50" height="50" as="geometry"/>
                </mxCell>
            </root>
        </mxGraphModel>
    </diagram>
    <diagram id="7VhIJiXC0-u77FKD2NYT" name="Page-8">
        <mxGraphModel dx="863" dy="549" grid="1" gridSize="10" guides="1" tooltips="1" connect="1" arrows="1" fold="1" page="1" pageScale="1" pageWidth="850" pageHeight="1100" math="0" shadow="0">
            <root>
                <mxCell id="0"/>
                <mxCell id="1" parent="0"/>
                <mxCell id="ELmtXlZvCRXX_AuBDvcg-33" value="It's costly" style="rounded=1;whiteSpace=wrap;html=1;sketch=1;curveFitting=1;jiggle=2;fillColor=#f5f5f5;strokeColor=#666666;fillStyle=solid;spacing=2;fontColor=#333333;verticalAlign=top;" parent="1" vertex="1">
                    <mxGeometry x="100" y="130" width="620" height="120" as="geometry"/>
                </mxCell>
                <mxCell id="ELmtXlZvCRXX_AuBDvcg-11" style="edgeStyle=none;sketch=1;html=1;fillColor=#fff2cc;strokeColor=#d6b656;" parent="1" source="ELmtXlZvCRXX_AuBDvcg-2" target="ELmtXlZvCRXX_AuBDvcg-4" edge="1">
                    <mxGeometry relative="1" as="geometry"/>
                </mxCell>
                <mxCell id="ELmtXlZvCRXX_AuBDvcg-2" value="HTML" style="rounded=1;whiteSpace=wrap;html=1;sketch=1;curveFitting=1;jiggle=2;fillColor=#dae8fc;strokeColor=#6c8ebf;fillStyle=solid;" parent="1" vertex="1">
                    <mxGeometry x="120" y="160" width="80" height="20" as="geometry"/>
                </mxCell>
                <mxCell id="ELmtXlZvCRXX_AuBDvcg-22" style="edgeStyle=orthogonalEdgeStyle;sketch=1;html=1;shadow=0;fontSize=8;fillColor=#fff2cc;strokeColor=#d6b656;" parent="1" source="ELmtXlZvCRXX_AuBDvcg-4" target="ELmtXlZvCRXX_AuBDvcg-12" edge="1">
                    <mxGeometry relative="1" as="geometry"/>
                </mxCell>
                <mxCell id="ELmtXlZvCRXX_AuBDvcg-4" value="DOM" style="rounded=1;whiteSpace=wrap;html=1;sketch=1;curveFitting=1;jiggle=2;fillColor=#d5e8d4;strokeColor=#82b366;fillStyle=solid;" parent="1" vertex="1">
                    <mxGeometry x="240" y="160" width="80" height="20" as="geometry"/>
                </mxCell>
                <mxCell id="ELmtXlZvCRXX_AuBDvcg-10" style="edgeStyle=none;html=1;sketch=1;curveFitting=1;jiggle=2;fillColor=#fff2cc;strokeColor=#d6b656;" parent="1" source="ELmtXlZvCRXX_AuBDvcg-7" target="ELmtXlZvCRXX_AuBDvcg-9" edge="1">
                    <mxGeometry relative="1" as="geometry"/>
                </mxCell>
                <mxCell id="ELmtXlZvCRXX_AuBDvcg-7" value="CSS" style="rounded=1;whiteSpace=wrap;html=1;sketch=1;curveFitting=1;jiggle=2;fillColor=#dae8fc;strokeColor=#6c8ebf;fillStyle=solid;" parent="1" vertex="1">
                    <mxGeometry x="120" y="190" width="80" height="20" as="geometry"/>
                </mxCell>
                <mxCell id="ELmtXlZvCRXX_AuBDvcg-14" style="edgeStyle=orthogonalEdgeStyle;sketch=1;html=1;fillColor=#fff2cc;strokeColor=#d6b656;" parent="1" target="ELmtXlZvCRXX_AuBDvcg-9" edge="1">
                    <mxGeometry relative="1" as="geometry">
                        <mxPoint x="160" y="232" as="sourcePoint"/>
                        <mxPoint x="300" y="208" as="targetPoint"/>
                        <Array as="points">
                            <mxPoint x="290" y="232"/>
                        </Array>
                    </mxGeometry>
                </mxCell>
                <mxCell id="ELmtXlZvCRXX_AuBDvcg-21" style="edgeStyle=orthogonalEdgeStyle;sketch=1;html=1;fontSize=8;fillColor=#fff2cc;strokeColor=#d6b656;shadow=0;" parent="1" target="ELmtXlZvCRXX_AuBDvcg-4" edge="1">
                    <mxGeometry relative="1" as="geometry">
                        <mxPoint x="160" y="227" as="sourcePoint"/>
                        <mxPoint x="290" y="177" as="targetPoint"/>
                        <Array as="points">
                            <mxPoint x="270" y="227"/>
                        </Array>
                    </mxGeometry>
                </mxCell>
                <mxCell id="ELmtXlZvCRXX_AuBDvcg-8" value="JS" style="rounded=1;whiteSpace=wrap;html=1;sketch=1;curveFitting=1;jiggle=2;fillColor=#dae8fc;strokeColor=#6c8ebf;fillStyle=solid;" parent="1" vertex="1">
                    <mxGeometry x="120" y="220" width="80" height="20" as="geometry"/>
                </mxCell>
                <mxCell id="ELmtXlZvCRXX_AuBDvcg-23" style="edgeStyle=orthogonalEdgeStyle;sketch=1;html=1;shadow=0;fontSize=8;fillColor=#fff2cc;strokeColor=#d6b656;" parent="1" source="ELmtXlZvCRXX_AuBDvcg-9" target="ELmtXlZvCRXX_AuBDvcg-12" edge="1">
                    <mxGeometry relative="1" as="geometry"/>
                </mxCell>
                <mxCell id="ELmtXlZvCRXX_AuBDvcg-9" value="CSSOM" style="rounded=1;whiteSpace=wrap;html=1;sketch=1;curveFitting=1;jiggle=2;fillColor=#d5e8d4;strokeColor=#82b366;fillStyle=solid;" parent="1" vertex="1">
                    <mxGeometry x="240" y="190" width="80" height="20" as="geometry"/>
                </mxCell>
                <mxCell id="ELmtXlZvCRXX_AuBDvcg-25" style="edgeStyle=orthogonalEdgeStyle;sketch=1;html=1;shadow=0;fontSize=7;fillColor=#fff2cc;strokeColor=#d6b656;" parent="1" source="ELmtXlZvCRXX_AuBDvcg-12" target="ELmtXlZvCRXX_AuBDvcg-24" edge="1">
                    <mxGeometry relative="1" as="geometry"/>
                </mxCell>
                <mxCell id="ELmtXlZvCRXX_AuBDvcg-29" style="edgeStyle=orthogonalEdgeStyle;sketch=1;html=1;shadow=0;fontSize=7;fillColor=#fff2cc;strokeColor=#d6b656;" parent="1" source="ELmtXlZvCRXX_AuBDvcg-12" target="ELmtXlZvCRXX_AuBDvcg-28" edge="1">
                    <mxGeometry relative="1" as="geometry">
                        <Array as="points">
                            <mxPoint x="410" y="230"/>
                            <mxPoint x="530" y="230"/>
                        </Array>
                    </mxGeometry>
                </mxCell>
                <mxCell id="ELmtXlZvCRXX_AuBDvcg-12" value="Render Tree&lt;br&gt;&lt;font style=&quot;font-size: 7px;&quot;&gt;(DOM with computed styles)&lt;/font&gt;" style="rounded=1;whiteSpace=wrap;html=1;sketch=1;curveFitting=1;jiggle=2;fillColor=#d5e8d4;strokeColor=#82b366;fillStyle=solid;spacing=2;" parent="1" vertex="1">
                    <mxGeometry x="360" y="160" width="100" height="50" as="geometry"/>
                </mxCell>
                <mxCell id="ELmtXlZvCRXX_AuBDvcg-20" value="update" style="rounded=0;whiteSpace=wrap;html=1;sketch=1;curveFitting=1;jiggle=2;fillColor=#fff2cc;strokeColor=#d6b656;fillStyle=solid;fontSize=8;" parent="1" vertex="1">
                    <mxGeometry x="220" y="220" width="40" height="20" as="geometry"/>
                </mxCell>
                <mxCell id="ELmtXlZvCRXX_AuBDvcg-27" style="edgeStyle=orthogonalEdgeStyle;sketch=1;html=1;shadow=0;fontSize=7;fillColor=#fff2cc;strokeColor=#d6b656;" parent="1" source="ELmtXlZvCRXX_AuBDvcg-24" target="ELmtXlZvCRXX_AuBDvcg-26" edge="1">
                    <mxGeometry relative="1" as="geometry"/>
                </mxCell>
                <mxCell id="ELmtXlZvCRXX_AuBDvcg-30" style="edgeStyle=orthogonalEdgeStyle;sketch=1;html=1;shadow=0;fontSize=7;fillColor=#fff2cc;strokeColor=#d6b656;" parent="1" source="ELmtXlZvCRXX_AuBDvcg-24" target="ELmtXlZvCRXX_AuBDvcg-28" edge="1">
                    <mxGeometry relative="1" as="geometry"/>
                </mxCell>
                <mxCell id="ELmtXlZvCRXX_AuBDvcg-24" value="Layout Tree" style="rounded=1;whiteSpace=wrap;html=1;sketch=1;curveFitting=1;jiggle=2;fillColor=#d5e8d4;strokeColor=#82b366;fillStyle=solid;spacing=2;" parent="1" vertex="1">
                    <mxGeometry x="480" y="160" width="100" height="50" as="geometry"/>
                </mxCell>
                <mxCell id="ELmtXlZvCRXX_AuBDvcg-31" style="edgeStyle=orthogonalEdgeStyle;sketch=1;html=1;shadow=0;fontSize=7;fillColor=#fff2cc;strokeColor=#d6b656;" parent="1" source="ELmtXlZvCRXX_AuBDvcg-26" target="ELmtXlZvCRXX_AuBDvcg-28" edge="1">
                    <mxGeometry relative="1" as="geometry">
                        <Array as="points">
                            <mxPoint x="650" y="230"/>
                            <mxPoint x="530" y="230"/>
                        </Array>
                    </mxGeometry>
                </mxCell>
                <mxCell id="ELmtXlZvCRXX_AuBDvcg-26" value="Paint Records" style="rounded=1;whiteSpace=wrap;html=1;sketch=1;curveFitting=1;jiggle=2;fillColor=#d5e8d4;strokeColor=#82b366;fillStyle=solid;spacing=2;" parent="1" vertex="1">
                    <mxGeometry x="600" y="160" width="100" height="50" as="geometry"/>
                </mxCell>
                <mxCell id="ELmtXlZvCRXX_AuBDvcg-28" value="GPU" style="rounded=1;whiteSpace=wrap;html=1;sketch=1;curveFitting=1;jiggle=2;fillColor=#f8cecc;strokeColor=#b85450;fillStyle=solid;spacing=2;" parent="1" vertex="1">
                    <mxGeometry x="480" y="300" width="100" height="50" as="geometry"/>
                </mxCell>
                <mxCell id="ELmtXlZvCRXX_AuBDvcg-32" value="Rastering" style="rounded=0;whiteSpace=wrap;html=1;sketch=1;curveFitting=1;jiggle=2;fillColor=#fff2cc;strokeColor=#d6b656;fillStyle=solid;fontSize=8;" parent="1" vertex="1">
                    <mxGeometry x="500" y="260" width="60" height="20" as="geometry"/>
                </mxCell>
            </root>
        </mxGraphModel>
    </diagram>
    <diagram id="SKwgkCwLB0GNgq-TnL3F" name="Page-10">
        <mxGraphModel dx="690" dy="207" grid="1" gridSize="10" guides="1" tooltips="1" connect="1" arrows="1" fold="1" page="1" pageScale="1" pageWidth="850" pageHeight="1100" math="0" shadow="0">
            <root>
                <mxCell id="0"/>
                <mxCell id="1" parent="0"/>
                <mxCell id="5IteGcLDdsJYlT6dHrD_-1" value="Web Application" style="rounded=1;whiteSpace=wrap;html=1;sketch=1;curveFitting=1;jiggle=2;fillColor=#dae8fc;strokeColor=#6c8ebf;fillStyle=solid;verticalAlign=top;" vertex="1" parent="1">
                    <mxGeometry x="30" y="70" width="170" height="170" as="geometry"/>
                </mxCell>
                <mxCell id="5IteGcLDdsJYlT6dHrD_-2" style="edgeStyle=orthogonalEdgeStyle;curved=1;sketch=1;html=1;strokeWidth=1;endArrow=classic;endFill=1;fillColor=#e1d5e7;strokeColor=#9673a6;" edge="1" parent="1" source="5IteGcLDdsJYlT6dHrD_-3" target="5IteGcLDdsJYlT6dHrD_-10">
                    <mxGeometry relative="1" as="geometry"/>
                </mxCell>
                <mxCell id="5IteGcLDdsJYlT6dHrD_-3" value="Server" style="rounded=1;whiteSpace=wrap;html=1;sketch=1;curveFitting=1;jiggle=2;fillColor=#d5e8d4;strokeColor=#82b366;fillStyle=solid;verticalAlign=top;" vertex="1" parent="1">
                    <mxGeometry x="360" y="130" width="150" height="110" as="geometry"/>
                </mxCell>
                <mxCell id="5IteGcLDdsJYlT6dHrD_-4" value="Contoller" style="rounded=1;whiteSpace=wrap;html=1;sketch=1;curveFitting=1;jiggle=2;fillColor=#f5f5f5;strokeColor=#666666;fillStyle=solid;fontColor=#333333;" vertex="1" parent="1">
                    <mxGeometry x="380" y="155" width="50" height="70" as="geometry"/>
                </mxCell>
                <mxCell id="5IteGcLDdsJYlT6dHrD_-5" style="edgeStyle=orthogonalEdgeStyle;html=1;sketch=1;curveFitting=1;jiggle=2;fillColor=#fff2cc;strokeColor=#d6b656;" edge="1" parent="1" source="5IteGcLDdsJYlT6dHrD_-1" target="5IteGcLDdsJYlT6dHrD_-3">
                    <mxGeometry relative="1" as="geometry">
                        <Array as="points">
                            <mxPoint x="320" y="170"/>
                            <mxPoint x="320" y="170"/>
                        </Array>
                    </mxGeometry>
                </mxCell>
                <mxCell id="5IteGcLDdsJYlT6dHrD_-6" style="edgeStyle=orthogonalEdgeStyle;html=1;sketch=1;curveFitting=1;jiggle=2;fillColor=#fff2cc;strokeColor=#d6b656;" edge="1" parent="1" source="5IteGcLDdsJYlT6dHrD_-3" target="5IteGcLDdsJYlT6dHrD_-1">
                    <mxGeometry relative="1" as="geometry">
                        <Array as="points">
                            <mxPoint x="320" y="210"/>
                            <mxPoint x="320" y="210"/>
                        </Array>
                    </mxGeometry>
                </mxCell>
                <mxCell id="5IteGcLDdsJYlT6dHrD_-7" value="OK!&amp;nbsp;" style="rounded=0;whiteSpace=wrap;html=1;sketch=1;curveFitting=1;jiggle=2;fillColor=#fff2cc;strokeColor=#d6b656;fillStyle=solid;" vertex="1" parent="1">
                    <mxGeometry x="220" y="200" width="120" height="20" as="geometry"/>
                </mxCell>
                <mxCell id="5IteGcLDdsJYlT6dHrD_-8" value="Give me data" style="rounded=0;whiteSpace=wrap;html=1;sketch=1;curveFitting=1;jiggle=2;fillColor=#fff2cc;strokeColor=#d6b656;fillStyle=solid;" vertex="1" parent="1">
                    <mxGeometry x="220" y="160" width="120" height="20" as="geometry"/>
                </mxCell>
                <mxCell id="5IteGcLDdsJYlT6dHrD_-9" value="Model" style="rounded=1;whiteSpace=wrap;html=1;sketch=1;curveFitting=1;jiggle=2;fillColor=#f5f5f5;strokeColor=#666666;fillStyle=solid;fontColor=#333333;" vertex="1" parent="1">
                    <mxGeometry x="440" y="155" width="50" height="70" as="geometry"/>
                </mxCell>
                <mxCell id="5IteGcLDdsJYlT6dHrD_-10" value="DB" style="shape=datastore;whiteSpace=wrap;html=1;rounded=1;sketch=1;fillStyle=solid;strokeColor=#82b366;fillColor=#d5e8d4;" vertex="1" parent="1">
                    <mxGeometry x="540" y="150" width="60" height="70" as="geometry"/>
                </mxCell>
                <mxCell id="5IteGcLDdsJYlT6dHrD_-11" style="edgeStyle=orthogonalEdgeStyle;sketch=1;html=1;fillColor=#e1d5e7;strokeColor=#9673a6;" edge="1" parent="1" source="5IteGcLDdsJYlT6dHrD_-16" target="5IteGcLDdsJYlT6dHrD_-14">
                    <mxGeometry relative="1" as="geometry">
                        <Array as="points">
                            <mxPoint x="120" y="140"/>
                            <mxPoint x="110" y="140"/>
                            <mxPoint x="110" y="193"/>
                        </Array>
                    </mxGeometry>
                </mxCell>
                <mxCell id="5IteGcLDdsJYlT6dHrD_-12" value="Model" style="rounded=1;whiteSpace=wrap;html=1;sketch=1;curveFitting=1;jiggle=2;fillColor=#f5f5f5;strokeColor=#666666;fillStyle=solid;fontColor=#333333;" vertex="1" parent="1">
                    <mxGeometry x="140" y="160" width="50" height="65" as="geometry"/>
                </mxCell>
                <mxCell id="5IteGcLDdsJYlT6dHrD_-13" style="edgeStyle=orthogonalEdgeStyle;sketch=1;html=1;fillColor=#e1d5e7;strokeColor=#9673a6;" edge="1" parent="1" source="5IteGcLDdsJYlT6dHrD_-14" target="5IteGcLDdsJYlT6dHrD_-16">
                    <mxGeometry relative="1" as="geometry">
                        <Array as="points">
                            <mxPoint x="60" y="130"/>
                        </Array>
                    </mxGeometry>
                </mxCell>
                <mxCell id="5IteGcLDdsJYlT6dHrD_-14" value="View" style="rounded=1;whiteSpace=wrap;html=1;sketch=1;curveFitting=1;jiggle=2;fillColor=#f5f5f5;strokeColor=#666666;fillStyle=solid;fontColor=#333333;" vertex="1" parent="1">
                    <mxGeometry x="40" y="160" width="50" height="65" as="geometry"/>
                </mxCell>
                <mxCell id="5IteGcLDdsJYlT6dHrD_-15" style="edgeStyle=orthogonalEdgeStyle;sketch=1;html=1;fillColor=#e1d5e7;strokeColor=#9673a6;" edge="1" parent="1" source="5IteGcLDdsJYlT6dHrD_-16" target="5IteGcLDdsJYlT6dHrD_-12">
                    <mxGeometry relative="1" as="geometry">
                        <Array as="points">
                            <mxPoint x="165" y="130"/>
                        </Array>
                    </mxGeometry>
                </mxCell>
                <mxCell id="5IteGcLDdsJYlT6dHrD_-16" value="State Store" style="rounded=1;whiteSpace=wrap;html=1;sketch=1;curveFitting=1;jiggle=2;fillColor=#f5f5f5;strokeColor=#666666;fillStyle=solid;fontColor=#333333;" vertex="1" parent="1">
                    <mxGeometry x="80" y="110" width="70" height="30" as="geometry"/>
                </mxCell>
                <mxCell id="5IteGcLDdsJYlT6dHrD_-17" value="manipulate" style="rounded=0;whiteSpace=wrap;html=1;sketch=1;curveFitting=1;jiggle=2;fillColor=#e1d5e7;strokeColor=#9673a6;fillStyle=solid;" vertex="1" parent="1">
                    <mxGeometry x="160" y="120" width="70" height="20" as="geometry"/>
                </mxCell>
                <mxCell id="5IteGcLDdsJYlT6dHrD_-18" value="sync" style="rounded=0;whiteSpace=wrap;html=1;sketch=1;curveFitting=1;jiggle=2;fillColor=#e1d5e7;strokeColor=#9673a6;fillStyle=solid;" vertex="1" parent="1">
                    <mxGeometry x="95" y="160" width="40" height="20" as="geometry"/>
                </mxCell>
                <mxCell id="5IteGcLDdsJYlT6dHrD_-19" value="action" style="rounded=0;whiteSpace=wrap;html=1;sketch=1;curveFitting=1;jiggle=2;fillColor=#e1d5e7;strokeColor=#9673a6;fillStyle=solid;" vertex="1" parent="1">
                    <mxGeometry x="20" y="120" width="40" height="20" as="geometry"/>
                </mxCell>
            </root>
        </mxGraphModel>
    </diagram>
    <diagram id="wiaaAAh_IIUP2y_md3KP" name="Page-11">
        <mxGraphModel dx="595" dy="248" grid="1" gridSize="10" guides="1" tooltips="1" connect="1" arrows="1" fold="1" page="1" pageScale="1" pageWidth="850" pageHeight="1100" math="0" shadow="0">
            <root>
                <mxCell id="0"/>
                <mxCell id="1" parent="0"/>
                <mxCell id="frW6X_6FIIWhPB4R40Bl-1" style="edgeStyle=orthogonalEdgeStyle;html=1;sketch=1;curveFitting=1;jiggle=2;fillColor=#fff2cc;strokeColor=#d6b656;" edge="1" parent="1" source="frW6X_6FIIWhPB4R40Bl-2" target="frW6X_6FIIWhPB4R40Bl-4">
                    <mxGeometry relative="1" as="geometry">
                        <Array as="points">
                            <mxPoint x="320" y="170"/>
                            <mxPoint x="320" y="170"/>
                        </Array>
                    </mxGeometry>
                </mxCell>
                <mxCell id="frW6X_6FIIWhPB4R40Bl-2" value="Browser" style="rounded=1;whiteSpace=wrap;html=1;sketch=1;curveFitting=1;jiggle=2;fillColor=#dae8fc;strokeColor=#6c8ebf;fillStyle=solid;" vertex="1" parent="1">
                    <mxGeometry x="80" y="160" width="120" height="60" as="geometry"/>
                </mxCell>
                <mxCell id="frW6X_6FIIWhPB4R40Bl-3" style="edgeStyle=orthogonalEdgeStyle;html=1;sketch=1;curveFitting=1;jiggle=2;fillColor=#fff2cc;strokeColor=#d6b656;" edge="1" parent="1" source="frW6X_6FIIWhPB4R40Bl-4" target="frW6X_6FIIWhPB4R40Bl-2">
                    <mxGeometry relative="1" as="geometry">
                        <Array as="points">
                            <mxPoint x="320" y="210"/>
                            <mxPoint x="320" y="210"/>
                        </Array>
                    </mxGeometry>
                </mxCell>
                <mxCell id="frW6X_6FIIWhPB4R40Bl-4" value="Server" style="rounded=1;whiteSpace=wrap;html=1;sketch=1;curveFitting=1;jiggle=2;fillColor=#d5e8d4;strokeColor=#82b366;fillStyle=solid;" vertex="1" parent="1">
                    <mxGeometry x="360" y="160" width="120" height="60" as="geometry"/>
                </mxCell>
                <mxCell id="frW6X_6FIIWhPB4R40Bl-5" value="Give me a doc" style="rounded=0;whiteSpace=wrap;html=1;sketch=1;curveFitting=1;jiggle=2;fillColor=#fff2cc;strokeColor=#d6b656;fillStyle=solid;" vertex="1" parent="1">
                    <mxGeometry x="220" y="160" width="120" height="20" as="geometry"/>
                </mxCell>
                <mxCell id="frW6X_6FIIWhPB4R40Bl-6" value="OK!" style="rounded=0;whiteSpace=wrap;html=1;sketch=1;curveFitting=1;jiggle=2;fillColor=#fff2cc;strokeColor=#d6b656;fillStyle=solid;" vertex="1" parent="1">
                    <mxGeometry x="220" y="200" width="120" height="20" as="geometry"/>
                </mxCell>
                <mxCell id="frW6X_6FIIWhPB4R40Bl-9" value="" style="edgeStyle=none;html=1;" edge="1" parent="1" target="frW6X_6FIIWhPB4R40Bl-6">
                    <mxGeometry relative="1" as="geometry">
                        <mxPoint x="317.5" y="220.00000000000006" as="sourcePoint"/>
                    </mxGeometry>
                </mxCell>
                <mxCell id="frW6X_6FIIWhPB4R40Bl-10" value="" style="shape=image;verticalLabelPosition=bottom;labelBackgroundColor=default;verticalAlign=top;aspect=fixed;imageAspect=0;image=data:image/png,iVBORw0KGgoAAAANSUhEUgAAAT0AAAFzCAYAAABMyd6BAAAAAXNSR0IArs4c6QAAAARnQU1BAACxjwv8YQUAAAAJcEhZcwAAEnQAABJ0Ad5mH3gAAP+lSURBVHhe7P1nl2RZlp6JbRPXhOvQkRkitajMSi1KdrUE0D1oACRBrPmAn9Jf8C/ItfhlQK4FcgbkcJrd6J5GVbUolSVS64gMrcO1aXGvmfF99rnX3SMqqyqq0yvDw+Ju8+NXH7nPu/c+stDpdCaWU0455XSfUDE95pRTTjndF5SDXk455XRfUQ56OeWU031FOejllFNO9xXloJdTTjndV5SDXk455XRfUQ56OeWU031FOejllFNO9xXloJdTTjndV5SDXk455XRfUQ56OeWU031FOejllFNO9xXloJdTTjndV5SDXk455XRfUQ56OeWU031FOejllFNO9xXloJdTTjndV5SDXk455XRfUQ56OeWU031FOejllFNO9xXloJdTTjndV5SDXk455XRfUQ56OeWU031FOejllFNO9xXloJdTTjndV5SDXk455XRfUQ56OeWU031FOejllFNO9xXloJdTTjndV5SDXk455XRfUQ56OeWU031FOejllFNO9xXloJdTTjndV5SDXk455XRfUQ56OeWU031FOejllFNO9xXloJdTTjndV5SDXk455XRfUQ56OeWU031FOejllFNO9xXloJdTTjndV5SDXk455XRfUQ56OeWU031FOejllFNO9xXloJdTTjndV5SDXk455XRfUQ56OeWU031FOejllFNO9xXloJdTTjndV5SDXk455XRfUaHT6UzS85zuSSrYRI4jZ4E4jsNpdq+od/Q31u3JRPcmupArSO7x3x8WJjae6AVOC7q75dJvxhMdx/5+Ef9Scu/CmR+zc75zr3Vj++0d5+HF2yj4kVHmV4jljjDT4y0+67RQCHI8pBHHBff10I8clE6lNaf7k3LQu8cJwAMSqPEZ6BUEeDgqfYCEUNup7FsAKXAA8IKyr2d6ZTwZ6RwXgC/959/6IXU7UC691p9O0lvpkf+66S+IsofbJ/5o++q26x3+BVKcFQjhhKudx+03i8WSrtKf4hmekF69KedHgbejf073JeWgd48ThTfJQCktyaKOQBzXftS9cVDxrFAsWrFcEjgI7KSt8clI95PxyCZyFe7r3VHqgAb857tSSd8CKgKN0Wjk/mbOgTBEIyVdTAKoEgYOmihSfs7jcCd8mqXB/9/uFaAcXPZVQf547NFMucYf/fAnC2P7qO8Uf9cC5YojiQk58ien+49y0LvHqQCQcZTzCn4rXIjCNfWeSi7Dzk1YfoACZp4f+XJcskqhKtAs6yoABt/jp5+nwFQsFRwA/Q3/FkCVDzjO/QuzkkXyC82LO8E3P9fD7JgRceMyO0KcZ0dCK+kY4kU4t5/LgZ7hJD1yKt8UJcG2LlKfS7qOAkzmdP9RDnr3OBVVwQEDwG9M/fa6HQzcneBSytq6RomNpaV525zuo/EVBWBocmhDcZy4RlRCs0Mr4ofGJu1uPBJ6oP3JBdOR30hhbf8cYbiv51GxLGVSgdxOGccpYjxFO3OAA6yg7Fwu+3pC/ImjbvhbIfKeVs5JL8dyOQrPPH58yKmfBfL73CSeOd2PlIPePU6uh6W1O1NkQoEG0MsIUHQ88vcD2BQFJCns+DeTgqCjzPnIPcGMdU8cx9J3eLtUslIZbTBco2v5j4g4wISjh+/3CCHcJmwnP1dcAFaZzOktfzF7xcGLa53K2HZ4xTt3ipOnY+s8fEKcMX2zF93Elb1P2vxa7xSkfRbGZc78m5zuL8pB7x4nCs/BRhSqcABBzrNr/69D9lZoA6QHFrDRtR46vjkI6RnH9INtfwQw4US30fQEInpngtY3HllBWmBBR0u1Qb5PRrGDVRo9968IonGN/5A8LZUEoAK/CT3CmM20NabnQZvTewCXK3rEI3TCFKVJ6oHAWyCmI08dqEMAcgCd9M8dpndII22aOejdr5SD3j1OAIKqttdf15xUml79s1LViVd/PXezl6P/BBNbKKY3BBY07pfkWUlHwwRO4uCGQxvHA5vEQ92PLRn0Le539T5gJ3M4juUSKw51nuienHeGJPpmkqRhbDvixqn/UxyK0hod3DBfAT3ATtqkg14JANSxVjOrVEz2q96vWFHnhUrVnclNdG+iZ5X6rL/vICqH/55u0pgGSqqLWxmU0/1GOejd40ThZeYg9ZjTzHzlWQA7jtJz6NblrrSeIk6gZQKsyTA2kysPBlaRK8mN+wK2bseSdsvdqCPX61ph2LdRv2dJCnrFJAU62gJj+ce5a3uYyAI8HwajQxq0n4Q//7dl3qLdAcIAnFzWxsj9MQA2M2OTWt0sEugJ8IrVmhXrNSvIjat1uaolAr+5Q4dtVOGeQLI2YwV9U9C5A2Q5kmle9rwhD3K6PykHvd+CsoxyJcFrzjY58KQv3PboSyJClfM4hBhw6vFShEeYmgKgaJxYWdobwDZpty3ZbNhgfdOGm00rNDcsXr5mZQCu23M3EdAV9W5ZIBbJq8i9lqYov7zjROfBCZgUrmOax0Fao1vP6Q2PDG9k7/hLAaAFdgGmdzr9BwSd5P9Y4GzSKHXPWyIFhpip+mdjAdlYwBlL0yvNLdi4PmM2v2ClpX1W3r/fXWVpycpz8wJJAeSs3pmRUwQdXF0rTEH3c+iWu0T781/7fPKkK92/wu8vQiEHs3zygPxeevVbRfN+ohz07oA8g8olS1S1x/2hAMCsKm0jUcXn3qRcVAVS5ZOpV9LP260wMn2cWiCUrLK0i5LMyAlj3VTZRgKSsUDINS99X5Q/aD6Mj0uSsSw5mXP4g7mpP8xXLD5VT92nv1LvqeIn8o9KP1KwYaYBbVcjmamJVeRXVcfR2qrFqytW3Fi38fINgdtN3VuxSWPDJtLoCjJZJ2hpVBWC2wFUuM+vQLywk8Jb2V2/ctDzy99Anx/CNikOO/1JX3ew4kTXHkvlK9nPPfLYO12kHZZVXhVpgyW50eETVjzxmNn+g1Y5fNiKAsV4ft560ghj5WNCe6I8oKwinUQ6L0t7pf3S2z7db7RTXMhrL0P9SkUBL2a14pIo32Np0pRzOdIzlS8U0pEmQMeQu0A5aaRcBfK6Nc7SJvI3EBA414rN+sOhtNeS0iU+0fVIWvdIceH5SJp3JN4oOS/mtJNy0LtjEsOKgRgeUsYkE0PC1CPMpJQJx2JuhoAAHM66MC33uRKnY1I6UweOFqjJ1NL7iYAv+ENTFuoRfqFNqYCcaYMDiCisLUDi3K8VJ8WhqtfK0uis3zFrbjrI9VeWHdg4jjfXrdjtmnU6AjpMVWl8qihFhZWNgUtkko7p6byHKKvXIUvSC09NINcOlc/kN+2Hg6hmg4pM5dl5Ky8uyu2zwv4DVj5w2CoHD7krLyxagqCTFikPAgCR/w5KFDkAh/BCy5Xwo6kARFTWuS6q54RL+RI2WrZP8VOsvJNoK57bR4WgZ5yFmGfxh0gj1+GY8peEYVn8UikJmgXKYwEdHTklxduBz/u7762y/DIoB707JBjMJTkMJWYG8Hx4hH4Ocykg8Wwb7HRHXOxPHEioEbqKxbKqI9VazSvhUBUmEfjIG69IJX3PWDivBvp0pO9xhCZuDhXKQy0Gc3U0FIi1LJEWF0ujG69Ki5Mml+iYSJuzVlNA2LVSPJBnigOOKLkf9HwCtGghxFigqdD2GmXAtpOCxhTIn3OdAkow+SDlm9/zuwGIeEQZCYwm9BzTCVKfs9L8kpUOHLTo0GGzffut+sCDNpaJbLNzMpfnrIhprPfJHcoHEEOIyRsFozyliBWRrXD0SwMjFv4LFI7+P4umCAG3pc3pKdDmX+kdb5PV0bV5gpKLxCuVYuTaHLw4lqaOlYCfpUjaP9/vzKScnHLQu0OCN5HuE5mh0stsMBwInEouaUvOjTA/jCYG5GVnV6AE6c0ZzJsyMIype+VIZolqDFO6xg6qgh+FgSnMQOCCbFnqESY0zM6A4bIcmpkNBLqDoZXaMk/Xbwjclq19/bp1b+gcM7axaaVexyLFE1DEJxz+ERLgOSkwbEPaiiI1Jg2YxAqcyrbXKOQpcQ+UXt4CfJALCwFNGIMYCNBzLUvv8j49t2X/UI5nys+R3hdS2Lg24yA3khZYPfqgFQ/K/JUrH3nAyocOmUkDjOs1aYFlmcISggqvRNnLnwCohB0c4VOOI8pSmhcaH6GS1ZDzQzgVwSeUveLtiU1Bj3fkMtDzRzR3KDkM/i7Dc4pDJmixGBgqVJZJj0XhyczpFspB7w4JDQxGjgVBQ1wytIoYP8L8EROOpb2VypFrAWQozIYC4DMmUgzBRHIzSQ9wSGXaieBj17fgWhxSW98pUH8fz2izr+k9OiGs0bThyqpM1lWbXLtog/OnrYAJ22xa0u7IbB1apO+rqmSRvqeS0/7oJpb8oIJQOUMMRQoPTRZwoF1xL5JX9s+h2ys1eZqBnnDGiVcybQ8CAEdKc4l2VCXXX9O9AuWhqwJAIg0qFgiaNEDbf8iiw0etKM0PVzh8xIoyhydLSyp/AaXK3gUi5RpCUxxUfAAv4SKkRITjxZses3MnytgTCVD5m+78nTSR/lT+lXVzq61OiRwK5GhXlp2rd6SrS6OvRlXFS34iLXO6hXLQuyMKmlACuE0SiypiLQFIJFAqy410P45H3lieiCnJUMDOpb8zMewL4AFiqgj6hoo5oPOAXlH8Ue3DAkZSA4OYvVnlwISNxNhRt2O2smzJxYvWOnfOuhcu2nj5ms10mhYlg1C3qOwCYq+4uhwKJIeYzqocoaeSmOigf66R6BxtBzONcHknvHHvEcl3Zlb0A6gHAvC4zhzpHJOxyhPXovhK5QDwobmVAUS+k7mIFjgQsCVRzeL5BQHeUaudeMjmTz5k9WPHrXzwiBWWDtqoJtNX/g1UVv1YYlFHNPO6tPmKrIFJolBo90vJ46q4kNcZfsE5PnPE7+qnB/7cr+AplZf4sKyLktIE2I110Qf0BOClStkqeNaPrV6t6jmtjTndTjno3QHBdIkYfyCGQtNarEQ2GfZVT+iVK9lIADNQ5QBs3LxSjgoKHUjgwVCxYF4m30tjhImpZ96OJ8ldphdQZqwqHqAHKFarFR8iMh70bLK2aoPr12xw4YIlF87b+OpVK8iErUizm1C5JOWpZIlrKvJSlayIU7xANyqud7D4ud5RhXG3o7JR1VwrVdw47jVKo3oL/VIslT5e9Pv65yBCOsOlgzx5QK8sTQSUqwsijnqOVu0lJD84VpARytdY4BeP0PD1bqVq5blFqy3ts+riPhscO2GVZ5+z4oPHrH7wgNnMjA3kTwfAUV5T1pQ4HUUAFVyQEVde8LoFrE0KAtliaFMtTfTVOPCLoFj3tnOAO8yh7gy6Vp2flZYX0sFg7LI+H7eHVpXQnCjQcZGU5bSTctC7A4JR0cYSAdBofcPqkqTt9XWB4MQWDoWG736tJi0PzQk2B0BGOhOIAXjFUMHEhfovJhcfFlTpqIBZRc3aawr6jooWyXwuNjdtJHCLL1+y7tmz1rl4wUYrAjtpfFWB4wx1QUDbF3i6fpCCVVa55Z2cwgaI/adwAAG95m+65kdlC4533aX+3IsUUhmIXM8AHvI8kQP0Sso/zx0JBsCCwToBHvwrHXTlZah3pcFhvvpTzzv8QVAVrT0/b+MHH7DKyZO28MgjVhX4FWQOJwtLMjdnxBNFgWZo86O4wtfEx33xO27O6j1Ab1KUIFRMygK8kpzgT0IVC4HYUo6Kk8qf3vi1mzdsfnbWZubmrCBXYmxibU6aH57Ch9upymmbctC7A4qkgZVWrlnn3Glrn79sk5UNW7khM3N+zh5+8UU78PJLNj5yxLrKyUKRsXVi5wz0BHgjl7aYJjR8I73RyFLNUAxPpQB8WCGkOpao7rTM1ldt86P3bXT5ohWuX7eiNL2RQLDkZpO0Qkn3IZ0OAK03WIcq5M4rSFqsVPqtcy63i9tnQ6SVGeJJeHf7nb1C4MLthLacUfY49KhzrR8Z4TfDi5kgCGbltp9ZDmVHfweXCibMVG+zkz+uKW+9pXeQGyqLwuKijY4+aIXjJyw6+ahVHn7c6keO2bg6az0Uer3uwshBKGv5zXwRQCkyocMigFR5FECPMYOJwsDsLU9iiyZDm1y6YjfffMsuvfeBzenb/Widx4/Z/GOPWu2Rh6yvuDA7Ba925lFOgUp/8Rd/8Z/S8ykjWFMMmpW6Di5jYV6kIAwoByPC1DRuDwVUCQJcjl7MMpqdpOlQWtbmz96wzk/fsP7Hn1j301N24/Rnbk7ul2SfE8MVFuedldEAaOODdRnewMR5Wla88hSYAoUEDsYu0pt5BlSjiv5XBn2LGGZy5pT1PnzPWu+/Y+Pzn1lh+YaV2k2LZNJUZAozbGYk/2LSJDPKe3zlV0iTp3abuCEXtLnta39XH3GZ1jw/7Nk6ksZxJ+28tXWeJYD0pXezsvZLHb1DKdWeyJMAY/pQvOJf6DmiAKBDMHANbrLYKuUqcaVy1X25iHIbDqzQ71ncalu8yeyWlkzMrs9FZlhJxLQ5lVkscPRw3Oxl4LPMUUUAbkgIA8YjZFkEHCkzOjEYC4jWxvD4sni0JG2/+dEndv3nv7DRmTNWW75pw41lG67r2Gr4tMKazFuE6ISmGMUTPqMXmeFQxImypxWXtJM+iDbDkmucCs3zir/M+E9vTAFNLejB+4ANJgOF5YCHNIWxBExUgsDYAJ/eFejFEo3jkpiRIR7dptmVy9b6xZu2/sMf2MpPf2aJwK/Y6ti417W+Aph/7HE78NyLNnPyhNmsTBl8hGHEI97GwlxPQFfaG2Gg2U0wi+Azj5MYSgwdFWKbaTescPWiDT9819o//4m13vmFlVevWb3bEDPKfC3p/XIww/Af5ZFGa4Xg6UhTmKYcdytlLLvTQTu/+OWv9g79qvj/ElGB3Sk9qQPc3OnxFsCpvDHj3fEZP70cju5TSrwbcof8dZ7h6N/KN4AQANXTIjNaOl0br2/a+KYsAR3LArgKw0cigV4lCFv8QwsD9AAZAG8IzgGyigPDVoKQ0nt6MYQb4klMSwLTSaNtm5cuWnFz1ebirg1aa9a8ftEal6+ZrbWtlshykLaX1MOwKDRGtFTCZKYGYDqS3wHs8RkrJFgi5NXImQpwDo5weWcaaGpBD+alWca5XoWKwGaqV5lhCrCoJCZtXQwyZjoPvV2zpchmekMrXLpq7Xc+tOWf/MxW33zbOp99Jk2r5e1s3Ti2uFa12omTdvDFl2zp2a9adOiQDQRwA2+8NqvKr0gS1iVk3BcTx5LSYi/qj+6OZJ+OKmWrqzLU0d4kuZNTp6z5ztu28f571jt/zibSGGp6myEnYfyWV0dPmVdkN5tJHkwbWDKnL59gsZhxlipc/4mn6PW1/sCHD8XrDetcv2nlJLE5gVA1El9UK9ZT2fUluQas4EzPq74v0oyi4gy9/iL9A24htNORgIv2vYr4gSErw0bTRptNGzelYXZ7Vu4N5GlivdWGrV29bqPBwIpiSPhsRkK5WqvIOpmIh4c+Pa6smlBhYLY3CQQmgrcIFXjzuHgMuMkdf3jP0xSbt0Fi+oKRFKLKDMCjAZt13zBNE5Unsg5Vv6qCL242ZFqes8Yv3rbNN35mrfc+sMKNawLCrs3q+8Iotk19Pzp80A6++rIdevV1qz32hBXm5q2nUGCosrSxqg8MlXY27CsAmRpVyVekbWr2KlrooFZqbFrx/AUbvve+td9+y+KPPrDxjatWE1AuSEKjHcJysKTLeqQ/1xnv6chp5nK6C4SWJIlKT3kkk5Kxm1X4ScKsNJDAa8jcXFu1UbNhpW7ffJ+R+RkbCYBinff1LoObZ4STjKv0df+8QAWgeK0fAg/QoRd3JC2tWq5aqT6r98tmvb4NBHwMVF/QuzOyJkymdn9z3XrMrSbcJNY3JStLWJsAd0jPvn5l1Y1sLCGchSBN5BDQEfUBKc0T0qhjcPc+TTXoeQ+bCpcCZe4BReaT+XU9UsEnchUx3jzd+2tr1v74I1t5801bfe8d6587a9ZYFxgmVnPtUCRGGOxbssrTT9nh1163+Se/YpMDh+RX2SUx2yLSyWD6ZiStkGEFLMVeiip6rvBAPDGZa3eNDRud+cxab71p7ffftfjiOd1bk/kRJqczbsL78VBR+UyRD2zn8OdSuCwnHvX7Od0dAo8QYmh5/GUdSn4h4VoQHxQkxPqyFIbNTRsMe942WJHGV2PJK/FOJOlbksP0pTEGDd4Hpcsn/gftzy/9DmGyQkxV1gTzuTutpvU7LStKyBYkdEsV3hpZzPRDgS7HcavjS35FTKebmxVAi9PkUSKNLwK0FV9AjyEuhBeG18hWUTx8XcIpoukGPSSnfkgsAIJiHOoISBUEdKxQUeuLUW4uW/vTT2TK/sIaH7xrvauXJJWbVtUXwh5vAMZ0LUq6Ro8/bouvvmL7nnveSoeO2LCCERqglXfHzIOdJLpS5ooxTdKYtj6kNKxVkulTvnndkk8/ssHHHzrQJlcvW7HbsiptKNISYzFaj8njeh+QDDt/gZhyNAb5k1QD0B+HnO4SUUR0UGBBCLGY+kUrnA8WUVmFdmWJL1kJzH/utQR+DZpKRjYTVS2SQ9tiSlssockA5wAywQUTUw4m83IWMAGOEoxVmlnEL4NBzzqyGobS6mJZFiWZzLT+FgHcQdcSAd5ovWkDmdysP1iem7GyADOGYRVvutfwmqYSHGG5qgDg6YzjNLHYVHdkYB/CeOAEgEOTLIBSEKNIGPqacoVr12zt57+QKfuuNT/8wEZXLlmx17aq8MrbXyTGB+LZrgCsduSo7X/lFdv/6mtWOfmwjap1gahCkvaITklAzNggbJZAZxlzwkTDq5YiX6BzvLJi/Y/es87bP7ORtDsWBiiqMjAXlFkYEzRQoRg9wEx9gyGB7gB6gSld7fOr9DhNHHmvkRCpKNALnRM0n4gTBFpbvcNCEDRBTN5IZmbSEQjR0SEg8tVtVN6FqgBoRiJWfImQDtqiYEcfAj5evPjlZY+VgqZXtEpF3CHgg0digelgY8MG3a5V9RrNOFgd3vXVj23S6FhPYccMpcL6oM25XnVz3MdlpjzEgRDhKcAu0zizZ9NAU6zpqZAoOApUf4xDQYoChBW5ardj4xvXrfvBB3b1H/7B4jNnbCwNrCKNi84D2mdop5mM6V0r2XBh3mafetwOf+1rVn/2ORsvLIVe2lj/kPJiRnqAmQnhIKR/HrQAEcatj8RsN65aX9pd4903bXD6Iyu1Glb2cXdiMznHTzkkf1XmBxrqVqM2/0mQnjkE6pyGbQ+L2/5OTl86pRkPn9ET6/t1CPAoK9iO5wyJolurojtlGpI7PRs0ZJL2e2FWTqVkpfm61WfqPgQpAzvvxeWH2Sn+CpsboT1KccRvMUskoKTTLOoPLWZB2M2mhGss4ON9xQuAU5BF3Rv0ujaQmT1WuCyzNSOers7O+iwgeImkALYe6Sz+fjfQ9tm9TVMLehQdPVzs+8CYI1flxTyRmKeWoOFdtfYH77tJ2zv1qVWaG1aJxSyUt0xSmIpBwzAd66oVTx6zpZdesP0vvmx29Lh10e1oiwH5RC4VYRnGRunoS1HJMfG/ImCbLF+z/vtvWf/tn9rw4lmrMauCOGICQ/KHaW20AzHrNpL2gGnEjA4nTB5pEdkqHB4eiRSlbJrT3SAVTxLLhBV2uXjSHzxjI92gTU/sQTMEYMb9SLzE6tOj4cD6nY7F7bbvPVKXgK3UZHqi6QsksxVX0O4Y4B7G6gUnOephsl0n6/gxWqCqsGgzbMmSGLcEfPJjqBfhfZ+CKDabyPSlp3fSbDmozs0tWHlp0cbSGAeoheIpeItEOATq2unWwz1PabWZPgIrKirxWgLzMKpdzFIEUIZS9yXtbl611scf2OrH71ux0/ChJXw0lkk7EWOGqUl0egh4IrOZIwds7uHjZgf2yQeZuzIZ3ASFfTBjMWnk+kMY0XzJnzrzZyXFTdrjTYWz/OYbZqc/tHpj06oCzJHs5kGnb4mkMB0ts5LaMxE+JtYftBXO0AZlMTedGgVMH2mf47K0w7KPqco0wZzuHqGTVYsMRUmHKdXEDyy1LF6jZQ/LtyIhyvhQ5uQO9M1YZVyrV2x2FFvp+jUbvveRDX/8Cxu+9Z54sys+FWAKLYO8C1o9AhVAKqvc68WKLVZnrV6phUHNMo3t6EGrHD9io31z1hXPjWX2slYgkjFWLR/WZd3MlG0uGVr5+k3rnvrMNt9XuOfPEyOf9cHyWnS4oe2puojHBLLir6x3d1poes1bMVssDatQEXiVJfUkEedUqBV6YD89bdd/9nNrfvihjdfQ8EaSvmnvqtR+5rNSzJiqiSQ0q+guvvyKzbz0mkX7D/nCAyMhW5V2FcwHgRIthr6Ao4CLmbC+ijH6ojS8jTd+YCs/+YFFq8tWl4TPGBlT29dZU7zcnNAtmBuDmLXuivLBTSY9cDNXFQETh3ZKNAC9LkdlIME53TWiAFQYvi0m7RPwEeWicmU2BG17focyp5zDFacSmgLGuGeTzVVbX71p5WpktblFAdSSDQSktCfTmYAQZb62N4WIH1i1BSsBfmHAuzjFBgLXQrvjK/BUWKiCphUFAjALHd0y0ecEqu8kTDst6yWx7T92zGozs+LdyLqoQUoHTTwkY6DzsZQA4j4tfEYSp5IoHx9ZTiELMGjXqGCKNtrWuSzTVm60tmmRAA+pBgEkAA/EIWPayuyczR86YtHSAYuVZSz6WRGQwkDeHjLxFhb/BjO1Jiassl0i04NOn7LOp59Y4cZ1i/rSJhUX/3kAhBGYH/L6IgeTw6owN/NqQ7seLBhAb2v5Ib2bA97dprQ8ATyVUyjAtFDSgs3mO6uked0fcw/4Y0wcvayTdsMS8Ujzw48sPn1avLNsleFIWl3BKs4jelvCVW/6dElv2cN/8ShsPSpHEs5LNnfgkFWqNXDLw6N90VfaxlQmXPkH77F6z2Bl2VqXL9vwyjUrtNoW0e5MlD0tDqf6LhOu00NTC3qQr2QMv6ng6Lxgf9bJtWvWvHRJBb7qg0XLXtA0FMMl/rIXNg0nvk+FmKm6tGQz+/b7cuFxyty+dI8YL5aJwhp6Y3rBxFxlSeB5fVdY37SuNMq19z6w0dVrNjuMBbqJeGmkz+VHTjndRpF4pH/2vHXefU/C8lMrS/OrjYdWL2EqJxLgY5nH4jnxD226IJHzagqAbHpUk4BGSLtpK01wa+4waCYApGMDkB6rLoy7PRuurdv6ufMW31yxUn/gg/RZT3AsPqZKMIaPa+/hnRKaatCjkFVeaPNWR1R1O7Yh1b+hQk4EeuWeQI/GZtfw9CLvcKSA9SFgNpLKXz1wwErz875EOPKPPhEcAIbMdUYSOMJ/MzBju23jCxet8/771vlEzCvGmksSH6MX4I6AcsrpVmJIC4tLdD/5yBofvWfxxTNmrXUrjgbS+GU5iN/gP/iHJg/fmF08itkLryOUK0uLYVOjqOJtdD43OHN8Cvjxh7AfDHyptLVTp21w5apvGFUToFJfGEAtX30TLMJx42JKaKrNWxwFTY8tQ0NsY802z561vgq4KGCqqOBhGtT97VUl0i91H6M1EZhVpOWxeTSLSJbonGA8lfzzJdhhIoGe96QyMBRYu3bVNsW4PUnroqQ1jcd1cQ1j+GI6VISYbt7mlNMOYgWV2YmskdXr1jj7iW2cft/synmBUcOieOAdC+UiY0xlyoqxpQB68wdymnGBJtArLy5ZSS6WsGaIvO+ShrAVr9PGB2Hy0mZX0XfFTldhnVOduGLWbIbB83rmTYDUB/x1y4R6MR001Zpe0MLQzFRgvY51r162zcvnbdJct0gAxDxZtH+9FUDItTxdyQGWYfULAd3cnBUrVVkLAkDWKdN92vF82SgcbXoCthqj7ldv2Obpj61x/pRNNm6aDGIrS1RimsTyf6j3HWBzyuk2wvCs07NbFL9srNjmZ5/YyicCvhtXBHCx1cSLTFvLRgpg9MLAtAHTmVGgXa82Y+X6nJ7L8tA9OjG8XU6g5002Cge+pYMDZaAivmWh2u7VKwLbVTMWKYBHyyWfIeJ7OiuYoPdNB00v6KmgADNf2ikWGK2vWePSResv37RyPJTEVEFSoJjAMIazh35iEJds0sgmAKIuC2yzJwlLZwibKLPvBKYvMyjo4WUj6Dqb8Qz6Mmc/sPZnHym8ZW+PieQP+ybQAM0AaTwliJxy+jxiymNN4DXDoOUb16zx6cfWPn3KbHPDgQ+BzBJoAzEjLpFQ943m9S18xUiAihy8So8v/Mlgd2ZtBJkuCwahjqCWK8Gjw651BKyNa1ds3GzIlFWNgFe9bqAQTBPkTTPoOamoaIzodyy5cdM7MFjtAi0PMGTlYRbjZJ294kTgRTsJXWFIRuUMw0lgQhgFr3g2EoAyjIUhJ4zlo6E4or2u1ZJZK8YR6CUySaIuA0RDeyENz4x/EitaRXawbxkJKueU0w6ivW6YWhk1Ac9sq2OTq9es/cknZmc+M1tbs+JQmpjAio43xpCOvWGPb3U+RptjsVH5hCWiI375QrmIdWfjrI1Pz/RNSe/VdNa5KQtFJi4dGybBzkKj8LzXBR3kxdTQFINe0PIofOt2rb+yYu0bN3zZHea5Ir2GXuwicQbj4QLoSYMTyGHCouazg9UEqUt7ChJQjID09FkbKSCW0STXVq156lPrXbpgxbUVl56+DwNhiYEKMo3LCqMq2zZSOLqdU063EAAVy/roiW9YW29+lFi92bLeZ2dt/cOPLRYAVvp9qwuIACs0NXGoeNGhzNgcasysC3E1LdK0OXsTj/x2WyZFrvB2+NH0UxMK9NbXran6MdxosIWeeBThjM7AsBrsoOlBvanW9Egc5uqk3bHBzRWL05VsuU+vlg81cQZS4bqG51DpYs2LWbdYumfU72LX0l8hIBQzlCtgoDcOFxkA3WnZ8PJFW/n4w2CGxAP3T5/LP0wM1qvVD4AkPN2fIsGZ0y4R7cps3RkL8OBPtgWt6bwgQOqcOWPts2esLG2PbQN81WY98yXTEr2jc+bCJcnQ4mFPfIcf4l25AHvwHMI2dbJQGPZCmPRVsOlVb3XFEtr1pCSEFsMAeNQDNL5poakFPTQpzMhImtV4vWndc5esuNm0uXLkDIXkCt3xzMYQs8QdG+rYi2TS+vgmsZPU/JqMiEFz2cbDpg1LI++MGCRy/dgqYoyZkQDxxmUrfvCOTc6c8oUj2SYwKdesX6iL4aThKQ7sWwD7DSU+E7S/lBFzyimjssCl0pd2NxRMiTdbkawJ1dD9FfHq+nXbePfnltCj2123YVUH8Z9PR2wNfU2+ivhq3OtYTyZqTRYLvbMIWLG6jVj+SpYLK8GUJ6wAxJCWyIa6ZtZFla1Ml1dswrS09RvSOuV7Ofb1+Vj8Fp1gWmh6QU8OLW8kc2DQZjntrgOPbFJJLTGVnEsvGIJziTs2bwmrneg+WpnusQ5fT2CJswFAx4oZZnNRZPOSysnahnUvXrLWDTpIYjGupK/MCpqAaV5GWiogd9mMD65yyul2cr4oCZgkdFmthQUH4EP23aX3dSxTt8lA4ouXbb43sKVi2TsrCpWaRaWKFQYj6zclvMXrMdMdZdUg/DN3O2X3abJhEDIdfoNW25e555zhXMw+UmS8uWdaaKo1PVY4SVSIHUm+gRiGGRlFzFtsU/3pLf0JmgAiClbMRgH7Nn8qbHrBWDa7s7pu7ZU1G3d6YTtImbozeNAf2OjqddsUI3Zv0lvLiirpDvkCUu8JFvAFsNsGPI455XQ7OX/QEysUgkUQuDAMA4WxTEoS3v3Pzlnn1GdWWlm3ui9rpvcrAjydjtfb1r6+bEO9V8AE1seB1VL+86N7GcBOT72NWt/WBKC+/NTapvXWNyTgh27axknibdJuA08JTS3oATio9mOBXlegxxI+bJLinRT8HJBU+EhKOZW7O5/eA1tIW0OjiwRig0bD2qurvgYawAnwWSJJui4z49IV612/YZNuJ6yX5oCnMNz7EAYM58DqV4ENc8rp8wjljmVofW1GMQyDg1kwo1Aq+tJnhZVl65+/YHbhos+goB2PoVfWH9rwxqq12BAIXmR8aupnoAB42wRDUg8C6FWlWZZkCQ03Nqwv66XQ64ufBbjSMn0KW67p7X1ys1J/41bL+psbNu71jElkPpST8uOxHIXpWzPqNBGY0ejrPbe6QScGHQ8Tmcjt5VXX5ljyu0zPx6Bn42tXrXf5io0EimW9Kz4L5NwVnDcWe2xwZPf2s5xyuoWcLaS5iZd8HB1imDY1WSCslhxJnasMezZcZsYGQ1iWrSjhWwa1Om0bCvA616/7AGNW/3GsgrFTyjhum/Nc/LsCQIcI89BREgaqLxMBqoMmVk94dWpoijU9/VMhsmDiUKBkDEiGCcQFvmKFznmFQmdlWy6QavTmhr1w9YI0Q8xU2ul6Kzetc+mSWUOqP6DXa1jj0nkbXL1qxV5HQAiLIk2ZcQG0wiXB7TwPLqecPp/gRygbR4fmR2dGLPCBSQG+cWvTGhfPWXLtsoRwy6ojWR2bqxbreihNsEQzjljU60BK2Wngxm1edMEP0Syj84mE+bDZtET1xvlfj3hn670poCkGPZXScGhxq2FDBg6PEu+YoJMiAzwvR8BN/ETDMSXLuCQkJG48lukg5mMt5Hh52XoMEL12RZK0abZx09qXL9h4ddnK7HAvT3wurrz0RR/5PgsnPWb/c8rpcylllhK8qItxQaDHTTEVM4HgxyJanbS9gbS91qVz4sNVAd6Kja9fsuTKRSs0Nt06YWVlBLjzngR91qbn5IcAf/QSw69YOUVQckRnRlMyHUVh5IOUXVtMP50GmlrQU1lLGwt7EQyl+gN6dFAhPZkHG/YcUFnCIElikUyIsveYqXQFfJRy+NG2IokHE5y7YJ1PPzU7f9Y65z6z+PpVq3fbPud2kk4RyjostkmsJT9Db244dybSeU453U4sDkqPLIuFiml9/B0LMZdl7TL2k0UDGKdXFt+1zp0xuyB39pQ1Tn9kvStnrNwXP5bL3vkRdMPPJ+77HF6FM5EJNJC2yCBn2gj7qi+dzU1XGiqKC7ezNvBpoKkFPS/WwcAG7EMw6AuQaCOZ+PCUUHwwlQocKSqz1kFPmmCQaoFd+LmspVNDfpRXVq1z/pyNzpyy9Qvsi7thc2LCGTEOU4MYvHwr4Zn8CnsDpufB75xy+iWStIQXEb4AH/zCyip1K9tMIRL4SesSK1XFt7XRyLrXr1nv0kVrnztrDQFg7+b1sLF3FHkHSMbjwaVnYr3sylldF3RU+DqRAK3AjfrSb0tRYCYSK3j7S/7RVND0gh6F2JNZ29qwQjxIOyuY/couY0UxFr1bekeSjbIe0Ynh0kwmMD1mes7RV53Va1WJu0l/01qffWqbP/6FlT+7aNVe3zdtobeNkXlMNaO9BG3RtTp3+tEwI+dtKbeqgTnltEVwBm3JPjdW52wZgPnJlTsxKruWAUx0OtQ7Xeu/96F1fvYLG168JM1s4J1pWC/Ot/LLeVBsDXBtAx58jlUSrA8s5nrE2APxMia1QK8gC4nB+dSPMfg7RWw7xaCngu33rCB1vyDTk+ljQJAP+hTceWcFhS9wLIpTGITpKyUDdjAezOVMI+bRa4wKmIwHNlxbteH5S1ZZbfiGzczQiPU8NPkG6erMdYvjHtw4RZyT0++ABEDiO0xY+i180BW86G3FcmImTFLACb5lW9Hk2jWLxY8TgZRXZr3ve7XomBFnmKgOfHyLDxlzyh/M5qoENvfpPmF3tkKXqZfMOWecnp5MEVJMUVI+h6Se0wDs2+95O50KD+zhKBekqf7BIO4Cg/B/6+eMAiPCajBlkKA+ayN7N/0W0HSPc8rpd0nOwNuMBvuxpJRrd7rOnvhrqYN2nm+RbmRehecCPoGmz8RQvfGHzt74PB001aA3pseLOa8MsMTcFXnBSsI5+KXOy1OcA9OQJa7dpS59uAVoJXqzdoAe5wAhTOdL+3gIOeX0u6Rt3oM3+TkPysHH2QrJO2mL39PznQQvA3QAHOc09cRxHNr04PMpY+npBr0EwKNnNSwNhaO8KUfYIhtWgnNm4aOMKGteTM8ZN8U7pXQ7PJ7h4Dvm63IMbYI55fTlkm8jymBkOVg54807IX/L3/dLJ6yaBMDD6XzaQGKqQQ+JxxxaiTEuJOFCm0W2b+zt5NiXusAOAQgDVIZBzGV2PUvfCJI2o23tL6ecviwKPIemxzCXHQKZZzstGn/719H2G96Ug2mbaozTxtVTDXoUl8OWCt01svReduA69GrhdM0jOfjIFUNdjnRk2Iq4yrU8NlhOPQoMxgkfeBjpg5xy+hIJviulmh6MeLvw5SpztxMcmwElhK7IPb/OPvBnn/f1vUlTDHqYnipAVH+OAJL+vCz1zwcJ6y2KOAy+5BNeSN/RpYOeHIuNMu6pXI4C6PF+5qeeYdbil09dyymnL5ngw6xNL7Ak3Bto+yzQL2l98DEjFTj1y8DXzss47vLB7R7dwzTVmt4WI7gLBeulJ6ZwvpBzsBO6ZZpeGFqSaXqYwwH8WHYK0xbQw3jIGA0KPbt6x6+zcHLK6XdD8Jrzm4MSRwSueN074tDa/HZ4j1d2upT8fkqhAy+QKwHwNvfgZ50DojuB9F6n7dROHalUKTSBVNbRAO5RdtvlF6SaG6m6GbS/7cJ14NM9QA+Aw4TIGC2jLYbQ351rerz3m5x7GWJDHN1v4rr9y+jWOIX3wrc659nOx7dRYP7wzbbLKaMsHz0vcVtlsYN2XIZyyW6E970MIf9ux8uQ3wr3w3u3Pf8lymKSAVH6FTye8rnzZLjr//1i69Ud90R+lX7jdUHnfqSyhIugGEwRTTHoCaCiGbPKvCp25GOOygLAmHF7jHQvVmwkBwsVJ4mVLbZSIbFScexa3ahYteGI93letlq1ZlGlZGy8UqAjRN+M/BxADEzjw1oybvqVpA+2jsHxKwl9onHBlwz3PTv0ZBAPFauJm9XVUsUqo4JVh2bzY8VnUrRJHFsy6FulLCk/CeuvscHRWH4N5RIYl97mEpJ7bOwCV2ILaKVzUhyF2SR6hwGvBZYQZ5qThzzdRD5l+UyNZtFOZicwx6sgVySPjE11Rr7hNbMgfOWcYsmqkcpBR1beKQ57Vhgr/8Vmo0LfSuOx1ZOyVeCZASuiFMUzZRtMhnou74ssXZHNuGAWz0h+Ur6yIAoVi/ujLfZBGP2ygzHkg75RFMR/w8CL8odEFcWfBQ9vZIMRg+bFx5NI4dEkA5PiCceS0l4Sv4XqP5jE1k56Vta31JNE94qzc8okFpxiB7+QX9NCUwx64g8BVakmjkwnYCPBAD6wwGkng+kY2CdzYVMVGC1IUfkX3t528jOcQzvPfzPh185owFNUDKa/4Vj5olxhDqVZMhL4ySVi8LYYelVg2IjEzEcetNkHT9pAYDlKVHmUkLoQeEbfVllgod+3yVAoqedh0p1M87QCuBnvRBpDj7b3av8Wabg3KWhtYXoX5+G4VSKeL1QLPVNWUPbejKE8ZRXh3mDgR5goqlYsKlds2IltFEtACv0Gi4s2Wli0pFazfqI8HcQ2q3wvjhj71rNEgpIg6HRgjxZW8h6prEYSQqUq084U9A76dVylKHmUM3JrJG2C4SsfkC/G2vJDH/giuQo3iNptcs1OL3ma5Ud5ti6FoQLmuXBkNsi00PSCHiU6U7doblYaXxSWfRKIldGKvHThBjnegxlU6IAOnRaJ7uMAAZegKnhnsF0i+Efe+jF4C1OloKcS4RwW8yEyOvNdrcaJ9fVRvy6N4NBBi5542va9/m1beP1bVnrwIbPFAzYskc5QjWtyFX2X7fI2FtCNfC5nkN4AH3HAUTPGqnS/aijPtBHAolxRegE9Vf4U6HyONFVi6xigwdu4HD0Y/oRIVH7pDYST9Dtrxfp2/1Gb+cqzNvv6qzb/4gtWfvgR60vgDmI07FCOJr0dzSwUvkpB35fwUiAKGJYihUlU7oQoZ8ArY0z8E79EAJYcVgeD5YMjxqQ5gF5w6WdERX5FxfANe0CXsGrmpenVZCEprvBl9v40EKU7nQQz1OtWXliwYr0mVV9gJmnLSiokmi30YHknAR4VgE3vpDCJAQGZoPUg5MtlpP3ulbr7lAYNK4bxVGLMgEBOXi8SdrvinkwVVZautIPk4H6beeYZ2/+1b1r1m79vpuOiXOnJp6y3b581ZcqySxYmUCWSGcYwBqU9VFKZO0p92NgP0AvmdAiWADneH+R5np5DAevJgACE2bmkhTJOuSbAq4gHKuWwAgq3e9Lk2jJZk8PHrPbVF2z+29+26h98x6Jvf8tmX3nFSgK+4dyCyk5lIEZiNeOyygefwzg4AFfaN6CE9uiltDNWn0/eZqfXXDtLyeEZISnAiyTkEZQ+nQwH7+sdTPUdXO8E4NG0UhHoTcT8EwF0VJ+xiuoNmh7vAniuIU4JTS3oOeNWq1aSuVGanVOFZys7XwvF2158r4yUxzIThzF5gJ6vRQZXycFXkbTDsL7Z7lBgIsIF7MKR/ziY0Nub5AqqVFLAVDeKFkcVS8SI1YcftX0vvWzlF18ye/xJs0ces9K3vmW111+z8eOPWmf/PmvLLB4AdrTneQlLO1FiM02OkAgY0GObzOAwtaiEu5fOvUk78tohIIOBzOm/Kjh3g8mnPJOWDc8Aer7zv55562i5auODR2zxta/Z3De+afbyK2Zf+YrZs89a7dVXbem11yxS+fRm5i0uyRRmeSh9Vxa/jWk7U3Bhu1FxpZiP8g7g++vJ248Vr+w8I7Q+TNsAeuIbxRntDd0U0BMrKV3OdeHnfojHVeZlWQCjWHFQHGuKb21+UUwYtD84Ypq4YmpBD83NBBSlxSWrLi3JxBVoIJ7FDayOnPXUwhwjGAMm4Vw3RukFmROJ0cN+A7tX7PI9OPm5k6XQuGhcB/Bon6uVa1IQpEnoaPsO2dKTz9jRV1SRnvmq2ZGj1qxWrF2tmx0/abMvvmIHXv2azTz9rI0PHbWuKmRblWhI255MnFSPVSiB9T0GCgOTjg6M0pjFIhEJ08Ten08hx0P5Z3yQpTqUS3DcLwqFGKRERxEaWS9OrCO0Gs3M2cyxh+2g8v3IH/6RVZ57wSZL+60ncBvRCfDwwzb/9a+rTF6zyYmHrV+ZtWQojkrYQrTswoVOqiHL92CSihfCKih3QIqzgx1/MK1Ogvanc/lTFlgB2DSTjBR/lj4jrGCY73hXRIjwOfERmygqdasvLFkF0JPmCOihCcIZ00JTDnpipgMHbPbwYW+j8A4CCtsBjeIWW+ta2CCpi6ZHz2fQ+gJTSOtSwUfMxNg1TS8wW2bSeijyGt+R8n6EMXVMZHJ0VUG6tXkrn3zMHvj6t6zy8mtmSs9QEn0IqOm9DsV48LDNv/iaHf/Gd2z/sy/b5MhJa5dnrDfyKqsfHR1Z760S7OFTMZRmHWm3oZKE2N0vlAEfQiDVgrMy4bHyheldvhaj+KArvtmUQOwI8EoPP24Hvv5t2/et35fQedhsdlHlUbB+s2/tTmzDQsXswFGrvvCyHXzt61Y+9pB1izXrS6MuqFy93U1BYHLid6nEwHfaW+GAOyBF0MHLYxq+cZ7VXzZzKBPUhIOoQ7McK/4k17/09AKMEofwgMKvLSza3MFDFu2TeQtw6j0HRTyaEir9xV/8xX9Kz6eO6M2iybmwvm7x1asWN5u+F24BtV8FPBJDo/0FEyC0543EBTTmItsAumqlaLP1amgb221KmRLZw1mA4WByMUyiqXgOZ2e9UXz+uRet/uzzqkgHrV8oWX8Ye49gWe8lMavlVlybtfqs1eWKUS2AfBIHTU/pZu8EB3tPXwgxAJ/ywBsRcf433aQEupYdsiB12QnlnIlE7jgsulAcSqsuHn7AZp982hZefMkqz79oduy4WxRj8VIkfqsoj7EWlOviHcpjxsrS/MpJYsNuxwYDduWjmSV0TrkmCU8CVuIxF8oQge+g7HLrqPhiFmPCem8t5/rUP9f5UDwBXwOCfOVp1bVrbbpHuJxIxivu4nvFPSlVbfHYSaXtOat85QlLZma8ThQAfX3vXk0B/Q5q8t4gCmmEpre4aLPS9qo0zCJddR/Jh+oO4zuDqjQd8MQcAAXDGWAcKgKNw96J4ZVi9wjf4Lv0zCuWM5YcQwRi2blxJbLZY8fsmCrXPirYgUPSFArWGkpuC/DmBGYz0tpqkRhWniVRyUb795s9/oTNyww+9PKrVjl+woa1ug2VDg9NYTrTe9ghPG/vKyZyGEDpg6mlIFZcIGQuzX8vi6wQQAM0fzEL2U1nRGF+wfY98YQdfe1Vm33hBes//JAluhczOoCVfORTqSJQoTMp7tvGcGDjet3sgQds5tlnbO5pAcninPX1HlsQIISqgBams67ZnEeBEslfSw7I8GZ2Tdx0nWl+gGdUjlzo8/M3AUC5Sdp0QyjOa3KyuKWZ6rwaWWVp0WoH91txYc6G8BXanp5NE1eEmjCFRCGxEGJUq8m8PWLVB49bMrdgg6KkckFMqoL38VFilNDaFTQ9WIqhbKOSGFGuWimj5XM39fWLU/ALRhfDizHlvTeWi/0cYPkNZIjaYZlHTz9rlaefU8V5WHWwZp0eY8LCzm4Mv4HBqwJzWmvY5yBGI10UwD/ykFVffNFmBX6FJ5+1eP9R6+t7KjDmXInNFmjpKdDao/h4Jc8GJ+MyIvGpu+X+vUqCNyE/Jv5Y/EGPZWnCyjnSvwQemHwMUC6MpUkLkAp6PixXbXTomM1I2178+jfNnpfGLWHEqGR4J0xzRNtS/kjrKkn4oEl1+10JqIFNalWzkw/ZvDT12ceetFjmcVf+IoCq4kNaG2IhEDzozTI7aGeuh7LhJNyFi/we6p3KlCYMNMiiYlWrKg6O23rm74dxmjEgrlu0Y/viujyWud2m93j/Pis9dMzKBw/qdcWZiqB0hbbn6aGpBT2KmU1WSmLk4qEjVn/8SRvJNOmoMGOBXiymG7HAqBgbqQ/zhp4qmFgQUhLTlydWr0WSyPJPz3abAD3MZnQN2aGqBMwIIeZ0XsxY7dEnrfAVAd4RVTDFu9NPLBkM3YTyOcCMoBdne7yVHnp9yzofyo++TBNvTP/Gt23hO39k5aeet8ESHRwye1XqzDwplpRqaXcwQXEUqfKzxweVV3EjfkRS58QId8v9e5jIYvoPMCtDz7WEhkAHJQjQK5MnEgZUdcaslR88YfWXXrN93/ljs1dft/7hBx0IK9LMqvpGOSYBJFBhrFuhLNCThi4tvajnXZm0fYanzC2aPfoVO/TVV6x0+IS1CxVp5xIyigOaZkLvKeMoQ047IN7uQuaH0ghgpzMv/1SA6qWyEJQZRg56YogxwlsJnvhwJYGeQGxIeISr+jGmx1j1oSehVzl+zKInH/MmlInUv5IYhR/AOE00taDn8CUNKEbczdRs5sGjtnjyhPV0ryUm9KECYtIEaefcoz+Bn/fmAR5igqgoEIARxTCBGQNDfnEi24NW5W1usCPjtxR+X1HpVyoWHT5sR5580pZOHjebR6MYWU8mE+1ACG4aqel5pWF6IPDGxCG+DD2QrhGYVekrHjpsS09/xY6+/KLNPfeM2YMPWq86Z4NSzQoCUsZnufmuylGKyIQp4/DPJeVQoWrVmXnv4Eoq7IEzsIK0sqpAZaZct7LyqD83Z8XHH7WjX3/dDn/rG1Z67FHJI2l9yqI4nlgs21CsEkCJY+oQYwxtqdAxkZaPI4fKsXxMfPjow1Y+fEjmYySNXoCk/C8JhcOOfb+ZCMOZQGfhPL3HNXyhC/jDd1VTbADFGPNbjF2tV6xcYXpa6NnvKV4tPa8dOmQL0l5raHkzdRsrPqQNU5g24WlCvikGPTkxHSAykYk789AJO/iVp2yyf7+1BXhDZ3wkLS/KLBCj0CkAw7LHaH1csrpMYTd7AJCUrb44oT/gFyaQtAOBXklMxfQ4obB1xaxdVba5J56wyuOSuocOSFrTjtcV6HX12cSq1cgiOi0koYtyZYFdSeCF34qsNFgxuezYgc4TPbODByx65RU79Id/ZDMvvmydg0fsih7ebHat2+kLOAFN+oFxd1bx7l0qWDxIrNWQ6dnqSnvuyrQcWlUm6ZwEIjV9oz206z2JmZOPWOGll6z8oszZxx+RtjYXNDmZwyXlq69UfAtboLURAsNGIqtHdb1btF6rJ3NW+To3K7P4QVt45mmrPXzCBvW69fU+m1AxaNlnfDjn/mYi2BB2BnwB7ALocQ8/Fc8dPM59LAusCdrp6LwYKs3rivTMiYds32PiuaNHfVC/9yqjgwocs2E900LT23urAqZ9ZMiAZNR+gELl1rx50zrrmzYZDCzC7FDh0sOLtgPgwRzAR00MMyOwjGTe+rxDOT3dBYJ9JGvEjExDmtB2pDu+yIG0jBZj8x44YQ++9nUrPPKYt/90Bn3r9Dqu5dUVp3pNlcm3myTuYm8xsjdiu3kuSSZmdrNZx9Bgr7B0bTJ552S67D9wwNt09M/qAloqXCkZ+p4iAPHOlIYK9Mu0O3lxN4gBvMxaqLqJaxPyfyytiDKRwCnJ7Fw6aAdeesWO/v4fWu2Fl82OypyVmQtwgUssJIBm7sUIawAIutR/zzv4yIWnADIZSpvq9S3W87F4sCYtS2qgxc2G9VdWrdTu8Kn7SXk4D/4GyoDtFsrucfQbAjT5N4zpIFHMxAvcLygBOBf04rlBdcb60niPv/SqHX3hJfHeAzZicLtSQnoAPGwSnbnf00AU+3SSCstVcx29w0qmRPXoEXvwq89a/fgD1i+XrCdABGwCDNG2AQiK8cTJbP4dSfoDKyln7xrBTGgEQj1vQ8LBlywGUKjPWe3B41Z49HFpBvPS1sbWHwxtJI2QzotKhDkKTEqLkydMmYMXAcSRmBmA1mO8Dj20SjyHmHm5C4uqwEq73NVK1S6qEl+X69KupQpaRXvZzYTuUZpIs0bYMNWVNrmigGGoAlhXXl5IEvtMGdg4esxiCZ/JgQckLBZlgrLFtrR+PUczZt8VHCvtjKUdk8tBWMBNOgrE4K0qC88qjH5/YC05xl7avgM299CjNnPkQS/vMbNhmKPrrEZp/XrijV/11lbpiQ9oZwxYrnMJPSr7SMJ+AnjrTYk4mfZVW5CWt1/8Vj50WMBc844O+Io6xCDntBlxamhqNT3KSOUVykoqOkxSpoFZUr61sW5NSVnrdr0HFMnn78qhMTELo16pSMvHhAREYJHA0l+c8EnhKDA6/FiiCo9HMpmsVLeJKtvicy9Y7ZlnpW7WrSPta9Dv+8IBtWrVqtL0iphh4mYHSv3QUplY7j2/SHTu6yGgBzwCZP3h0G6srdmnpz61f/jJT+wHb7xh6xsbSmPd5mfnXONTNjkYE7+Mpk/TgzyDVOYqCwm+RCbocH7BNmdm7bQkyU/XNuzjTs9WZON1BHRRVLPZal184S2lLhzDFK7UoUU7pKDhZUS+6VrlMBTQDBQO40IrKruqytF3WpHFMV7fsLjTtWjI0mYqTZWhg8yvo7RMQjmlpcW9HWWFBYA//ZhVYRCMmO56V6BN5x5xYYD75MBhO/7a1+wBaXklaXmx+D6mV1ug5+3G7qOczqeFpnpwMuXkjfRiDMw5hnYUGXDZ61lXFT5utST1Eh8vRdsF5jCMwgyMek0AI3NEcORtfV7mdyCFfzMF0HMWgslVgXxuLZOT6otWe+wJn1trR49Svawp7SCWY9OXGVXKSqWu71S1FFGS5ma5e0bdowMjACCVmcZxng+V3rNnz9qPfvRj+8u/+iv7r3/5l/bRqdN29Phxe/r55+wBBtgy/g9TCz+9QgeaRtDDrMPcZ0oZq6SM5het/OhjNnnkMbsmcPvu6c/sL3/8U/v03CVbX2/K9CzY4uysTFNZCwhCDABlAHmAkCHTgDvy3rVrPSAH0bAAQRYTGEq7Qnly3qpLawT8mm2L19at39i0Yq/rbW13CnpO4kefhUH4Hoc0UikVFNYA0JMmO5E2yRAV4sdg44GejefmbObxx+2x3/8Dm3n0UTMJvz7hK6LMF3HDJ23uuN3ve5mmGvTQghwR6OVUpWYpntJM3efSTnp9629sWq/RdBOHFU3GMLBcVRoh7XkwucmsrCLJxVRbo+W/EDn7pAwrrlL8EoUZF6pW33fEFr/6VSu++KI3mnfjobWkjcbSAjCT5uYWfI09Fgn1thbFiSgHbpSJSrWjhdrTTeWW+aL4f/Txx/a//r//V/uv/8//2X744x/bNWm5D5x8yP4P/+P/aH/4539uR5kUr/RvNhtWGPatQk9fSlMJehIOFOUqAmVxySoy7Q68/jU7/I1v2ayEzuVO394/9ZmdP3Perl24ZCs3b9hAgmNucd4WD+4TaLDkkvJa/OTj8xzw9APpHCjENmkGYSUwkHw4YHylQEdlUhUPMj7T5OdobdU6ctZtuwkK6P0mci5MeZHD1hc6yc7hfS9/lWWicGWRhyFcAltm+/RrFZs9ecyOfe11O/zqyzY+sN96AumhvkPUMyzKQZL04dzjEOa9Tl5lppEonngsCYtZoQKbSLr34RAxW+3Yg/bAE0/Y/ANHfdySr6QsYGSsFmYnhezMzOvSEBmn56vs7gqhVaaapeKGdpmo8iSSvsX6rJWZUbEwZ+1xbF1pbLEcdalYxMySloEPigsMPBIosloH157ItNIxcZ2aNxDg/fTNn9v/5f/2f7X/+r/8z/bZJ5/KRIvsiSe+Yl//zh/Zoy+9atGJh3zgLJX+mT/+kzCDYKqp4Fo/7aElCZEHnn/Bjn/jG1Z/VsJG+bB48mF79vkX7blnvmpPPfao9TsN+/t/+K795//yf7e/+/vv2pXrAkDluZQnX1Wb9ji0vC1MoAx0DEUh4BCQuMbNzeHQx1n2GMIC6M3PWZGB5LI+mD00ESChVd0pebl7oL+CxGNRuRAsHF3CK4RL++VIZuzSyRN24rlnbbJv0Tp6r5WwWO3IQRvgg/elJkguyxjHupgSmuo2PewQhnLQI4nUi+Riem0l6SrS5Hpiy8aqzNzVho/Poq2mInSblwkzP1eT5BWf0nAtLgBTtuXoFyPmuTLjA99qDEQeSOgvLFr09JM299xzZgcO+6DRDtqomJAxX7O1GavVa276CJ91Lwywpd0lOBQKel/lqdLJoNj33nnX/vP/9J/tH//+H6wpU2pRzL1v3z6bqVbsiCT7c6roDz7wgFXn5n3VkFJ9zvYdPGwdhnR0+1aIQ8/mcNjVf2kJyrOxKqfqgiIhwaBwMeGYaepmOmP9FNdIlYShGhBPvzgpfUo40EGmocyShzQUED7NBJyTN0OECW1VEiIuvLwpAK2F4edoOoyDnLHh4mHb9+Irtv9f/IkVHn7YJjJxh1Xdjyd2+dxl++jdD7yZgNWRGbqxvrFmly9ddDB4+MHjtk/vs2BnlvceS7Q6pKOuWSVHoSv8EBc3M5O+P8PimK3WvJyGUsEGyzdtfOWyeEGglPr164hXyHv98+O2Ns49P1GWcE+lp/Qw9czzB7Abik+iWVt86UU7+PvftvknHrcR5ao3WEK+rB+r7ownKmfl31jpGbO9gL8xHRQ4c0qJ5XpgPHrZErQiMT+9UkhqW5i3/V95yh5+5WWrHT1ssSrzkM4AlWxUEsNMpElJU6QblBkMVKhdIxgW80gOk5RfSYBW3C+pLy0PzmXg8UjA5x0Sqjj03GZRoNB85gb++E1HIWdMem/p6V1ZXrGf/+zn9u7b71pzUyZ8tWqzc7PeltVpNe3q5ct28fx521jfEBQofAEf7Yi9EyftE2mUH7a7drU3tFG1bnOz81ZRHAoSADhljAABTVXxk8ZDJUEbQMCgKQ91sydNNeiou0EAGo70KUxvbOI6PA1rAIZC4pw8ZXhSWfGjZ7aie/VyVWmvSIgU7Gyraz/daNjZsjTnIw+aHTpiY4FYP5nYzRvLduHMOVu+elVaXtsq1bItyqwtRyW7dPGC/fAHP7QP3n/fNhuNUBBpHCDFTr90rB1Jp1hE3rlEh5mEKOvgJcpD19IEfIWlJSvPqcwB6qC63TER9I7gRfoeP1J/WFygKlM8QosUIPuc39k5W3zoITv67LO2+PgTVpCwZVgT3ziA44s+d4hTvENCwhCXaaHp7sgQE4ANSGzaNlhypyjmYzFRNsupzNRtIYosbjSttblmg17HZvR8plZxTYoR8kV9k61Qi3+7Qilz0f4G7DEdaXzksA9Irj3yqK+UEqvCtnvsqTAS45ZttlJTBZTWkXI5hxCfcEZFQqthetrm5qa999679td//d/s448+0ndVW1hYcM2k1+/Z6uqadVShMZdx5E9HmuF6q2E/fP9d+9uf/NA+/fRTG3YHtjS/YEvSMstoC6h4hEMFUZ4EJYs0oPEE8GYwxHAiIQOU+r00wl+QsqE9uIx8/TnXKHGIN8VEYTKCEcBjZRNeLwncJkrnmjTYi42u/fjGqv1AebCK9iyg76g8NpodO3/hor0pQfGD739f+fahtPy+L+FerVUFeuRd39YlJOaVJw+eOGH7Dx9x4RNKQHGUg7x0KSj9ceD+YChNT1YG7bFiKpup15GnNla+J1cuWSIhVKLhLXz2hYlYUU7kB0POGzKp1yVE58VfR1540Q69+qJVHnnYF9plBZn0C/1Cbjp/el4HF57sRszuPk016NFmBgig/nuPlACsKvDw/S8AMoFIjSlfKtSNtVUbtJs2q/uAXiU1n+g4YPzbdsF/ccrYJygsAgpVysKxB21O5m3lpBhRFbSrCoJ5i3ZaK0cyb2VuKy4IZcgZ1D0JN2JpsuyaRlovyQz77ne/Z3/7t3+rSrpmhw4dsnp9RuZVLDO3aWtra9aQptJut/351StX7ey5c/buJ5/Y/+d7/93+8c037eKFy9btD6X1RlbDAZAIAGlw1BFAgERQwQE36gZmFNObhEZpO5aeeoX6gpR6AeBx6sJM/hK2zjwPWBmHZxVpJ8x59WW39HSsePflbgxH9uHapv1MmtwPrt60n69s2iVpszcbLbt8/aZ9+vGn9vM33rAf/eCf7L133rb1zXVp/gIhpaMm4Vin1z8Z2ZVLlz0uJx5+yI4/dNJmBV5YtU5pPB2IuRci67pSHMc2pE0PLVlxBvRYkbuYCAivX7eBymwy6LuQDsLsixFBMx6P4SkD5UlD4baktR995VV74PXXxGtPWbK4ZAMJMucl5acD3ZYjIing+TF7cu/TVIMeGl3YHUqVg8JVwbLkDu0srKjBFCBZHDa7tGC9TtMSmX0zkrY1vV9VRUKKMz2MTgP40NtRdoPgJ46qDeDpKKpa8eRxmxHoRQ8c08PIGq2OawcwX12Vti5TiInsRCGLxc7YkD7SmUi7+eijj+1v/uZv7E2BV11m85EjR10AbEgDbDZb1pe2xyIFaIRXZcZ9euqUvf322/bGz35mH3z4sXUabV+gtKOK0uh0rTNQnszPyTyeUX7JgEMDTs04tOAwI0TJQRNEuyiWrF6phtrOg12gDEABmAB4AF1w5AShOAQqbiPlG4FT9t1a3a4oLW+urto/XL1u/3hjxc40u7ahezeX1+2zU6ftg3ffsXeUV+8pDz777JRtig+KlbL16QgTiJdlFs/PLti8NPCVmyvWlwb+wANH7bHHHrWjhw9vl0PKHw4YRChEzU8BvVighgbPzBvKhSXB6NAqLt+0nkznREII4PFOjy9IBM0qQ0RpQNONhCazLR79/d+3peefs8KBg9ZSaQ6lAbKlZdoUqfdTENS5oumChiMehbv3PpHHU0nOc2J6VoRlGk5oxB3ZsC1pmjBeSkBTltYn6Udb1omXXrLjTz9t8/sP2kSajbdpILFVt1mJY1c0lpTwydtPJIHBCRrcadMr1AUUxFfA1VclgduQ1K6pplIXymICe4YrgbPSyre00Z07e9YuXDjv3x06dNjDaalCbW5uWNcHZEc2I80FLbjVatl1aRpXrlyxDWk8M4ORLRWrVqnP27LMsDc3Nu2vpYX8N5l+b69u2sZEmi9TtQZDm7Bs0phBDjKgSkI430BJJjZgN1QOMhVmV0jVjbwYo2nKTRBVQEOaL1KZlWtyAEtPOCttShp8Vxr0JWmrP7tx075/8bL9ZHXdPhQPNKQx0ylULoys3960tRvXbOXGVWs01wT2sawA+Y6AUfkPu7G1N9o2aPVtrjZnhw8esr7y8Ny5s3btetD6nH5FUrMSorwpD8qbzXp8VAEvyLyMZmd98yqGkuwWmxGdYkRHhLRJpWXfvv320OOP28FnnrLCof2+fh6dZZEUAMqLFWc8R11I0W4amhLoNPLRD+7rdNDUgh6sVlLlZhgKGgjn3iamQk0k3caxpKCYmhWUmdDP1LQDkt6zMCDMh8YwSvStNAa94+OVnH13gcT8uOCnmFL+l2nURjsS+covcJm/BvOpEqeN9zuBz2Pjt8Ss+Kk7aHOXLl+2lZUV1yborcWs6vf7DqZB+gOS9GwrbKUV8Ksqb2bo7AA8pZF0pQ12BR4NaZnnFZ9/uHjF/v7sBftgvWWNogCjvigTt64Q6XCR6ca+vJImEwEfy58z9AHs2z2SvzgJASAOEzGAPtmiMpLz7KG3oDrjK8lcFnq9KzP2h2cv29tXV+x6Z2hxQYJQQBCXEivNlgU4FSvWylaoUgYVb7+j7XMscIwErtFI6esNrduU9tsf2OLiog/6vSHt7Or1a66N/yYK5aTI6Q9QQQDTCeTte+JLOjRKlZrKOKRxVwhvFE8WlyW8mgTYvASdiSdQ68bi7YriM6PyRXtGqIC4IfzteJCl00ZTC3oUmTdtgxU6L8qUYAd3OjLEBr4Qp+GQuqq0tCrzpKTKyowEYYG/R8WFGVMe2BUCeAVrilTw1zsgMLupALrBODLayQKQOS8qDsQmZUEOmcvupYQmt7mxYe12xzU6ppkBejjqXfBzInMrUfIDqHPP5/OKG1Ci2FTcp7XpV5YmPIxqdrHbs7ekKb2x0bBPBALXC1VrleoWSytkrJrvvaCK7NVFQYS43hq3L0LeK63C5JiBA79g8uJ4R2AmAFlXBT8n0Hpb2tkv1hv23kbTrim9Pddo8GxiA8xNpR1ti8EsieKfJIq1ntP76+1heka7IAu89oc9a/fbVplBOJVssyENcUWaoYDQKRSVSB6AvlvX4dTNWJyeOweS76FAFKAEED2s2cu7QO6XPKNNmIH35X5so1bXTKb7aNiXcpxIy6OjQ3mpMNHmGKWAtun8nn4PQDgohhtTQdMLeioo1HaGK5DI0SSxgUwx3wsCS1BHV+nFiBOB3qTdsu7Guo10LEoK+qbgAKTAUNCg7wMb7QbBiCOBCj7irfusCouGBKGZBi0wEAASQO824obe9YqTciVgRftRQs+l7qPNobECemh5gBsgyzmAx4e8x3k/Hvqg6JEqdYVZKUIEhnxgpbIO4RUF+M6gaz+VCf3m2qZdlCncE/gV0fwsklak8PQyeUolpwx2heTRWKboKFvS3vNCCaZsGRwMWquUfSMlmbQXen17a23DfrK+aR92+3ZNoNJWeijLqvIiUlrLfCdZJ4vYikyf0JEZE6yk7B0zZK5r2CMJgZHMwVigOZBGKFEqTbHb6Vqv0ZaJqEzaSmdWRumNLaTQdZonRXiOW+R9VvgCGsrFy3GXCe5nqbRid2C9tTUbrK7YaNAT4NEaoXxVvcCKYIsCX0xXLmh5NCnov5yDHvGcEgq1bEopKzTaeIaJTDxJ6xFLCQlPSrQ/CfyQdpEqQnt52dqrq5ZIU2KZcMAirHEHYAog5Efg0C9OrukpDNey6HyQ3/isaqiHAYQg/8+7eu49zq53kiAepKdb5+EEQMuG2BAOd3nEdDTAkHv4nwEiZi4VDqBlIHZfbiKw91U5pA144/tA2oy0xn6tLg2vaB+0WvZPN67bDy5fsWuJ4laZVZgViwQe7OZP6CFkpU/HTPuDSIvH1CsX13oTwMc5O+p70sAH+gsAJ3/0KNO+MfeL0vpKfEE+Ks+SQmSdcs1Od/r2hjSwX6yv2ycy6W/IHwB7wpRCFedkMnRtr15SfKXWAn5lPcAxoDpM4xPpQJ6PAD4HBMJVHJRfPATsJgJJNwv5JP2MVPCXXXsacWl5Q6QNoeMPnfAjaGVbt74gBd5Hk1Oyif9IoNfctO7KspV6vZCX+hd4Ly0lT2Pq0piQPn4exymhqQU9eJFFEllEdChmQ3oz3q0oSc4cIlqcBmXMjdjKUvd7ly65tsfkcsY2udSXucbc27JAjxUwdouoNgyeHWNizNekLUnNUOWKiLTiWpIZPhixorIKSJoTpjjDTXw4SEa8ikcCKAhz1bUJxR/ngJcCHKCG5qhTr2xe4aDsvbQyku4ZJMJgaB3lSSdKrDgrDU4VfdRPBAoV5eOsNStz9p7C+89vf2BvdVq2tjBrbX3HwqXMSx1Xqr5itYOENAla4YShCo6BuQCv3tM11Y0131jhmSnuE1aaMcJg3B+NE1RAhsgon/S8Op4VSNEWObJIcWPVt3LS842derUl21g6Yv+vMxfsv1y4bB/L33iJdkf512jZTF/mvYRbT4jX1/cDgd9YwDlCg5QuP6EdBHDQj7xGgU7EJyzSWhGgs3R6tVCR1qSIM+A5qlpUr0m7lFlMvpKd5Df8xcci8BNlcqCnA4XNaAKeMFgZzTsIUkjh6pwxmeHL3SD5pDBVcjaOYutWlE+jlsVXr1lpuaFIkRd09EWyiNDSJfw8cmjTiY1K4jflE2mQTcQD93UaaGpBD6JyqVx9DTpmNFBwMBwdB+gj8Dm7ylPJh+22JSzhRAXNNDyBgfhYlZVvdzerXJbKc9ZnczwlHjiRS1ZnNoCBdGQnMF54BqVXThGajOJZ0ZHOmNmZGQc7AI4d75mRUREYcZ6NXcQUZsjCQBUQMCJEOiAYDxhFtNNJMHSlHUtDZNEFgBpztydTqdnTN7N1qz3+pB14/eu28NJLNnjgsK1gIjcaVlPMXHuk2gFqgFhR0CXzk83U4wFT3Aph/KESoZgq/ogi1qjTEYCgjTBWOQloAI1uceBts3VGVvYm1pFE60YzZsdO2PyrL9oD3/q6tZTOTWmmzVbXJv3Yh/vMz89bnYUmdO4rTCsdxI38h4JgCB069ILTFko+0fHFy/AB9yv0CMsSYG08zhcW5m2mLi3XfREhVbJCSW+ipXpaECxevIEH0fD9FaVLme9Lh7HclAPPrhBxQXvUqfKb/VNK4q+41TZljvM8y8D72oLhA9fqikI5d9J6s6FB00ZTDHowK+1agBgMpsIDNKRFsOcFJe2DWFVJjVVsN9Ys7ooZ3PwFkgA9KgZfZhOud4cBXBtT1lPnRmg6gB9DVIgLoVEJFV4WJgqB8NvjHIAvnPsl//xWuF8TiCwt7fMZGJizrVZTFTis4QYIYuonmLA6co0JT2Wnh5pxbV5JFG5Yapx4mC+lPs/sFWk28/KH+LR7Eij7D1vliWds7mvftH3f/j0rv/iiDQ8dsqG0Pt5Bpy3IjERTYGklXATwyrkJq8jjsjZAEim9SY4jzxQPaX84siJB+5DmyHL4w7hkydwBKz78lM289IrNfvObtvS1123pyaekPS96DzjaDKvTVGrSPAU6LLGEWkaFlvci/5fSL5ct2jEmKfk0xzJMEiTMZCHT9+/fbwcPHvK9bSklnJMyDO9JvvsO2EkDRqB5ehUMgFeSYPFmCAGiEmOFIZrr7kIMeUzwFCqLZlQU1nBtw5LVNV9LkuYLZyzVEUVO+aKS0inmP8csLqRjZ07d67RVVtNIXnmkPfi4LUm7iSQYmwExOBTpV/KKMbR4dcWSzXVpBl19JEZAOvtPBY+5RzbtYqk75CHt9fN17+T3WPEwaU/OoICOwuU5IIRWksV/J21Z3BwDyqhyztuDDz5oRx84qvqU+LQpAC2rtJyjeQC2VGoWVnXNVp4QDlP1fJiPwlPWeRiANJoksyyoIAzT4N0Dx0/azMmHbfTgcSs9/RWbf+01W3rxJas+9KgvQ87qMSW9R2VCk/EKTsVS2omH7ioc7isuuk97mOc2QkGA4Fo52qHMS6CFSosZ31H8Rkv7rfrE0zb3yuu28PJrFj31tBWOPmgPP/+CLR44JBNVJmWvp3CkGc5JG1O6PH3krcIOgkc/UEjhupl/m0MTBjhmAHz2TRYxuHtWefnIIw/7AGVwy/PIn8onnZCu9MrTNpGQkYcenheZsjHMWBHxrNcX7/W38mrXCNDjKH9pOGBqXryxYf2VFbN2S+GxcKniJ6f/vKnwEQrENKRLOaHnPNvFeN1lmmLQUyGpsAA+H28nKa/iVIoBPd2XCKQXT7aK9a5fh5utnASVH2ZH36AhiiWd4MPd5EXVpLTSyV/FwUGv2xcjCnQBAT2pOBAJFHC6xUBSn+DP9yk5Y4ZT1Z0AKFTORx55xB5//AlpdzWfbkb6fYXk+TnXBFlxhkoNeZ0XAQj80MIARNZgs7HSz8ZDUdVqquilGhP2lV+Djvwp21NfedIeOHnCZE+b7T9gs099xY68/k3b/+o3mKdl45k5FYEATeFHCg+YY7gEy617xAVqCtbDRtkA5n2RCASCjsy2yIanMKC80lceKD6xtKzyU0/awqsv24xc8bHHTUhn46huL774qh0XCNNe1pLmnkiTWVhaEOjPusYbBgmTbv/n+eBOmYxwDPmS5Q2AN6M8XfRmg8bmpg/mPnLkiH3lK1+RcDnm7/nrciEHt8lLWOnyDbZ54GkJb5BGQN5kio+6HRsD0IoD2uDuUMi/DIAJK0L4C+yGq6s2lnVTkmVBL67H218jxpwE5zFJn/utKaEpBj3qVEiegwVSFCCRhMV4wqSK0Dw6Hetcu26RQIeFE6mk3qbEuTQh9wMc2jVmDESlox0JRGNPjliMz2YxNpS2p2sqKPXSmU1BA3osJgoAfh7RdkeFrQncTp48ac8991VpIg+4iYt2wrPZmdnQvlVH48P0wdTd7tigvYt4cU37TrVU9TarucUlWzx4wMr1irUGXVmNfTtyeL+99tIL9siJB60ubZHlx23pgNlTz9jM175lswKfyomTvlYcu+STDl8kUyZVEjPxXvElb+XQLIE86X/+nyvgnZ7FWO/5JuYJZVOz8oHDVntGWuXXX7HaS8/7puZCJeVRyTs7Xn7uBXtGJu7c7Jy1pLl3+j3Pk30CytlZpVvl78AmF3pUEXI66pr7hE2Zo/3y/v79+1xYDKSJX79xwwUIQuWZZ561o0ePkm2B8NPhIfAJ/rimJL7z1XI4T2sbz1h63kmgN2i3Le7J3FRaebZbRJgIegd4xausfCzTfru5YYPUsmHYChHFiKAYyAFS4MIGp/PdjNNeoDTnp4+8sKiIktaQmzW0WRVVwFKtyrQYS7MzSe/ujWWLxNTSgUKVQ+tRgWNeIf2pgrtLxE7Aq6DQ5ZDCw07beoqLqZKqpniPKVEPcyEVH5lBDISlB9BjcxsnkrbA3FK6VMG/+tWvCvieswWB3Bqr8wrc2V9jaWnJDhzYLyxi5kk6Xg+Q07f4ESsfyAUAcmnfkhS4/XbgoN4XALAo6bo0Rxr5n5f/X3vlZXtg336r6VtmuQzQaGbnzR59zBZf+5otvfKatLDHjLUCuyqLsdLEIFzfqc2zGQEjQAgJVZJ0U14AQggeFoGNJaIGyoOezOXxIeYnP2cHvv51q7/ykrTJB61fZbtCVW3hNgsznDh+3F556UV77InHrVip2NqGyrc7EIDNC/gO2Nz8grRZ2hmhAHQOgjpHs6Ndk5VnmKGyb2mfO/KJecpozUzrI1+feOIJW1hcdF+c0vLg4E5e4hjaQm8wPbMuWhRXAJU1Ep3POl3ry8qIVe6hQSPEbFdIjIIgY41Db8OVY4PypKE8Ybxeq6k4hsH4nhf+P2jXGQhmadnNaN1tmu5VVvSjKGmjoJ2sJGYeqJDRMupy1mpY98xp23j/Q5uTmYvmV6bCqVKyGTjlTO+uM2PKBLtBDmTumH0hhlNF6xRKVtl/0GYfkuYiU4wxVD3azhQJrwo6ITWsbsLCA3QybHMiWmMADoiBxWg3jMFj5sC1a9ccSDBxM4em550XSme2Z4T3XHr734It7pNJOD8joKTBfWIb62u2enPZB+++9OLL9u///X+wb7Di8EzdwcuDVpoAkKLMYVYFLi8tWkFHFncAFBNpnZi4vvy+HKYn4Ia57d9i4yqVaOKkFU+Jk2xpKz/ymNVefMVmX3jByjIt0SrH0kTZrT/r+XQporiWopIxsX99s2E3b6zYIAW9Wq0u8GafEfYLliYr8APg6Imlo4ftNQF3er8xa2m7o22x1Wr76jQIjD/9039l/+bf/BsHPZoKnBR9ggewgtMNmEVCoCOztdPtCsClpSt9zAcn/+cUJrN/hiqb5icfWXzxgs2UXLwFP78wSZSKxSOBHqwx8iFQAlypm7RcxAvzVpaZXtsn7RzhjuCBlC+eCh29N1dX6Adevro/DTTFoMfUIm+ZSw0naReqXB1pdzTM1ifSItgV7dRp657+zBYkkcuqgMzhZOXdkZgTs9in8LjGuJsMKbZyoAim5EQaSjsFvQXWOFtckEZasr5MH2AAVvNt+wR8zA+NqgI9VUa0RLRCTNjQGSHIUJwhGt/RSjrSJC5dumzLy8vWUwX05bXkB8NXMN8wd7NODhyriSzJnJ2dq1tUU64xlk3m6Jq+Z2XdF559wf7tv/s/2r/40//B9h045Gv+sUAlHSCkiyE4mLD0TspDKx48ZPM1HaWlttfWbCSNk8Hg3jiuhBXTiu4wlwKfP1MdZA5sTZpcUXFakNZYk4ZXOimhsLhPQKoyolKqsvpwJH2XTGIbxkOblwY2P79knXbPzp+9oLSv+rg6tEyGvAB2GbCRT5j7HAE5OoIwZ3G0baIhNyQ4EBpoz//xP/5He+mll3xOsxDeNThvNhGREvIgdN+qdFS2bZmtvqG4QIfbDIeZpclAYEtTxuDqVds89YmNrl22eeWZD23ZBfJB0xLY1RLjHtGaw4o9EmvW1/2BeCw6dsxmDx0JYysd9PQNfK4DwAffeQeTa8IBCKeBphf00opDBVK1kGYUSYMo2FAVckaMX5E5Oblw3jY/+cSGy9esqvuo+Ug1BjWj4vtwCnlFnUrZedcoMJXAWOCG1sEQC8yz+YOSvMcesLE0D/aj7Y4E1gK8SFKb7SKZilWsKkWq9Oy0Dz9i8rpGBJs63wYzzRvhxdysmMxKvwAfO54xLxf+RbtB++GYjd9DcwvL0k98ZZbVNQmGZlta0Ky9/rWv27/+8z+3P/ijP7SHH35YYSgN8seHt+jbMMwGoMTRlKCME2gVWIR0TqagwgIk+r2OJTLn5ujgEIAPBeAD3Weh0joDlPlWZdatz1vx0adt7rVvWO3lV63w8CO+FzCzQxBlnk65rHMiTbyAsmaMoZvXu5jSzWbDVlZuWrvTclCmCYOOBNpNWScP0K/LnKeHGvhlTjLjF1l3sC0+oT3wW9/6pv2f/8N/sG//3u/ZQZURAArBJ8xbJS78ADuiQVdYd9i1lr6nfAriPytIYClt8wLZClrp6k3rf/y+NU59ZMXNNZurVV3z3RWS92j/lGNYD1KgpbjR5MP4hATgl3CrSzAWlAdozKwxCe+j3SH8iSLf8TVA6J5OAU0x6FHoFJI0KlUkeiHDYOOxzdFetr5uk88+s40zp2zS3LDIQU/fqHSzpXT4GjMy6CK7RwCeeyiHluJhAlxCsMnCnFVPnrDS/IKPlu+IQwtxYhXFfYwmY7EVK4ClzCM9R1uEIQGdYGaG2LqZKb+psIdlxmDCQWi/mGphkG3fHUNQElV02p66aCbdjnd+dDos01SwQ4eP2quvvW7/gwDvO3/w+/bIo4+4tqigBCoCX4VDLnnFd8ALmrF3WnKvUrOitLMabWDlovVZmUSaX30grdvBUeUhNSiK5QTycaVuk6X9ArnHBXav2fxrXzc7fsJXlJZapVQQFloex1BOhA/oZg4gpxPiyNHDwloJEKWppzS3W2E9QfJhIE0aLRnXH/TdDG1LsyNvWGEa0/b48eP2B3/wB/Z/+vf/3o+0lxI2RP7S7ospzh1ygZigtfZGPWu2m56/nic+XrEiwVayfdKwHUounLHOB+9Y+9J5iwZdPVNe7JKmB7FEfcwQLPGCt+vJUiBvaDqJJajq7Hd8+LDZgQMueNzCkZBA+GP1kL8O6pl/nr57n6YW9Jz9+KeKh0YFSzooiCGrAOHqqg3PnLHNCxes3G0LVJhmxVtiWRhALjCynFfe3SxwIgUAKywkO4ylW6pBNhIjzh0+YiazkFWLfWVbmWwMpfE5wPox/7NUjFSRpJ2xegxtYqKsFxai8lA50QAx5Ri799BDD7lZxn0qI6YbqydTyQEApkYxJCNU1KKvuPziiy/an/zJn9if/dmf2euvv+4gQJvUbyKSg/DwTgYqvczLQq3mqxCXpdEoBTbuxzK5B1ZSvZwRKCjTpYWUbcCg32eesQMKb/aZr5oJtIViaYH+enLQR/0VAfQHVKFPnDhhx2TKofkC7qSVI+kkvXRSIAi45nvXkBcW7OWXX/Z0/7nAnrRzj3zFkT8OegoHcPDtElV+3GB2C4OYO8x8EIaxgg7mIzvyzbP14qzS0mvb6JOPpOWdsmR9zWoCYRbAcA92g+QNUOyjEBQ/BJMPj1I8gNWhhE1B2m1Nec0m3+zEhvBhwYEC6YPvdE6eEy1i5ddTQAUxfuCQqSMKTf8FdJJzOsocEWiUimOrx9I0Pv3E2j/8oV197y2bGbTFdNKgVLrABxUVNR/zNqzEIs1J93ZPBhMnsn1iibQ42nmk54nhyjaURnNEJtTsH/6xTLl9thpLa1DlGXnPLe2RMnVpk6tKSs/KdJUpKtxzpqQie0UkrmnlxGzNCHBjpeSPP/7YTqmynRHo08nhZpzAD9BjDBprxgESTz75pD3//PP2jACI4Rn4nQHKb6oAXrGUvqHOonHJasSRmxIutnzd7KMPrPXmm7amil9YW7G5StUGgPjCPis9/1Vb+MbXrfL0V0w2mLQPNNoggO6E0NwgN7kV54wuSMB98skn9otf/MLeffddBzx6ZDOQp33zsDQfBAQa3Z/+6Z/a0ywsq/s8J3/Jz1vSHopRgCKBo/CkGFu33bL1tVUBeteqSpdQL3S4CEyPzdYF8Prm4gVb/ru/s85775jJ0phndRsJt6I3U3xxIh5EDdDDWmHD+jGzPgolaX9F22RWzJGjtvTq63bgX/xLs4VF64kPuwLFEs0pAJ/OaQdnZhKUg949QUqayknFJy1JhSnQq4vhSs1Nm7zzrm3+0z/Z8qmPbKEYu3mbUVhiBym+DXp4tFsZhU9olJhGrOvmc4EleVnTrTG3aEvPv2BH/tWfmT38qLXLFZlJMrmkEbFTPvHxZnNpThVpcPP0NgoEqXRoelR03E4CqDKw4kjlBRiyYRgAHhWfe2FO6YJXenor6aFEW4ThdwLenYBerP9D6W5MZq+qsvEJTV7sX2Hnz1r8i5/bzbd+asnFs7onM1Mgvv/Jp2zfH/yhSbVSGmdtLJOXMXhSbFVw7vU/m8gf0gn4o+Xi0PDQ/EgPGiya8MGDBx3cMJG92UAA4M0Pyocsb8lDyFfi8WxRHgtYWjKTWwyDkr/YCvQOs8veOCpZfd+inRToMRti8NM37Mr3vm+lc+dleYxsRskcDGRSp1r7bhDAB+h5MwACayg+V5wUiDXEb8O5eat99Xk7+W//nQnpLRYQNsX3RQc9Zbe+Q0sPA9dFv77I7xma7iErKnDaZcKyRWJA3atQhzbWbHBGlU5u2Fi3CkMJUENUqGh02TJHMK2XM/92scDpY8FDOht8bq+3+UQeNhuS0+EyL0ArysytzDHkQ/f1BRLX95MVOCJ8eZ82wbpAD8ZGG8HdDkjZdfacygu4YcZRyTFjGciMdoeWw3UGeFRyKnxm0t0J4AUKwI7egkkF2sWK9KhEnHVTZdC/fNGa1y5aRZo2MzV68jZSfGoPnbQSsx2imu/bqlh7OerwGwltFfq8eBJ/0gOYoc1maSfNOLRcwJ584R2ADaDPvuMIZYDHNfnupCPrETY6LW87ZDELerRdudWvPlNVmdasztjQm9dt/a03rXPmM6u1m86TJI9OjDvL2zsj98l5LfA/Jrg34SgM2uq4N5bQ3Hdcea3yZijUkDT5O6RVPCqB7H7sXrTuOt0BG9275OVNlVEBU8SMEVMNtqTRtN76mo0l6VlPD7srrMiblq/+UfAc3azVfZh3tyhUBDkqhkxaX8PNtSjFcZRYsr5qK6c+NbshM1DSf16Vp1oTsLnGJQbWu2h2Y1WgWGCB9pJVzp2Vxt+TA7BuJ+4BflRuKrmvzCJHT6ZPVUsrOOSVe4ff+PmbiDcZlkPnDFXOe9Exzek77G7aaPWGdW9csaHAr4iGKUCMZMLHy8vWOH/e4suXpCr2BRzSTOV88dc7oJ3glKV9pyMNvJOlPUtzNmwnaw7gXd7L0pylP2s3zfIkkDRBlQW9w2iRPrRI/gupfVYJzRG+WANAIs3azp2zntJX6rZDfsgCYUjLbvIYJcCPTjIIv9FEGQPJFdPPaMceS8tvXROfdbrKb1kKelEp1T+EfwBGJdz9mBaaatAT1+sfRa/KoHOm4fjYqI0N666tWdIT6Hnhjt3pA3+X+sVSPF7P5DjsJsFMrMHG5jCuoREG2oOYvyK2LKnytC9dsOHpUwK+G1bSs7mKzC0GJktTch4EqCf0OnZtY2Pd26fQcm4HpM+7zjS3OwIvBUblzwCAb+7kO8gHVOP4RnFmFkxx2PUxaZ2zpy2+dNFKEkAsV1WXprsg+zVab1r/7DkbkPbN9ZBO1dDxHXLqTqD6POLZNlgFytJ0e7p2pnsn7QQ8n6cN4AnAuhKitJsBGkFTkh8qM+8YiapWZn71pSvW+PSUjW/etGoyEPiI0VTubEJP6HeWs7+ZnEWU6Q56cgCeyXRWbioM8ZiEUIX27m7HNq9dMTGQQG/o83895oo/NYK3dzNee4HukJXuTYKHKXxaYQA9X+ljMLD+5oZ1BBSMFaMJBcBD04MyLc/XH0u/33ViQC7DCSRpgeQyjEmb4iSxquJSo8NibdVufPihTc6cM5M0nlNEZ6uYpapwKCMs8Dhh74ue+LXpbXNoGbTL7ay8nFNpd1bcnYDHMbvOKnIGDByz59k72bPfTAIqsZdgXdY4GoaI/N/ctP7p09b+5BMrCdDnyGPa+2TKzggYarFMyhs3BfinzS5eNNmKzqSufdwBZenK0pwBVOag7B2I850Ouj2NO/OB+1xDXDPch7F8CJ3RMA48gxnPqsqKNeP/fG1D4r+ybuunz9rGZ2et1GxaTYDpgkBMR5tbmDZ5Z+m8EwoDi7ML+S/t01lNYMc8XxbHZf5tQ+XgoKf402sb8lpllgqsDPimhe6Ee+9Zoui8wqikfXd+Kl2vb3GzZQMV8jgeOOiJ9fnnR/9Gl5nzNdDCw10hmA7TwcqAAiDCqdiMcFzTm9iMXEWVae2zz2xTzlZXXdub9cb1SKAnkFC8J74ur0Cyxhp3E+srbT3SB3DIv6yiZuf8qLCYcFkvJPdd80vNtuy9cBHcTn9+He18ynmB9iB6Xmmz5FuZ4XbthrWl6XRlwkbtls1XpNuqMnb0xRCNR9rPcH3NmgK9zfc/MLt+08r9Yfj+N5FeYY/irXhy2PEdp4zVJC3hOuTHTlDkeme+QNk1AoWxjBkx6JimBQYgA35od8yppSxihqAoXT7wmTGSMt37SsvmuQvWu3rDKgOZ9OIsX7xU4WbjHXeLXIbLwfewXEinzuQCiHFfwKw0DSSIMHOxgnbyO+/wbvb+tND0jtOjjMTbUaFso9LYesVYWkTPtYfBu+9a/+YlVaSuVYR6pUSmb1h73XttMaVGEtm0Q8EAu6nxBX8UMVU8ZlXQnkfHBZ0nBcVVopUr76Cgp63QYeXixGr1OSsfPmKRNIcNGthVaWaSotVKNfGx4k1Fk3YxZjUS+VUqVXz8Hj1wmF+YiUWhOAxMu05anb0yEA+96ajARjhovXqy9csAAQniI/y9PVE6HJpJ8IYZTz7WEFBPs16KQ+LT4mqs2zZQpbp0zjZ++E/W+fgjK7Qa0jQSG5jeKUu7UBmVRizNT74IBJSWVrPt/s0cPmRWr6tMmKlBFoVq6AG5FOEYHJ0mPgUriwSR48gBl6YFeCFtgXg5O+eKayVX7zng+YXAifGRAidmz/ggbpmzgB1LvSsXlYMVaUpVSyRQxnOzNrNYt4WquGrUMXvvbWv84O+td+ojq7Ubuh9ZrLykg4qMJScThqwo/rtB3h6Hk1WBj2UAXI6VbUZKB1mEqcuzugqO+drR8aMWH96vZ5ElQ6WmImFaxApKty7YkUf3Mk0v6FE+4lYAAARkCleVxtoLF60lLWK4sWqRzMiKXqSnDa3OIU7XWdHC7tvnu0cOJeI6VvANjcVURhxngBYuvAfgddFOdKM+I4BTZWIxgWzgMnOJfctGOebAAgc0ivum1WJy2gwjVdQAUPgIwOm3I52BBGT6YWbB3qEtKDzxF/1l4qq4CRwZ6Aqg+bJdejdoEumr/lxx0Tv4VsZ0unTJWu+9Y5sfvS8z74byfqC89wLSH5qgqpS+gQAmNuJhyiDKyaz+FejNnp2X/9JPBDJoXYANW1Y6MBFd8o13QxLc0dntjojJe/bJIJwMXHwdvTTckMSQFlxG2TnpYT70QFobS00NXfMbKL8H8j/kAwKMTgz2mD3CfrZoUBcvWeftd6376admjU2r6d1KuehDWWLlFWBCmbDunvdS7wqRJyFfwko9IQ+yvCD1uLFusLFSYW7eqseO2/jAAQncsK0n8Qop4l3OObv3aaqHrHhPJ0cKThUo2mzY4NPT1jlz1kaStlUBIatziAcDwdwpg1O9syKmbu5eeeMRTB6OgJl33gqwnEE9XDmFiabGRtpMiRqpsnmPGz2Ms3O+TFRHYNYX6LGNX4g6HglsVLH5LiwZhZ/pjwCc1TnnP9/wT+Al5KdCOHvrxNOMS8lP05ve+cIZfgigXCNSZRUGSUMQCAz6NlG8qvK7pOvC1as2+OBDW3/3HRtduWS1fug1Z/UWb89jHB7oRdz1DdoJe9zSI1rQuxOZj+X6jM+7ZUUWtC3Mx6HAXTqvg60+kV8h7/hRVWkxzZJBMomz9yaHzNJVuB8u03vh9hY5AOoYFh8IbXdhTKOEjQQSq5cgMHwQvN5lf5HFmaodUPkUGD5z7qy1fvGWNT780ArXZdZK0NaIrAQM85DREaU/Km7BLN4t0POcSNPjPuof+QC/QchXHJBLm2sirY5VV6IDhyyq0sDCgH6EFrM4Av9MC0016FEbKLiSmLIs5iyurFjz/Q9tKK2jOOxJ05AmpEoQCjQwCUwRihcW4W56vWtlnoYmRgODMg0vAF6omEGqyjTHDJFpCJBMZE5NpFnUVCmKUcWndE1m6t4ORAdNyT2TPzrHdA7pCtoW7VDZxtaEUgRoCADHwVGf6qefA16aZig7cZTET27p5wJFVwrfAUb+DwRSseLKysgVGsoH0qxvXrPhx59Y5/0PrH/+nNV6bZtReLQveY8s4emEqg+IesRQSkuqjop3USZkIqBhjZBEGlRFrjg7o3SXFN7I+tKOWHLf0yuXzZWGsuWSwlUARs/hDFg8Mfq35cLtjJIk2XLedtdseZtp0G4VLkDnWiPtcWVfqGFurm77aHMd9MyuXLT2O+/Y8ltvWnztis3CcwSvvEYgoRmSjpK+97ukweOWxfiLUJqmcHZr0nSfnAkhhXLsy5X3H7CZw4dlTSz4yiuJd7RRxOHt3YjVXqCpBT0vIDEQsjSSRI0AjqvXbPO9921y86bqVSw1HqZVBRTTUfCZORBIPvh5uJ9e7AIFQMERlm/irSPXAez4pUyWvkiFZin7RBVp2O15p0a5UrHK/IItzMwpLWhLaIUjOUBPBau0E216iPuxzDHlAVPCwj6nkB7KX/zGKHZQI2wBxU7TjteITnaPt7AG0XwYbMw+uf1h7IsIYFKj9VSELnUg9vIF6334rjXef98Br9Lr2KyescIIc5vZQ2OieKsIPFyIYKj4xN9nwwyly0mraivdcQ/QKFoFM7dW14sl60k1jPXOUG4szatK/AEP/RwA5Yiv+506/pHq2wkgQ0jgEqWL3nDAjiW5OGdIEN97myB+c1UQCJfqVq/N2L75OVuoqCxkRUwunBGvvWkbSv/gygWrJn2bKfOteFKAx4rVmMERXfGKs29hgHe4z4nbb0set/Q/OYtWFzxP7+sa54JBrqM4lRYWbf7QESvu2+dznelYIk40jXzxGO0dmnJND+YeWw0zqStt4cIFa370sUWNDQc8hn3QAcBmQYEZRPCFnziXqNC5EW4GFvrihC/O2GhY7lQQqry+2TRqDkAgRmRzG8w9xhLShJ/IxO02ZaK3Wf6dRUFZrHPeqjJ3WZOPb+SbfNYvrcBho3KWXhfooTWqMrN0EuYZO7BRAb1jwuNDxPgXWNxxUBS0mhQQFC4A0xUIsUBms9O1rsxvqS6+OOisXEX5Xdpct9bPfmKtn8udP2OFTtNmAAQqvfxkeXnXwfFXQVL3QuWUxqlw0VzRgMKS8iVfWXqyuWZjgatKyyKWq5qZ9aWrALXuIFac+p4eND/i6+ZulgY0QmWObnt+hDSRnjSf9A3thExJy0AuA71sgQLADtM6aD5klTgiqlp1YZ8tCIhpe6TNzk59Yms//YmtvfuWa7oLtCczQVqAr5jJLFfYSpvvyauEex7ox9qC5P1ugB6FGX7kaXCByGzu64Y/FM/JouiNlD7l5/z+g1Y6eMBG8zPSrnkHIYgmCu1GvO4+Tffc27Rw66xocfOqbfz0p9b8wY9tcWNNIKHKXpTuk8CL3k+afqSiTc09BzwBENyBP6ECffHsCiGJ8fnhKfHExFNYbm6I0QglEUjBb5hErG9GZemphifVmkUPHLP5Rx+12Weft+pLr9p4bt5GUWQDVaC+Kn+n1bGBKq3vtgbQKBw6PKhkOABFOorAX0AkoNKJFeUigWdos1N8HCTC0I0AoMoTv8aRR3pP39ZrFdtfVwVWntnaqm2cOW3NTz+yiVx0+byDCQt3VgUQfXZ803fsf0sa49FQfgSzlPGKbJaN2afa6GMZE4BAecBMlaI0yg2B3Uhp3//Cy3bgxVes8PBjZtJ2m0JO9sNoSKCBbuz9EKFVsjKywqXjJ/SOk79Kh4ReptH5PhlKDyZnBoAc0cS23yHvFD85mhSYU8tQoYqAwttZBY5FmbP9Tz6y5vtv2/DTj80E0mi21ahgPaUWB4ig3bIGYYSGrnDDentKY1RW2IzX/OI8FrgscBravLff6ZJGDI4BWOUAPcWloTK1g0ftgRdesfrXX7fBE49ZX2XEjvK0t8KR0pndv3udprsjQ46OilJPEpvVRD7+WCbuVZuTJjIpJAIBMRjVGxNFnKDid+ZwgHMHW4Ti5hz3xSnzCUeI4eekAwwJEOKQ/D52C4ZN+c3nsaqS0MY3ljbF/gpVgQqDeFEmKtWyKllFGkgwm3ifqW5ukvELnO9tUWg/VOZYlZ7NtAeq3Kw83GfWivdQDnydOY4DGu71HECgUrJb20wlsiUB3oJAtUAP7eVLNvzgA9v8+c+t8c67Vm1u+pJJFVWqirQJvkswvxUnOkDQ8BQJpZFcFqjokrzw6qV4epKVD2hsdYVX0b1YcRm2GjZuN5XmjlX6HV/AoCr/ZwRCvkqJ0k7+0VHAmEWGgmCa0uNKWoYy92PxwBCT3N3QgdnTBwCSN4orjrwnTj6eTnFg1RRfZXl2Nqy4LMFUXrtuo1MfWvOtX3gP9fCCTPnNDasrfXRG0Z46VGJo+4TLGJPHkCSfSpiCHOUEqHqYu0IZB+tMB8/q7IJDmq5wxYXyWwVSqc1a8dABmxw+YEWlldWyXQfAt/DyPU9Tq+lRqAAYbTy2sWwbH71nl7//PaufPWsPjGLrl1S5i4ygz8ZXCRzEcEjFMPwDg0P4II0I6ejQ5zn1RbMLZqR642BL/EOrVCXjPGMsVXA0MgcBVULa6+A6tAE3y9AO9P5odsHKB45Y+cRJq33lKStLQkeHH7RkblFARm+qKr40JMCMDg2vaKqEW4NWFU4CQMhhevl+FRwJX87fUbjcZ/l2tB8AryrNiXUJSwKPkbS7wflz1j59yobK3+j6NSsLhOmBndAh4fmKlijPWMcN01Ye646CShQHabS8I3BGG2MYxUgvhPZWHDkTqijFOcFUR3udW7DakQet9vhXrP7ks8qDh80OH7Ge4kjPLm2ZdAKx3D1bgE7oOVGaPKfx0yMU0kfGb1VqokXYAiaALks3WjALNbgGqPxHINSvXrLJJ+9Z/8wp616+Iu1uwwrDvrcjuymP87SFslTmSwvlDAGAGS5BpjxB83ZNWkzL74uSc1aaoEzTg7zdmphwz0MSLyFRo5p1xmVbOPGoVb/zTSt+63Ur7TskVVxpBZeJV+bJPU5Tbd5SsIzDK12+INP2J3b1Rz+w2bVlO6CKNlSFHBSlZfBzFT4wIuRs5xUNSpnEz3cjq4J/AfS4Alqz8JxV/T5PqCZ6IKakrug9pYUKyDuYrWFh0ZI0CWkJ+w5Y4eRxix552GYeesSiYyesxJaMs3OyUCLr6/sBYCnP0IC8l9c7PQR2ehZ2JVNFB/QUF8welrzyNizXTGSm6RHbZEbSlqzT8farZPmmtS5ftO6F8zaQpseK1IsCWJa7Euz5Tma+H4jCow6WMJnQ8oiLgvH0q1Z52gE9Gs1p0yQbFKewLeLEO00UEatHbPU4cY2tJ02VpegLR45Z5fjDVlaaF5962kb79pstKt2zdV8NeKCwY6U1wXQWmI4S2uiUBqWFknVzXqADyPk4RQEUwQNabIZek6ChvbJMsTEMpdmwzsqKNW7etCLtlZ99bIXlG5Z0O8bGUuQh4Oxtl8SectMNxwyVm/uusINZSz5Lm9JdykUR0Uu8uAsE+6Snnh5+8Dk8hWBPy0YZYlGlbu1Y8dx32KJvfs3m/ug7Vj3xiPIZHZzpa/Cf3BTQ1IIelQguK6pC1T6U6fG979vqB+/YTNKzqkwSFgllySb6M9hZHsp6UqkK/udewBi6p3f3YkYxqBfATuSGmHVzc1Y6eNhqx477zmqVEyfM2PFqYclsZtZnNcQCD5pwtjYQB5BUWUmh13nqncxFGri9F5g8QHuROWmq2HZTFfziBUuuX7fuFZm0Ar4xFV6aJE1w1Fu0OBz5mWZnyFeI/EyPt1L6/BYKX4av0U6ourrrtzgXWEhTSpSuAbuMKb3Rgw9YlbSfPGHFA4csmZmzER0ebBkgcJuM6MQJoBec/FGifTaH/PGOCniD8BRQFPfN+l0zTOobN2x46aK1Ll70JpPRxpq02rZrdnuNgCvyjX2HYzn4JBoF0EtKEgTSwpmpUZbGWalI0xOeJxUJkRdfsMP/4o+t+uyL1k/0re658NmDafzn0PSatypsVpJIOi0rvPOOtf7pH615+hObGw+sAuiJwRn5zxQzgA/muAX08INnuvK/PQp6DPKtlVDaRtJ80OZUP0sVG9E2s7jPKmz8srTPDjz6uM0+eMIm0vwKMgvp9ZV4tzGmmvKC/EATcRNfAOiqFlpNq+mbQ8frKzZaXbZiY8P6N65aR2BXaLdYJtjKMWBXdLOXxVDJP9cmC7igHXjeATB+UD7rNL0MIPO5FMqB18JYRs5C6bgwUjwpP3p66ZShR7itClxcWLTi4cNWOnrECnKTI4eteOiQVQ7s92flyqI0sTmZ3gJ/BR3KHYgWAEhIstRVJG21SK+00j4UyPeuXrHelcsWs9zXxoYV2wI6PSc2vi4iEd1jlIGeb8GZgh6jBMhGQC9RnqKZliX8yiq3vp7F5ZolTz9t+77zbVt66TUJi3nrip+CwNmLqfztaWpBj95O2px6Mjt6P/2ptX/yYxteuWiLLt1Yz1cqvgra21eo5CrQDPT4x8HrWEoBDPceqaorrfE2OMu5FicNkMn+xVrdCpLio4pyg3XyBHrR4pLcopV0zpxWiXnfI8FhPUlMtqCQU9pQt2ejZgC9IcDHitMSIqxyXAEhyTcF6OaZwmKTH1aojhUBZoTMyh6uBIni7+mLLSKe4VqVEdXwFiKzb73ny7FjEitZtD+6ecZ9/ej1VUr9GHcHqtzKDWlsE8WJdBfqsxYxtEdpjuYE9ov7bTy/ZInMVpO5zGQQfBrRWy6zuTDoW0nHwdqq0t+wRBpe3NKx05aZrrQralWlmc4T2nx7g1hf356Gu08ZT3j7qfIYDc+bcXTPZ7yoDLFyIt5RmSVKSyyA60lbnnv5ZXvgG982O3rCOsogiuOXy+nepKkFPR+QLJW8d/YzW//RD6331ptW2lyzefF5EdBTKY5VMXyFE2lIXn0c9MS+lHBKMEh2uRczCqAepdoU+hKtQwz/4OhAI6amvS6WGeOzTWQClwUEzOowgE6OtjJxtCeW5arkq/JEl9IAJrFOGPgrR9sPQBc2BleFFwj5oFp9EfQAwlS+qgL5WDi0KMAxzTjeDOJEpLikJ1v3dmT7LUQZsDsXzjVuD2bbH0xeernpLGBoCmn2nlulOVE8qPR6QWmOlH7MdkUMp2/CYOzQREA2st0my6VjyrEKD2l2M921JgJWmnDiGdJJ5Ohc2krkHqLMNiHXQ34pjUgbURDwAj1dwitMqZPK6k0Frf0HrPrkU/bw7/2h2TMvmESA5wF5OA00taDHUIkiqwp/8J7d+NE/2fCTj6ze7/imLEhrdCOkNCOQvKFdhRpMnFAxM+Db65nD4pC0vTFuzntlxdSAAFKZFPginjSYc63KDdF+Be/vHJLBPR/MC0iBMo4svBPeBVLdTwGFgx0A5LkTBEboDMgcXoRKhgvmLC7ccf844V92FHkw6flO8vs0FmaPdANgA4AVFb+hYPWcUgzvEzd+3L/dR0GiXNY+RZ4AelR9eCHcgRjY7b5wQx6Rf3CMp00YUQDcQUphXmbG7ykiMSI6hkKqdK17/MgUjvAKKWfYDhtU0eTTkGZcOnbSTgr0oq99WybuTMgxCnYKaGpBb4YpUY116/zip3bjpz/xZY1mx4nMIDG7Kiz9tgmQlzI5vYhZD1U2/zRISGcVeCTlob2VXVRqwMhXPVH0HVy4T6pSTcalfJaOLA0CDb4BgbYqOhU7ZezwGn4FIPFhK4CejoQRepP1xB0v4HiTb/TzRwBEAEnXjAApvtUz3gkU4sa/cCeEfzuVpMGxX4MPv+CG/ET78q9UiOA5yWSFGciBnzjrgecFYabx5huSSXj4ljn3RE/9p+eKse7rP/HXGckLWjQDu3WkJ1g3E9ou9dtL5DKHWOkY+NmNXYEaKQmlyiukVZDv4xTR3smGVqlqhX0H7dDXvmVzf/AvbLL/UOgMIVOmgKYX9DBNLl+0zZ/8wJbffcuqqzdtTgU6TgaUqyR0JNNHjKBKEMZNiRlcWgfQo6rAFvTwkkGwjNdpv9o7xJi1RBXd186TmRpASakhKSLa27jPvFjMvZ0amadFQOC9s36l9HpOUBnklGCHDJKcvcNR/tF4n+g+SyPFAgWGhTCVid3d+nLMHGnrOeseA3hohj7TAadvcB4+vjrYhKud5Nd6TPjzhbLNy/RiCFKljGPcILMdilaRiyLm9Opc9zE2y/rGF2GQIyimG2LqAk88q3iYaPt6jtBQQL7EEkEGVFa+ce2wF8x45YdnG85jhyOMEP+9RJ50P6oMfUiWOBiALtJEoHt66OXqiVE+iGF8kLiS0mOISp2d0l60Q3/ypzZ55DEbRxUbeOLvfZpe0BsK9D5815Z/8I+2ceojm+s0bU4VYtDv+NgzK9UsGReNjZkjxlVR1VPQo32HwcpUCAc9lbVXC8+pvZVdsapxbzS0UiTtQ5oQmghRZBgKgL41CNm1tGCiMo7MQc9tQ14mTUFvYvYAmqFP+FcNYNCs545eHcSspEJ4AjOZdu1kbI3+0BqD2JpyLbl2f2CdwdA25d/Zft9ukIcCOgc9eeJDZAAQQvQ6RM6GY0bhfiCe0VlTjyY2UxnbrAB3vlyxpUrV9svtq+g8imwhKtuiyvXBxSWBY1ECruRL7NOjTJ6Q3KwH2MP3dMp3skFHB35d+sY47vSNjm7K+jgcoYGOdKRg9tJmmAjkee5T3EIi9gwRbaLkZalI42jHi0sSOkqgb4cgh1jDqbh1keg4lhAr2bhctfjhJ2z/H/8rq73wkneADZQHeyyZ/yyaYtDr2/CNn9jyP33fJ7zvS3o2I/W9yxALVZJSuSbNh0n9wzBFyqu8uCADPblt0HOOSBl7b2UXQAbYZVoUbV3E1rUUj7di7OaZjl4RQnqAHW/vIz2eJMy2ic/zDayNZlCwoY4MbN4cJrYsQFuVFne51bHzjaatDGO73uvZqkCuJTDsKoCwzgphKg74qjCYaRA0Ox6kB49aGheeedw+j/SAdx2BwmkkrYUhKsyYZtCvT7+Tq8uHfZXIDtdq9tDsrD2yMG8n5+fsgXpdAFmW0CtZXeF526a8Gwu8yBlWi3bIl+cuFFxjJhfEA4qU7xXhGRjCpw3MtUm+ElPQm8xvL1Eoa5ziKsDD0f4YM+dc6S0L1HEAHk093jGlOlLSs/FE/KTcbR45Zgt/9C9t6evfsmhp0foSIHsrlf882nOgF6oszBVAyCup3xOz+jEwHqYXzBg4lQGnzsV6JtBS4dbbDdv8//4vVnz7F9ZrNa0Qh2WBmFweGu3TAkTC44dTyIrsCsriE2jvFTnx83zQX9nBgAob8mcsU4b5xWg44RWGKEhzY2l8ZRdgSOomiHzZfKw2UyxUrDcc20qc2M1e3y51unau1baLctd1vaF8bgn4OnLMksBk9v1s5Y+DHZHakZ1BUKT3vwjt8FOQpcuMH7jyGzrDRDOrCrjm5BZUSffLDD9YrdoDc/N2bGmfHZmbs4dmKnaiJhBUBa8r7exA56imdCQyo0fFqg93Ycocgq/INDlp06wTOGFOFsFJ0BSkcdJmOErQ+L5wCneZ0vwR+jkPc+oFkqK37itlutZ/6oIsngr5p/T1i5ENlbaN2XkrPf2MPfWv/43Z8ZPW1T2+zhalYCFXUh3agcUD4oXQJODBpcEQPrR93P5/d2gPgl6gAHoUk/5Ti101CAXpxejSFVNDd8WAbs7JiU3lJKduXrWb//W/2OzH79twwARzMSvvegEF8jP3e09lwW9FvtS6nHcSCNDdZPXsUv7oSKXVCwI65VnqGM9GpwBj2QAqlqNvi+k3ZK6ixV2XRnddYHe93bWr3Z5dlya3OhxaW/nbVyX3TgwcAoM4eEw8e0Mx7aTdzFr8pgz9NPsPp+wIxhGRKzR2ps1J69e9OZn/S/UZ2yct8GStYo/MzNiD9YqdXJixo7M1aYhlm5cvtOaGNjpWpValVt4qm3xUjwthgYLnMyErbwGO0Du610hxU7w8f5RVaKTkEh1BkJccvEEKMFultdd0yQymvhLsoFet2eTYCXv2X/9bsyeetq4ERyL+qQj0aPpg6TOoILOf2sjiCb5ARvDdCyWAXggnhOxPtq7uBt0boBc4Wb/wxJ/pguETQ2V8SYUQNL2RVVXpy+PYBp9+ZCt//b/Z3GefqHDC0ul8tHP0/1b2AxT3KDGIguWh6GFMpJGMpNmRh4HRxPQyVTDVUeaYbeGAICYdSQtq65213tCut3p2tdG1izJVT7dbdnUgjU5aXbM/9MUle/LJF/wk76j95JfylJIhFFwIMy2/kLGB/MYu0G0BhSDghfBgK2yEGre8mHWHuALOpF93GJ5Hmx/tgUfqNXt4cd4eXkD7q0n7wzSu2AGZyJjCLNTgAhFLQi60i+ItfooHxW+eA5nVsKcozRuVPQIQ4PNsId46htrFazxQpqicAb2CjkPlTyzga0Y1Gx08Yo//wR9Z9NLL1jt81LV6Osac53SOJ65I6C9YUXiaUai//tCvwvmO0rortIfb9MRYVFCXojgyLI2qCo58LkWR9aSFsBgjgMcg4zrmR79raz/5oTV/8H2bv3ze1W7ajQA8zJHUEzl5oj8funGPEukaK80+nES2nW/qDFuJ2dlpTRacZ2WW9r6et5R/aG4XpNWdWW/YubVNu9hAw+vbpri2ofxAoqMluqaYkb53Bqeyy9QLIW0TORpKKHuyfecL004vIT96td46hkoF6Zr0yoUHqnxKs1dSLj1DZKbpfFHm7wHxz3GB3aMLs/b0vnl7emneTszVZRZXbEZp9cHWyke3OAB9+etNIvrD36D57VI6d5Gy3CBfcPynpdLzg7hzhzLWO5jnVdIlbY12WWYrdWTix/NLduTFV23x975jg8ef9Gd61duRgyekGxNZ/pAXHij3duZHFhOOuNuff7m050DPtfD0hB/cGQa6Kpt08B43VUoyuSL1u93pWcRUo4lAT5W/NuybNTbs4t/8lQ3ff9sWV25sgRrDN/gOX73xXORFkJ7fizSmzY7uBjFh0QT+o7IDHT2QPthYT725fqZuPYHWxW7fPl1r2ofLqzpu2Pl2x1Zl/jfl10iZ4fkvF3p5xdj6xgcjuymjB14UOu7Msuy2E2eZYFEluOXFfz7hKy7zbcvX7YDTm1RujE4cejBDebjSYz3HxYWhHOnx13VTvKSTpVrVHpXG95gA76FKyb7x0HGZwVVbEM+wDxvzi1nyinVSEvESq9fQ8G8j9otN/dtLlFUmrz/kgfjBeT0FPTlqBhsDKYkOesxA8eE5AvdBoWxxVLeZhx+zg//yz8xeftUXqqWHf6uzBwtLXtJDjl/urx9DOBwIPRBnuPDsbtGeAr1QKOEcdRwpBOCF8UTZPV046E3CyhC9gbEKrzOfzNpqS9X3ymU7/f/736xw6ZwtNtY9e5HMob1Br1Go8iO7v10o9yCVJL0jMZyYb9xXimLyix7NyArVyIZSTFqy7c40G/bp+pp9stmyD1Y37VyzY5vi0p5MM9UHqT36R97GmHTB6y3+dG7mhghNB6K5AMre4VTHnXnJ7eyzL0L4CXiFakt00NVSOM0CzQKmJwMhl8WZCr31MJB3eOgIP410EjYQCq6kfJzR90t65/kDS/bsgUW5JXtm/5I9OD9rdb3FLmfIAF/h2T/zgOT2GG11WpBzAqkU8DwHFXU3e5UA2sVBPbYlIO9QAsgz2Q/esWMHjtj+f/VnVvvW71txYd6XkWeRCtqTmQnk7cQuHAHLAH6UCz+yJysifMVlZ3eL9ijokanKPLnQHkVGiUHphdQLTBtDTQfsBrHkripiOQW9ysqy2Ucf2ad/97cWrd20+V7byxmzDNCj3H15cGcA3b/HQc/Zh/TpnDxxTRazRAwJqF0QuGHG/vzKJft4bc1WpA0vi8spdc8BKvyYCsHX8i3Sf2Y1OOcKBPScVX59hgoB6RiGoATYodo4fV4mhizeFQLyMtDbdtmZKDCOa6jEMy1ej1cwRXWfOOr+9qwOxV7XvBpeBwr1kvKCVroFAehBCY7H5qr2zIF5e/bgPntyYc6O696C8mRGwM/CFQN9dUszwB6hVPeSA9mDsOJe0MLCkZxgUDb5Rd6Rj1kus5IynTTJzKLNfuePbO73/sgqxx6Qtle0oecnW3GqLup1Rg3AE/Ik5HPqB89uVVr8Nrl812hPLRdPRrhkINuVqQ56Ogf4uOuSSTkYrpR3ZCaNyDqyjFSRwZXrq9Y79ak1z57xpX8i2vj0MmDgzO/fhVIIgBfu3atEu52xNFA5kn0S2aBUsBWl72y3a2+vrdsPLl+zH129Ye+ub9rFOLFNfTNQJnuWikeR0kw6L6tSIK3hzHG65hobFYXxcAIcGNURIjSBZ7kWjunVzpvZ+S4RJRaqcOZxOIM/QnCBV0iLVzS/F84h4uyMIkfaSUVo0g/vCPbduclG26jM176ebapSr9Gb3e3ZzXbXh+sM5QGdOgzPYB8Pt0jcp71FWTkh0EKOcBHy0k/8T2VLHVLmcp+2UOoFdQ3N0NvqlCfJwj6LDhy1ytKSFWX6e5OJvvduM/IPDY/8JU/0C+EG0KNMIPIdRzW8mzmW5sQeoTRztolcIvNCBpKd4SWyNYwL8o4Jnvv7Ohn0rSczjk2mfV04CoJPwtOUYG4VNw7pdg9TQRpuqSiwj8YyVWXZdwf21o0V++/nLtlff3bOvn/1ir2xsWYXpL21yrTTqGqPIyslArmxAE2OLBiVWFhVLCzuzwAA5kCTSyRMYmnRbK3NAFd0vPB/i73lKAcdA6JkCLWLhGfBY0LnOvADFOLAHWwAUiAol0N71X29RqX2Hlyd87YzlaOj3inSdslsWsB94oKSEQC03mFZNJSm892x/fxm0/77+Zv2V2ev2feurdnP2wO7JJk65Ps9SCFXts9CjgUXCOihHoQ65BoyzwE9PaUoATNydNBo2mBNInMgvdbrlcqBwd1yrjHq3aBBBt9vDU3OTe1Mu7y7tLdAj4zTIWRKKJidGbh133NYZzAsP2W8J0Qaz4hdwDY2rMwikBROSu6vFyof6kIFm5k9Xz4pNR5ucLf/wn0OvCdAwsGX0kBYF83hRmnxN5kaVS3aajywj1c37IcXr9t3P7tk3zt31X52c8Mu9BLr6lthm/6phiZi1Jh2GLQipq2xdaSqt5gScBuXxMQCAzRq1lyjwb8vsBvoOSvtJlIoRzgxbwZ7/EKsXS/XL2uBS9OxqxR4gWP2P1QnHOkgr3Qkn5SuoJem4EflllOWSatVhfZIh/cSuRTmnJ/IK9YNZHkyNvJhxel1Bfhxp2P/eHXF/tvFG/aXV1ftR8rjK/3Y2oniIYGSTdvzNRoBBoXhPerynxwKwjZoUxBp8Ptb+RXu7waFnAo8hMNrDy8FqYxCW982EY+tn94j90athk3Wls06bb3BXGpyNpQ1VgHe4QtCIowJDDIl3E/LSp5lIWXHu0F7rPd2uzAK3s4EA3lfmWckixzCzEWZHMjW2kzNWt2OeGtsC+WKxTLhOj/+R9v83n+zyuoNMSDFstcoZUIYSjnvmgcufUphuBnPO6qVbM6NCcE5+2OwN8Z4GFtZeVCThjGozdq6gOunFy/ZP1y4KDN2w272R9Ykr1yrw0PlnfIxLKjggfsxQFQAUZ6koacuJ4BpC5wQmCk47Lz/rMzbf/fkY/bagf32zP4DdhRBPJKYGHYFlAKLasX36fB9jeXIb/iSdtHhmClh0ixpEfM2N0zG7dLYK5QUZeqLzw498RWb++M/Nnv+OVuRdFmcPeAdZ+w5griIZSnEFfGTKl1V8rWCBNITeB1+diEk56te44L3XzrtPUy4jXZWQc++lPHIMtV7b4h2BqSrvde1Ya/j04J4e28SMUf3kDYhLSouifnLEzEM2hMyVdUCsBfnTKQ9VEpMpq/ZvBio2OhatZvYvmjWavVFa0jKvr26bv+Pd961vzx/0d4U6F8ajox2Oybd+QR/aSowJCaKPJcLORpYMZx7jjry+llOO2gn2O2k7P61OLG/Pnfa/uv50/bda5ftw37PNqs1K84tWKlctYK06tIw8cVJGSCfiGmHYtpYkg/tEjeQSjSIJNykQWda0l4ij5LiH7elYGwGE7ci5cN31guvOJA4oOtdBsK79kdbYqrFZOzlQ6k497t3h/YY6JEVcmSUn4bcySQEtKUy6x8rpHAe8UwFMW5s2pAdunQeJDFu71Fo4FVCBDcweeymJOkkXQESxTrGhtI+6FjpLA2HFqmyVNnDoFixi/2h/ejGiv31mfP2Nxcu2xsybc8L8JoCTkbTuz9UTLEl/wkt5CknUAg/OABx53VOO+l24Nt5vaH8/Cie2PeW1+wvL1ywv718xd7eaNhNybSkUvexjixaywom1HiaDlCAaKpgKiDmcNC1Y5WZtPE9mP/OkYBeo2mtmzJxuz0f04fVkaRterAVnV7ZQgah89E/9hRlVRrOTp/cNdpjoCdKy9zVX1qfYYPt/HOwoANCqOZSE+nCahvW65mtr1m8sWGT4cDbaxz39iAJxpS2wBiAuE8PUzoBQMwdAJDhOb5oAPvVDvs8tcJM3RqVyD5sNu37l6/a/3bxsv3T1WW72EtsY1iwISZSgUUDaBaAAuBhbnibHvmRupDNt2p86c2cdtBOsLudeIYwZne5G0Ozd9ea9r2LV+27Zy/YG9dXJJhi6zE5n8HzjB9kWBWNFWNpftKS4FvphL6JOZvzMEYwlNveIlimhCneaVl7ZdnG4r8ad5UOOrQ4pY66pifAczNeN7a4awe/bbu7R3sxj7eILAs/sgmgCH1yrsVJo8F8AwBRqa3dtsnKio2kfqMZuYbkvuw1ypiBNssgGWn78LY9QKowFuDJbFAF8W0KBXpesSoV24jK9n6rYf/7pYv2v1+4ZD9eadgFaXcDl7GqOOIutMESvdpiUkLRP9cqfDyeXwS3nTcpA3Jj+2ZOd0zK14m0OWnf60nBPmq07YeXr9vfnbtoP74mgSTg68rMHQn8KA/fSnHUF4/2BQ6xgG/iiyJEgAUtHmlx7CnyeifeHPSsv7Fmw/V1YbfqWKrlYcUq+soKF+cOeDAT1gb3U5ZLOe3uJ3APg54yBw5QZgXzNtRJbwTlKfd1zsBk70KX9JmsSvVuNV1zyhqa9yLR75V4zzOgJ0kv0CsLrAJIwUgyhwqJjVi1QoA2rsx4Z8WHG0377rkL9t3zl6RVtGRClWxYqnpe0G5XmMhEkinFXFwfKCoKZq5ecM5UXukYWDPkD28Fhk3d3s22PUm0X1WTidWkXbO6cEMm65lhaHr47vmL9sa1FfusPbCGMpmhMb6pEp0VSc/Go4HKRmYvZaTvcXuxAIgRcrM4GVrSbllPygWWVYRmmqI0PEQ9DVfh6ICnY7i3d2jPgh7Zhnnr5lmaedBWm154IwyoZTWMxqZN1let2O1IeoqC1r0nyQEbCekJEfy4U3wBcUXcOx2UunJVRkR9zjaVog/X2vbdT8/b909fslPt2JpKXVHaBbuZ0RniHSKqM4mctw/KgXNkXmhOkiahb4ILeUMoaQfb3s2sPU5o5wWG+oyGoTyljXel1V1Rgf58dcO+e+a8/fdT5+zTjbZ1ilUztqOs193cZZhQLK1+KKYe6DqWIMzarvcW0aQEwEkgD7rWvn7dbLMluZy4ZUE9paZ6PXXgk/NOuXC+15hrD4LejkxyKQLs6VqZGToAVFV1VF7zggoigN6w2bBxY8N3QGPPC6aa6bU9SIEVSAcpS4h+CU026F6AU9mRSFpcVHPz6MdXbthfnT5vf3/hml2SCdRBI2C+sSpbEvcdQMcgPY6xPDsUBvczPYZbetd/Keim7zn67ZQuOTlhMWQuo1vu0YtZLliMqRcPvO2rWJbWFkW2pnffFjj8zcVL9r0LV+wdaefXh3o3mrVidVblJOOWbIefZa1s7zC3x4g4Km5iEgHd0JrXBHrrG2bxyCqqiKzVSKwd+HQkTVkqyDWqcVBWwlt3m8n2IOj9MmWZSAZyApj55GaudZONpROp2+Nu16WPr/jgz+9u5v4qYiNy9uVl2AoDgIelAH4kJnRwICVLdqPXt7duXLd/OHfep5Jd1vO2zNlEgDeUH8mEiVJiIvFjUSpe2AtB53JBc3Qf8Vj+BahTiAHbMiSE0AIZJpOavjlt006wu514xookAwBBr0U6r8i0LQyGKhPltsBwPSrYBZXVG1eu2T+euWCfrGzaxoAhK7TxlcNq1yqnaERbLMIw9XxPkWoSoA6jqa71ALxm20FPiqr59ESva0GzC9qdrnSL9NBe7aCH87fuLu090EtrK1vOMb2Hyh95mxcrPpSszwBdmQHsilUdx8r0ng03blhz5YYNOzJtdT8zEYNk2XuEVkf66KktSTNjsYRiPLRynEhLqNmgMm+XhYJ/d/6K/ZUqy1uNpl1RxenALqpYxZE4TUzoMlPXqL2+cnTCUff0gNskH7Db6bYofe7OD+5buMhpi7Le2529uLfcwynPyTpGh7ICSSgZCkLlobLp68E5/fv+8pr91dnz9sMbN21VWl5Z2t78SIJK5c7w8ZIA0vkfAmx3upSb06dfLkkQEwNEYk18Vu+0rXnxnFl305KKwB1TXfxaLPg4CrkwNrRQoL1Sz3WTeLsfOsmSeLdoj4FeVqzoaIAC0Qs9nHSDM/F5UJLpIMCg16vGtKph1wYbN5X/axZLyrIiSPgqZPJeJK8SYmTS4d0ZDGFQBcFUHwjor8Vje3e1YT+6fM3eXNuwK3HsbT5ovCatwk0oZ5ztFFIBfaOfWwAv5GQAvPBzSp9vOf0LemB4L6dA5Gnmbqet+/rzSqQj5bo1NAjSPUap8FpLl2f7A/vZjWX70bUb9kmrY2vSlBLKS3yAJ+jh7q9/6//3DGGBYElUpI3WVc/a169a3Fy32KTVEn8sFP1C0om754bO5HQzdHJkGXN3yctrL1Gq6Hn2bB09u0KWuZSgZkviYMaaTMC42bJxvy8gADjIfL7Zw4aa0kC3fiQtdiLGn7CgWbVqg1rNromh3rl+3X564YJdlAmxOUisz3M3IZy3XHKix3rxuWDYsym9jwh+A7nknEflQpGl1V+aoApvQ1rdqdV1e+PCJXv75rJdEh/H1bqvkpP0hymQpmBLmafXeLbVjoj7kol656aq4lRgU6h224abDSt0ulZRfWQtvu0VyEP84NXQsZGdKx/S490kasyeIvLDnQras8sLPCUynoMy15fopvAFeIO1dRvJtGVsGm34+ODb/KWZv7dIElNx85F1AjNAr1Qo27hWt1Wl58PNDfvHSxfsx1eu26VhYm3M+q0GOGWAuC/VBXRJBdtzRXhfESWRcSiwV9KPfUlC2QT+83dkgaDdbwgXPt7s2D8J9ND4PpL215CpWyxV9J180MsZznlJ6ySrAl4v5Ae/L5M8XI+bYB0gTkLHYX911esflkcFS2QULJagrOgrT/92XLkkKWly7hrt+RoTJt/TLiBu0TkZ6lwQctZsc9PilTWb0IlBO4rndegNBTb3HtFKSRO2zpJEmmnJitWabSpNH8lE/8nli/bzm6t2Rc/bALcqA6sV+yBsOb7HDE1rRTjmdFfJi0E/Sidzn0sqv6HKlKlrp7uxvSW+/cXqmp1vSGsS687OzPvUNPb28E2I0s9uIS/uL7fMCQ0NjQ5+ptExfGXU69hwfc2KjU09iK0sbYPxoVncPE/SBKAh7oW2vIz2GOgFoHJHBitzsxVHXC3WGz7PT+de/yVhmHbmszCGrPQQ2hC8n0lgwNVeJN99TY59CKw+4yuinN7YtJ9dviLT9oZdF+90YaIoUgmpiJRYCsq3vcxAzoWAjFzyIae7R+Q/vCkXuM/1s/BsJ/+pvH3QPGVejKyrWxdaXXvr2rK9I63+ss7HtRlZxxKJtPWqYLMFPbMydv7ndxfYmiXNEmlzHIvM8RwNLWZsrExc1rCENxl3GOruDoVDcQXs3Okyc3eT9qSmt7NMnZmo7DpmkiMwgSq9Mrsv09ZabStLtaZTIOxarzKRI/P3ItFWw54WjOXqlCM72+rYm1ev25vXl+1ix6yHjV6p6h+JF7Cl5jzfbeWNTpgaBP/5RU53nRDSQeTCgaFMdpYXXevCDWOfZsboNUYTb9976+o1e1fHq4PY+ls8m2p6XPs9AYnQLvDAl1veoe4F8xyloyymY1PwUXPTxmsycbussUdPLfV0Z9xCGoDAsJyULrwS4+4e7UnQy7KEzEq5xV3WXgD5Qo+djvXWpGKnjaklJI239emFPQp4RA55SEcEPbVX+kN7e3nV3pbE/6wRm+SmNEBa/FheSswyYnoZXwj/0rRDpM57fpUhezWl9wXtKBOnLTsufaDC2RLWcgxKZww57brsrbEsdv2k0bQ3VlbtreWb1pIwZEXwsAcJ36Dp6cvUDwe8L13VIw6gtZyYkAVYGWc6ajQskXluTXGtTNyt+e5bwJaC3o7oZh0bd5P2HOiRQcFlILedRWRg4Cmp0kli407bBlKvS/2BDwz11UrQjPipgLwA9iLJbGFsU1vR/Wx9UybtTTu92bZVKQhs6GMMFGbVDRjM4TGAZBjaIOecFA738kbl00HitazTIi2XcDc93WZfv2Y172ISG5tqM5pUhqFdk8b35uaGvXHpkm0y0F687Xs1693sO+dpv7oLpDT4qAilk72lqWtRovjJwkrWN2zcbNs4jr3N2Ts80h9J9+SnmbGzmepu0p4CvTRv3BGxndeBwhWgRyfAQJnOwoYM7iwDeHqMCeBjirZ8+F1QFqvMKVwdcDtubRPP0lMI84YdyzYE1p8tr9hnqxu2Gk9sUK7ZuFzxQcbG4pM6YOnCQN62R3sQphFH/NRzXE53j0L1RsACfOlN0fYpBaV34AkcvCvT0Gc4qEwn5ZKx6OvZbs/eu37dlnt964qfR6j1XsBB4/Nvtzy51f1yM87O51+c8IUU+nAVAbRbIDS59HoycZuWsIQ8dRBg5H2PcMgB/gPdmcG/lZa7SMRxzxDazFiVmuW1uSqPh6r4rDSiiEpzo+F/JFdRrtb7bWtdPGuTzTVJnYEvZthhzmOl4u0HRXpGYZxdIoxSlq2nRFkhhf1AFYru01MszbMoRi2Jmctiaqmj9CSXMMFlcidCr5h3dFkaRzYqz8isKdkbZy7ZT05fsEu92DoeSNF77iLZDywqOZwMpQmMFBYso4/pHWNfWklZbjkT7V4Sc/pnEDp4WNBf5UNZ6ODHrYOXku8tKzlmAx2HuhPrnvd2YrHoflfFeq5n9j+99Yn9uFew7syCb0FZGAxkOephUfWCoU3sZ6waEekbhCLtbExhHBfhT/ksxuAeA/t3c/ECLKuEuCqsUVSycrVktVHfyqvXbXjtso021i2ijip2YQUhLC/a2QWOigbADFezj1pYJ/Pu0Z4CvYyyihykKAXnuaYjWaoMo51LzMAASdabI4uh7Dug6JYGsF2joLKHGBEXOQXK0QtWZzBwUQzKRsi+AbfiitpfjcpWZiyTfuti4jPtlrsbkpAAHjNxAXqWk2Jyt6chIwINAbjLnsA6uN9FSnPafUqL73PLi3vMpL7cbHlP/tVOx/miUJUQh2/Ggkk0xExLTL/JCO3Ka4sfw9Nw3D1yDNW/rGpxmQz71hcfJ9RF8XpWF2+lnbzsnoTzu0R7D/RCeanwUsDbyqQUYEAVgcak07Wk1ZIpGHszlycE1Evz3PfgzFBwFwitDlnqIRE/DwiHfqq7xFdu4o0WvMMgVRnZOmdzQTdT9Yj5tjf6XXtnbc1OySxgJQ6YfUS3Hv6JqdEACq4tBsrywQeH6jp9Mwe8KSM0wJsSgh+vr9rp9Q1blkY/qlYD6NEOmGpO8FE2ogEeYWUery+0uek6c7tH4kXCSjsq6GRhyiP3Yikd/WbDhhusupLtQBi4Eg6+lT93N1b/XKL+7BkKWRKyys8pSM485yhUQQ8mY79v482GxY2GA6CPaeIbCiLNZe/eD6e7QPJdYWRrhBG3IFFT4nyL6Zh8rbB1rySNL6InVkzJggCJGEIxt8uS4u+srNi5bs+a+pyFFLxnDLU/k+IwtXvuocnXzO0INzzKaUpIRqy3752Spvfx6ppd7A6sK/6hDZfl5X11HglDmndDhwA8J57wehJ4E4YIvBm4Z9co4zXCVT2jfqFsjBKBnurhkKErvZ6VxeNpLPjKz3aSonrXaU+BHpSZi+nVtqMgVehMzrde10bra95lzvpeDNtwMHDQ2+XCTglft4qTuPidEFe/66An1hOAJfRsKS6lUsnnVI4TAZ6AkJ66tWFs5xtNO7W+aTcHLPWumMPY7kcad3no8tKTHcIMtH3u/0MUcpoSojmQhSWuC+w+W9u0c42ubcSM/AtT+ekoYCEWwMZ5Qw4+wEEI5sA3GWPsHnMggmm/9P+p175RvurjqN20RPXRZOZyvV0Hg4j2+rIjKsT7btIeA72QteQZMHbLEtpoQbR1AXoyC4eShBOWhufal7IQJKUZ6/1dvjNQuN5NCiCHxhmO2WDMDPzQOrNZE4yvAvziWPGLKtYtle28TPIzy6u23O5bHw6V4YukznrEiDads1IMSYWngWNw/NL7IbT0mNM0kFsTpch6KuDr4g9A72Z36MOYEJ5h2AiMIV4LEjHwna7hiSTtvNjJJbtFgfdUszxMeK4gS0ZQzGrK/a6NAT22h2T+rUNvSM/223uH9hjohaJKy3PLeUF6BlLgArlux0Gv0OsLJEJx8At5XDA2yGYKT7jxuyCFlobrZkYajAeve3RY0EQ3Gkv1Hw5cUhfq8zJdyvbh6rqDHgNTYQd2z2fsIeIT/GTPjzAQdNtHKIQWZC0sxSfbz8M7OU0BqWBpO14fjuxMs2sXGh1rqsBHlZqNCmVGhvgoAJQCL3msH3EY/MgOevDjrrND6h88hwuLeXCiWCjMsqwto6lpdSVETm/xHjELqkDwwO/plOPdpD0HelnWOvClYBcyDkLDGtu417N4s2HlOPbR4WHqD6CnCzk6MQoMe9lF0MMnj4lL2XCPAry1EMV00jzLihTaGr1sTNIuVCrWUYIutTp2aqNlN4fEmG+VFqUHhnUw4+jJTz3NjuHC3wv5kt724tNFTtNBKlSWjaftuCHeOSdL5tTaqt0c0LZX8uaREdaPzgE9yh5YoXODWhB4Qnd1krndpeAhoxN8synCVjRKjDhoNq1z82aq6VFjw7vhGFx2727TngI9z5q0UpNdIcvk/F6WeQIMaU9Jty1zMMxlZFYCsOEgpz/fCYz2BrzYFcoKLTBXwcfNhQLMNL1wBehJr6PnlfjqWIqkyVWrttkf2KX1hl2TucJkc7aohSsT/Zio7QCqW/SKwVBMQ0MTDAUkvzIOJk3utk7kcpoWYhYGbcEMxLrR79v59XWZuF1rS9iypMZEzwqAjhe7+MyFMJyjq5QdOARI3EXKwtORsaR+RdjiS+rhWNZXlx5cnd9OHkcd4eBwtqsx+61pT4EeWcKCAcG6E7h4wxbAACiEOX/srt7f3PSl4X14sJuFaabqHxqfN7Dqnk53meRvGka2AkwoQG5K+k4kcwlX4fszHpUZbF22G62Wfba+ZpdlCjD+ytmUz9Fc6ZHmgj99j7QP5C+4N36aHf2cf7yXPcjp3ieVJfzAT8DSHk3scrNtpzeatq6qyhaT7G1MDz+D3+FDmn7G3u4tc1fPQlsfHONcszukaHknnQticd2EIVW0oUuoj4q+OVC537PO8nWzjVUrJezErBgxdIvolEYWjwd4ksbv7vLs3gI9ZQoAUCxR0emppWBH6EJewGygMhYDdFdXpel1w34YAkbvshdS+oZe8oZ2MhY0hIF2hwIzZXMsg5kZCi4UIsxAMYeOF4+98y8j8QveYXFDzHuh2bDrY4GePkmbPoID5Dyu4QaaK/mg3PAfaXfK3nfHP6XRDeX0eU73PomvklGc8nLB1npD+2R1w5Z1o1Cp+5aL7LpmhVi8JqtH/DayijggdIg5P+q7jE12i/CbzaMUgiUCMMaRAmqlpGwVsWCkOHVXrlvn2iUrDTpWARABSdJRTCye9OQLw248iXeV9hbokbE05FN4/ARkNNcyFIXeUpCCXc8Sqf0UK8XL/8zx/ZdGXnC/HB530NS8bYZzuV6cWFMaam8wVBLuconntHcJ5gElcCnRKdeUVdNod2yYsEgBz6m22+9AAIm79Pp3TXCxOwW4Ve1UR/tMGGA3OJf61AXeEjjK2mEqqbe732XaU6BHdvjqwACcjrRfOAMIQHwD7yELFzZs2G4LBFPNSCVNtkJ8/7uRIpmnITxCQtkP2h8ufSbnbYyAszRQem1jFfTmoG/LzU1rMb6QxQRyyulzqWBRFInli6oCWD2045mttpp2Y2PdOuJ/DFvqxE6Ay0DHDzvu/y4Iv905G2eqB6dSTGRddddWrdBpUwl0U3VAdQGgK5VCuvxV6vRdpL2l6YkAkbG0IQQEq7QCaWh5FR4OBpYI9EbKVCbzZ+vMZeOBfPrXjkLYXfKQCEzH4Bz6AD0e+x0fdedSDtOW3dtixY3VVG42Wz6p3PE8vJ5TTreQ8w/aEGwmh1hnatp6f2Q3xfesvoKmR+9uxoNB5AdbRxan3w13vlyifY+1H/sMJZO2xz4avqiq7nvHnPf4ki6uv+zY3Up7DvQoLXYHA/QSlSDZ4+OMySiWslHh01PElBwKOnzCWQAh/+n2bmMeWLflFIZLOC78nHvhP30oMJ9nbaHkPW6rMsdvykRhjq1/5y6nnG4jAIHeT6wY8ZC4yVts6e1fkXXTiWO3HljMYouHdAi8t4MTubfLLBZ8Do5/eB+uOQuBlbBw6MFlzJ4UlPRtJYtGKjr6MNqkqOSgt00AFvnkmSNH8xfnLFnjUxTaHRsrQ1nHC9BjjBKF60vokLG6cMBLi+N3Qds+bxe2/1fAhEuGusRVnOnUoBNjbdCz9cHQTZUAhnsq23PaQ8QSTgh45zG3dAouLNd73RT0xG2pNhi4T/zoEl5v+r1w7v+zF3aR8DKEAQWO9ysFzmypsbS8McCn+PrAaeomGD7Wu9lnd5n2Vu1LS4ruC0xW+iYhBz0xg5GhcmwC5OatGwB8ForCe1f9PKPdzuVf9g+gDeSR91VgiAVjmRhE2tf15nBoLYnskB5GLe+MY045bZOvXpLysA/MLzNmz2xT1kJ7GFsMILrQ1DtiuRTedCXQ0TO+9Du/MxbLahuh6D+g5jSxErzf6wRtr9MWyI18zKFHRlWVdNGel7fp7SRlBmDBVCykWRioosykdwApB+jJTGSz4a2ODP57Hoai+B2W9g5SfFLNcmebHvFBffeYKA2YIn1pqE1peUhryDXAcOb/c8ppJ8EVzGmlpxM+83ZhnQF4XTryMA958Tb+cZ7zJ+EptH22iyRPXaNM61kGgdzD+iqJ1+PNTRvLHGd2EstikQ43cZWWUL/vLuzc3dBvJ2WcW/8MW0HKhVt+jnkbS9qNBgMrjMLOZ67V8zwtgJ3qvVQuv/flUWhjpOc2ZQNFY2JDXfcUX6R1MH65nUY8p5x2UOAbszL8j6WgC9r0GLM30MlA1s5oC/QC8Y679Ppukk8SYIVlmbbxoOcKAABHmlBeqMd+nWt6O0io5T0+49jH5kWjoqSH7rPIAIN6r1+zertrc6WKmKFssZiDlSX0mjJWqrSgJYxUZzZiOtzld0Lo6vTOiiEVNtKOBUN9kHK5Yom4sCBOreohmmAvib09DxgujmGCO49XJhlxtVrtFobhnpsPKfEse84xLG1V9uOdMhpxC/Hb8X52+Wud/rmjMGArOTR2HA3vW/fDB5/3y579slP6C5FFhaqVCxWVbLosK/4qD5RARqSbRXL0evlSNalTnEKDCfMJ+JL+deLxmynL3515t/OaIy57j2OW39lzyoz7d0IOXPJ6KF73WTpiGMZ1EhzANtA1y83DR95bqvOyLnCh8yy8GGLnV7tEiHM5lR9NSKWx0io+JshRUSCsgPy+XKVUtsbysg2Wb9pMq2FVeF9Cf6R88XpCYz3uLtKdlcaXTC4VlC/Onjr67IpB3wZSmQtSn4m0F4IXRPjCP3B2yDKU578LCr4SR8LeCs1PdEMVLSxCQBqCo9s+xIxf+t4dUlaxoExDpFJllWznefZuds37v11vWZqnnsOEmcaTz+VIYygXVTQ9CnNQgvN9SeSyNEO+vqESHu6l36c/zm53v/oZ/9FwBAQIQB0Rbiwo67uLMd8Zh5btYW7Hw7/WP87QxfkyvXvHtDNvM5dRBmhZHt/+nPsAYfbebyJ4yjvwyHCulX947VihtPoQEB7oPU+JLnC30+fd+0K0lSRKKPz42+pE4afIk8ohC4Korpb63TB0RTkf5pYr7mk+3U26s5L4EsmzBKbhT85nYrCeTqdjiUzbUSwpKOZO39wudJzeT//9zgjft10WcEYUrwpWD32qGs90XhIQktE8w936za8mKg9MkjFKItOBcwaw7gS1jLjmm50V0dsYd1TC30zZuyGF2XV2hs+AXKQwykoXztd500OCyfIkQEzmuP4VTvnk0dvh3B8FxBxqd9Lc2P4Srdo1a73g6ZRjMDvgGylYHFMVcVgI3otO3gk5wlxpOddMtvPs1xH5l7nbKcvnnWWUCRjuIXg4p8x2ltGvI0LJnGeEO/zWfwc/yjLNL57ouOV07cI2Pf/dkHxO/d8K45YTOfJaQMfMqVG3j6rqi58qE/RIafHf3aVQO/YIhWwLP/KJyLn2wDr8raYlfWUkkgPNj8LnPb3jUmfrSn6Ew65SCMGD3QZaUSbp/FwuW+GFOMCEpKMq04u0wPosJ/XbxC+rcFQkRrdn51BWmXZWPCg7Qjyjct6pprGdp/ix7Q9nhEYM2H0rURqDC0DkTh/eUvF0dL/8n5ze97zBAWRyDEBnh620dWDLhfd07k7nbhoDbxX5xVxTjlFwxeAKcgFmQ1yzFIRUpCmgfNI7d0LkZQZmGZGnWRlktBMAOWbaHd8mdwp8aT5t5R+XOveQdCOsEB74PvxCfmfrTd6SKv9otwift53HL/WfQwiZeCn3GWeo+hp32mGzICksPvoCwNuRh3eT4KQ9RGnG6M+BRXd8A+84tgHj84YDz1QyOYBOUKlxXIYVJ0Ix/K4In9EgvA1FzqNBfDhTpFQ9QkXVi1ypvlqtHHl1dQoRv2PKGGVnJYuVH1Sier1uBw4csCNHjtjs7KxVKgIDvZ9N/ckqXkIDeAqYv45IA5WqRLx1zJg5JDp1AiSqbyz/2PODNidfDivUPi8L2jEFAXqLJZBoy8mO+MyCDNvOPSTDQL4dzsd1ZQ6Lls3PFWaJ8sfJtHVA0TmdRQO5/ljp1OcjgDREZ6tyKrBb3R0QeYkjL3E7gS0rFzS6xcVFL4eZmRm/R/mQ35THb2PaOmXx9TB1UDjkEsvER0oXVoPzkFywJiglnH/k/3+rRN4hpUE6Zb7fGgKxCKVLRyPmbdJoGoOUK6QFLdW/COm6m1T6i7/4i/+Unu8BUrbReEEmqdowJScaxTJtW9Y6e8aGF85brdnwzHWG8C+2f1x5QezI1N3K36zycAgVWmGllcvveXkKAFS4vnuVPoANGsWSb+d39saKtfXOAKnHB65x3BlllY5KTiXjCMh99atftT/7sz+zP//zP7cTJ074O20xW0+mRVZZqXRQVknvhHgzc07E10knW4gezr2DoFCSK6tilmXKBFeRY/cub3sDRMmXX+EiaXzeRvirnIIsZ/5IU8b50kaYqcrzbO1CnYS44vjHdbj4ZxP5TR5yBMjIe/KS/D98+LA9//zz9v9v782+JEmuM78bEe6x5V6VWfu+9obuBkAQaILEOuTBcD0gxSE1PJqRhn+AzpEe+SLNHyDpeYZPfNDRMnMkDjkPHGAIEkNQXEAQINFoAA30vlR3VXUtucXiHqHvd80tIjIrqyu7K6szGuVfpKW7m5ubm1+79tm95ubuX/7yl+2ZZ56xI0eOuOxvqYOOHU+09nYlf4oKP3Ipog9JVp1+ny7DjjbMnjlxwi7qvA3Jq+qypRqUv84Tr9TPohXW+R+W94+YP//dqhxHqJxoOmcOespcwkFr1lrLK9Y8fNSqcwvGl4HjMAjYhTQeGKaM9NQ7S0GoKv/cnITkr6Jeu2U3fvCc5a+/bjMiEIvjMhIg5OhTVqgIMtCSFWRbyHdvUGQW8g3/Y+UzfuSvzNGJsfQi6fFbE+m93emK9N6yW7KKNqWkXtL3QELIAcSGw/Ly5cv2K7/yK/Zbv/Vb9slPftIef/xxO3XqlM3Pz7ulsbq6ar1ez+UZLY1dN7ztYXRYiKA8k9OKuGYC7wDh6VBeBdav5LK4FK9TBxdWAbloOWTuFusQuBowbxIJLxG7e+AuvX9kXSEnQIEi2/F3VAjIVuXyZfFTkUMp3zu4vih7SCzKD7L76Z/+ae9sfuM3fsN+6Zd+yT72sY/ZmTNnrNPp2JUrV+zmzZuenuOpg12BssIKOg2E569usr61FXV6vmXPqGM722yEL6JJzgDSQw/dunadKwiIvLy4ofz3i5hLyJ3MwzaLYMURVG79y2S45I2WNZeWrXXkqNnSkoiQKg966O+c3EdMHekBVzb9XIV5d9jtm3b12e+avXXF2psbSFkKj+ipaEiPikcBiuOLsGcoMiN/Nyr8zKGaiYukh0pQrqoas/TAy9WRa3u9lznpsdz0o0m5u4qfbHix0eE2feITn7Bf/MVf9MY3Nzdny8vLbmkcO3ZMOrbkx3TlWmB5RAtlVyiudQuImwxeduSvPF3hg1vMmJM7rcXSd2uBzGoSFGM7dRFUQ8uGLMGmlq1qEkJN21o2RKakqWvJzZJUy0Tb2D2BBCADdINtyUbncCMvnkfXTQhF9eYZdrAYlX93wLoDsePAjb1w4YJ9+tOfti996Uv2hS98wS095M4+6uHq1av2ox/9yN58800/NuaxK6hsgfS4vnCdqbqQ2dTs3NKifUqW3kncZZ50kHBDp8tBul5dYtG1abO4bv8f1u4XnpMqU0Xy8yFRH1rSj7ofkZ7+c/e5lzSsvnDQZo4dNzu4rE5L6dTRhRcQUMa9Kdf7QWV9fT1oxJTAyUDCDP21GsnGbbM3Xrbv/4f/x2rP/9BWRIBDMQyWBKRSZW6cllgVfEjb64RKKAhiL0BFkxtjKDX5s8yL4kyZrBQG7xP1bKnHDdQvZ1Zr1C3vUYbErjVn7Ns3b9n/9dfftG/duGVXUFcdkzEP6x7YSTFQGBrXb//2b9vv/u7vOulBajQu0m9sbNhrr71m3/72t+3rX/+6feMb37AXX3zR3V7S3QvxjC49P7/WthWDTdzOVGsQWFPnbimwbCg4YWl/XfWUSCYMUxCYdJtqvy+LuODyhEZE3ee6Pv+YNEvF+bqWXbWkHq/rUsK+5O1jeHlmnYyxvIH1lB63iqcWuEqCf3OEfHVM0KvxcjdAphAe7i2dymOPPWaf/exn7ad+6qfskUcecYuv0WiMZI+F/Yd/+If2+7//+/a1r33NLW3utJMHIXZa74YKVrDSJcPUdbthHTvYrNmnTx6x/04E+ySFz7uSnToynZNvJmPt1XShBO8F/Kq5/hHt3zfIhZuKufLkKRHy9c7Gf7jaBGJ5aW7Fbs8s2fzlJ+3oZz9n9pGnbCNRvad1HweOnch+YapIzwtCRWkF0ktEZunqO2Y//r59/4//X6u9/KId3FhzxcCV8qpQGpY+qOv1Sy5FVe/RlXmPqiVkhWIxJQL4nUvFQXipWhmNrOekl1reD6S82pyzH6937d9/8+/ta29csZfU4MkvzqynnFsaoiI8TkKgIekvNBYtsSBzNfLl5RX73X/1r+xf/ov/1h599BEnBj+UxGHNVK/23e9+177yla/YX4r4nn32WXv77be8Ycb8SM86m5wovMdN6whS1wJQ70TaXZeSNiX3hiyRWZHAvBrzjK5lQZbsQr1hiwoLskBnpNjBehvYUsu07LvlhbUG2fFWa6w3J0HOyem4EaIfV+FkR5l8O6zTeDcYGlDoSm6dQW7r/cxW+z1b03JNMtkQIa4rnyvqWDa15DOK64rbVOBYjoM0cbMQNjUaVvVf+Y+gbfZ5lHbNzLbthNzKp55+yj73uc/b57/wRR8/bTSaluncmYi31Wy6HLmYr371q/Zv/82/tf/4H//YNjc2g1xDVqP/cRExOntRDurB31Ksepizrp2cbdgXLpyxf/bIZbvETal+R64ic9/odMcE5DMdOF4xnCKQ3t4g5htJDx3hfJzXP8HqRog29KcWYLcbczZ7+pKtfOazlqhj3my1ZMUm3qm5jItr3Q9MF+lRSWoQ9AapCKNBQ7n6mtnf/IW98OdftfzqFZvLe1ZXL1jLqHD17jXGjpQeC8yJR0E1ES5KCrcnV0dFU5+yQFVhk64s/FAb0NOKiLXepaeVmTMciFwGmazStsrXtj/5wY/s9597zr6pNGru7v7yCq1Q98pL1wz8mUvFDZiWo3MliZRa50FZ6vXEet3MTp8+Y//Df/8/2u/8s9+xAytL1s26VlU6GgsFRaGYP8c53n7rLXvuue/Zv/93/7d99T9/xd54/Q25vBs6kawsERB3P3ORAa8rqshqGYhAQqGGNquCLGq5IrI72mrYiZm2L4/Oztqx2Rmbk6U7L4KfU7na6smx+hTlMsLFomOCuJwQCgQiV9linBaxtsBkY9jSMLg2IRBhGAPkI0yBJHGpGBtUJ9PL7JZk9NZmz95Y69grIp5X5OK/sdmxt7oduyELEUtRtoYv6XyQhQeKkYuklX8jFTmrHj/69JP2pV/+JfsnX/oFu/zoY9ZozioRzntVpIf1llujnlpfxyVy0f/+238v0vs39gd/8AfW07n5Kp9bsiqnXzPnKNa5OigxXGa4VubipepUqG+8gVMq3qeW5u1XVY6fOrJiB0V4A50LLxhpeIaStVu1CrWB3N+cJ1YY85SU3PK7f6DnALnRTnUqdf7yMBQgwTDIwXheZqk6QLVSa88vW/LMp2zul/6p9ZYP2YbqJE0b3vkx33a/MF1jeggTDZAyYun55NPVWzZ89UW79fILNtzk3fuMZ2ivGveI4FQDYRA3VE6soKBSe4MwdqK2oZoNzW98LhSAMzkx4p5AKDQLylVl2kLDbqqBvLi26l+4yro8ZqeeUYHxL89Pyu6NQtvkxSrw7+Dq5zJBWURQx48ds8/IzXr8I09Yvd2wihoJLzhw0pN8mBzqzyeLgWabdTuwOC+iPGXHj5/wRnjl2lVbpxw6vxL5WAs00Oj17aDiLg4z+6n5lv3ckWX7+ZPH7efPnLTPafnMsSP28UMrdmF+xg43ErlddVuQKw/hJU5KIh8ReabQyyBSlcvLpEYh4fgdbS3xsj1dprNSBKVzi12BB9NdIsWSbb8bkovUi8mAPrZH0I/z1pUOwm1J7nO6lhWV6cRsyy4emLOPrCyqzEv208vz9iltP3Ngxo6mIqyNVZ8CA4Ey/WVYo4MSQaieh82GzR1ctt/+5//CfvM3/2v73Ge+aI9cuGytRtsqXJdkm6p0qXq/OiwPialeKMvtmzftB997zp79x++6pScK8n1YQX7DTcdtAefTAt3xdW3UZD1XRB4U54iinzq8bB87ecIOiVzrvU3vEFVtAkcqUIQi4F14p8Ie8tx+vvcLzwuwEtpVUUM6D+cLCSDtqsifRzETkZ+U1Zrnzttwdk5ehnQefSN90cnvB6aO9ELFByJwq+rWO5a/9GO7/fJLVuluOulBKZAecob0qFgGUIOpTWVTAYT4/z5Bnr6kakPwOG0HxQrn8fXQBTvhYRHS4yaY9XL7rnV7/gblTVkjauueJ9MxfOyag9D4Im9f13Uw9qGsnPScDNWALl68YJ/9/Gft0qOXRKipdtGgfDackyh2iCiYHCVEWSxyv+bViA/JLTsi4mNMcMBcstVVEV1XjSmxc/Oz9uR8UyS3bJ8/fsB+5vgR+6Qsi6cPLtrluZadEskd0gUtyqpuV2Xd0OATdUo0eqxKlZUzBunQ8IpBa5VX7cCBNQmJ870ErKKkJotd5YMMw0VvC8Tr2jkcCy/TtfG5TF8qDsvarxSd0ZJAg6dzqEuwrVRuuK7tgNzuQyLoo83UTrabdnZpyR49dNgeXTlgZ+aadrBesVRuo5jZDiwdsE8+84z9xn/1W/ZrX/51e/Jjn7BDR49JhrKCOZdYmvoKV6tSUE0KWO1YMF1ZlC/8+Mf27Hf+0W7fujnqjAkBVOYE4g5PpH/qwOD4uizuBUVdkmv7M+qwHl05aHPS/bqsepL5DY8tBwMkAEjgK3uHUX6sjEkPqYfz0WKLLZWNO7jVVF0D455nzlh1fsE7bJ6X9qxc1/cHU0Z64Z9/+5MNCS5557p1f/y8rb76slX7Xbm96i1oVFImbxPSOFwpSA/l4zBvQwUmVt8/yLNYkl/IUw26sDKDChRpVOHeMLQK+XjdiqBrjaaty7K4efu23VjbsNuKZs4tViHERDq39ARUh1V/LQ/n1obv0j8ey3rqqSdl6X3Gzl085+Ni3MnjXWbx+6eep5SLUhAY7E5k/czMzduRAwfsrKy1BVkLc2u37YQsiqcWZu1zx4/a504dt4/Lqri8tGinlfZwS2Sp87WUdyLrj7uG6m10ObiXCrp23Mxw80Fr9PLadheXf1QI5ac4bCIUGquWoe4orK4NAlHa0ImI3uK674HuQj66DL80snGuVQboCZ1gIBfWlEjriAIiYrzQ5aa9dcYa1UksyQI52W7Z2fk5O7e4YKdmZP2pfk7Pz9tHz1+wX/z85+3Lcmkva31e+2uyDHm9E691qvJ0jerFhyEQNxchsvOOWoXjJaCvvPSy/cN3vuNjqJyXa/QL2AkxmiUX10gxg60lgjhZr9rHj6rzkZV3TISdyrXlWRS/CxqOEjgwEmv4uVwVkPmeYSKvInv9cwFoSYUq+AlDXfEpGB+DVmfbPHXaEnUmudoB04xCuZDJ/gD9mR64HLw/VUBhJVTeIcaAsCwTt+glMBqCj6fpp0UgOwUq+0GJknryuirgiuWgAKGhekGk/Fg30TLDesh7HWtVcremnjp4wI7PNl3wGKs0pp4yg8qhSY5hnwflF+hF+SkCyylVo105sGyLcheY2hFcDMoWxqf8KQltZbKkcgUfdMafXN+w+u1bttzZsCfUgL4g1/XXzp603zx/2n799HH75aMr9plDy3axPWNHmm2b13nqCFPX4k886Hp60lbebJMTdO7geioNPqpItJLLrR72VR7edqOlrMJKIjlg8mrdn3sV1Q+UJlfIBj01jr7iRZiEYgxqFJSe40ahqGi/ZskCTyDxIFJWHOTPXUS6E+jYZScyphPy51a1h7liLa0sSplOimAen5uxn1Un8CtnTtlvnTtjv3rssH1S3vbx61es/vqPrfbmy5bcvG5pV/JTjsGN5w685FtpqENRYjXuisgQQm+0WragTmNOBBpKy3/OPAZboxh2j6ANdF6yXNTWhYV5e/TIITs231ZdYIkq0GnQSWoR3ErKgxEgXRioHLi32853//CT+dJ/XuZwZehw0HTKoCXbyBq5Z6rfjXXLVsPjaH4DUGm8I9pHILGpAVXoQYrMUuzhj7FkarCVXkF6ikeoTjKj9L6DI0Ld7DWK/DnPKPtRXIwJEaicu98uWi2lBXkuEpBbckRk8+TKsl1aXrYluV7MQ4McIXf0AILyO3cedDgNnx9+uyI4FXcNV5YP2Vx7TufmeMUzNiYSYi5UF2JSQfnV1FDSzqrVb7xt9sIPLPvW31jnG39um1//U1t++cf20bRiP3fkoH38kIi4LpdwY02NW+6TZI2SDrNQrjABVrRSPOtardTV+OuW8ron0U1dDS4MnSMDKbvIK6/oeJWfTiC4gmTEsghx3cko1KOPgXoIbTsE5UtLIhddL7YkpC7N0HlEbTpHrvNlFRFphXvnXbmHkneSW02sndTlMaZa1mQNi1ghRsrV1zJTvVR7myKY3M63G/bUbMsuZZuWPvdte+2P/p1d+5M/svVvfM0Gz37b0tdfVqdx02qbG1aVXOjXuhJ/JquLsvj777RMZVHPyjqcW1rwq+Iqw3gw1xBAOjCKIcJFp9Sdrs1q/cx80z4iq/vCwSV1QJKv5ARh+7VrP2RXaL8HcmOKS5i3WhATYY/gZyjyDeserWsLS1Y8XtcZOhhdizq1/ua69VdX1bOL9BS71+V6P5i6yclUIQ2BaQ5DxlnefMPWnnvWem+r501oWOq1JU/WXJe8USFzpXfFQrBFBZDhHsHz8xP5Gfzn8Li4xXiSiCGWjVarlTAnb2ittG7tNLUNlfnmZtfHOLoiFxqgA9Nfx2BNQJkQO6QT3jQS7vguLizYz3/x5+3pp5+2hYVFGVlD2+znltbrMgASHyOsD9RB9NasKrLLILsfPmub3/6mbf7d39j6P3zLej/4niVX37JW1rEmJ1IxN2RdrHc7fieS5zsLURbXFeAKrwLBZW58UTa/VskeF0+Nc8iYFDdWZCmKhWT9KQxiQywaJsfQOImHtGnFiCgwmce5TIv9HieC5YUCfmNEx/sYolYZ0808iMS0DeHz7O1QBIFUkR/ZY0CRp3a4HYjMFe0vsMh5prvftYQ7sFpWedX5zRu29uortvnG65Zdu2am7ZqsFlx8KJeXJeSqS/QUS5rPBJAfY5TXr123f/zud+3Z7z3r1jcuMacOXdgYihoFroov/nFv+GwrsU8dPWzPyOo8uzCruEFwa3VNbslTB3SYOpJ8gSSEVMMGZ4mre4KYWVg6cbGqFXQUoiVw3jAsIWF7oqF12rNWP3LcZo6fUn/ZtH6N9qHde1q+94apIz14AsuHXoHB9sobkN5zll97Ww0SSUllUWAIgoUEyzI+g+jQoljbM4RzEfQfTdO5fBvS9fMST4OuiTQYVwoNLrQzKYIK3ZCicoexLmKZk6WXyF3pytLAdeStY/7mEeXlMlC+PsanPyczbliIJFeWV+xLX/qn9uhjj/rzn7xmi4nC/hSCSKv6znWzV16y4feftfVv/o3d+Ku/tNVvfdO6P/qBVd5+0+qddZvVeZqpLEOViflrfKayIgulLtcsvJ03vEwgTBJGgSmDyJhpHCI01Lon1wW1dk5SAqaN6BC1fy35jF1fxLSppUK+qevb1HnW5Sav9a1zu2cbtzu2cavj6901yWG1bz2W2t9bz3w9Lvta1roihZ4aWFcdoiytal+WrM7l04WGvBoUm9PtTv2vqxGKIHPVQ2BCX2eyeE3kGeQ6sJlW09rNlt9QEYvoepRWy7pkPcu8MumfrW1Y9/p1W3vtdbv12ivWlQwHcnfr3TVrDHs6t2S4KutPZ2a6D1b67Vu37Pnnn/cJ4n3J0zsFyQq5IcygLy5WtkY/CO98o2afPnHMfvbEUXtyftaWJPc6U1QkZdQeyg3H8U/50QNpGeNc3wjs3zP42UZLf9aZq0GvFRUszNAeKQ9DC+GaRXrNGZHeCZs7ddas2ZZljKxpMyTeH0zZExlSO9wV9b48sJ7JGqp+++/t6n/4Q+vJYpmb5y0iHaZSKR0z1ullgnvEJE0mTiJLJ0IUew8R6whrJWyFig+VrDXOTW+nUE8a1pPr1BepMeRDyNWAmipzIuXoyOe6Lhfyay+9ZP/p5ZftH9Y6dkVG7aasBPr8KkyC9eBqPpTL1PDb/5ubHbt0/qL96//5X9sX/8kXbH5RLi5EJ0vFVm9b97VXbf2lFy2ThVJ5S43zHVkoa7fCSxukaIxvYeVglWEpQKJoLU9HpOpE3OBScDdb6UJTpQwhOBETr2v1GfV+vUqFe91T3t3Mw0CW51DE191gIq2OhEBHQWl9yVibcivqiUZAvoEQwjLGIW4f35OLWpEpm9Bh1AlyrxuSqbZrzFMsiJl1rGN6D8o7Sd5kigvNKjcjMhEou7irzLdZkTdl40iGIr0zUTpIvS9XNmMaRrtt6YFFax9aseGZy5Y88rRVlw+TidXbLXv5lZftf/8//w/7X/63/9VuiABdQ+J1cLn8i9fNz3dV7LAK8gvnTvoNpY8eWLAzcPBQAhyK+CWzHsSi86MlfJYA3Qtj2zq16sL1T1uuoh6rXMNp7hOeoS9Zo21h0TE/lvMnuSzeAbLTdtWfvJZ+0REO7MaBo7bwic/YsS9+yezAIdust3TpoeyhjB88psrSQ6RYSdwIYP5Tv7tuvReft025t43NVREhZCZhUblqpH5MqAUJX2qKgkqQcWb6A0GhvKOwZYOgitTCG5nWR8mliV467eZDR01Zby0p8EJ7xhZFak2lGWBliRz9LRW4RGpEPlmbpeJS5Xn52FH7wseetnNyexKRWv+737buX3/D7B/+zjpa7/3w+5a99rINr12Vz7omaygLg+9OAMhIeTmphZ+7mv4LBOQNhjJ74Ijixw6/BqXPlYfaYt5TQ9zoWWe9ax0Rd2e9I6JT2JT11unKig3En8vdzvXjxoKP8+EXi1EwiCsMWai9VLWkSukgPN4ZR+enHWvppKfyqAAjYD1jXXHHNJPcMsZ9JVsfU6L8ShOtEra9blQKVrluVyUqhOsLF+xpXA4KjCUGEgZKzA0bOhgmd6uTya9fs67kPLj6lq299LyWb1ht/YatX3vLXn3hR/ajH/7Qbt68hd3jsvcLdDImv6HfKDqoej4/M2dPH1ixn1k5aF8S6T3BNBqRNzdOfPK1jg33xSFz6ovDoyyok1DG8F+I8VzanmBr/kX2I3B+15SoL+q0GY7hCYxuvWmVuVlbPHtGncWs9dOG0lI/e1a494ypsvSQI3OdMlkvrbrZ+s2rtvH1P7e1P/kTm2NMxQVF05FV4g4wQvaBILdOIL6x9YdaTdTMFIFS0Zh6UgzevPLq7XX74Ts37XmFV+ROXZcFtFmQHc+YMp7Tlls5o+WTZ07br//8F+2RUyet1tm0ngiuitsqmeFKQQA0FD8P8igabmzI74axhRChY32TpauzxzIGl/exyNWni2gyWXa42cT7uTmX56P0/Plh4ehILjFu/H83KEoQj98eRKaprD+eTqmJTHxqCWTPPpXHLS6XgVM3kfcNt5pVj+vKt37osLWPHbO1amrfeekV+9O/+qY9/+qb1lXj35BObiIXCRTiZ77pvOr5cLNp5+eX7MLisp0S2Z2ab9jMkC+qTBe2SwsphvE74MKX+BlukLxllfK9kqE6spuyiiunTtn5X/11sxMXbG12SbpUkt4IiI4xEQaWW+rx12+8LdL7M1v9yn+yeSZ6FqQ38HtwwRXxUQ53MekJaRT6P+Wk5992wMRnHpMaSEeXsSoSudnp2Q259Le6fdtgLEj7N7s8XD60uZmWyM9sTu7cqcOHbEaNmzfUVmXhtJWuItIJ7qIUDgRWKeRQwBv83RHJYTJVzCXoKEtkHGKZeuATTrX0fcWPP0eRX1iGSIo1tp4Ctm/vBL8sz6pIyyI2umId9HkaRUQH4bmV6HkXZEzq4oAi+X2DKTOpwsZmx29sJLNzNkibdkt1eeXaDVtVfCWt27qs3nXVl7ujKpcoQfVWsQVZ+cutti03Z/zpmby/qbLRkU8XJmsoig7SC/AKcN2A+Fwf1PFwownSGx4/YZd+5ctmZy/b2txBpaR97lEFvA9ML+nJndm4Lrfhz0V6f/oVm799S722iirth/R8+oQLbkx6QfBQXWj400p6jGfwEkxYhnElXHr/1q/KC4lgOWG11WTd8aYOrJX2DF9Cg+fCN0KyvsiQQe5GW2mRQ3GtSjTplmHdjSw//393RNK7OwJZMOmU6RPkS69eZM9e/7lVST73zK9AUda7Iezl3JPpdIYi/8kzcG6unSxH+72cId04L1+5b3Cnu1lPvF666oBo7/7USSKLU3LiNAx1ZNQZ45japiR+l17ETB0ynqrUlMo63d5IntOErZIvUAgxtjMnPYwPLD1dHwR/S4SeHz5mj/zyr5ldetzWF1eKI/bvIn10YVoQFKQQhrSn6gPiCoXCQm1R7yc7mdFqscJiS/uYKlDdqWXDlui6ab1crk93aKvrPVtjTExWHtfU5GWRchFa7aYHn64gWXADoibLIWm0LKnPqGHVA/ncpaXsHLszkJ9bcjsFCuXyH6oB922zp7L2O37DJhvIxR1mFn68XIttxvF4pSjDEQqyXmLwtDEMlJqbPu8S/BxMZq5M5M+PuCIPLwMveVD5cGRdJnK3/SaLgluK6FFgnT2DVNRurPGJz4ZV63NyrVtq7LwwQPJSXbHo8XC9Tsyrt2YU5uTuzspTaQ1qVu+p89jMbV11f3t1nSJONSge1+QhRI0wGe/6SBDZ592O2eamSXFciwj7iakiPYDKOiLp9RmjYsxOeyQtbmyy3C45b7Asw+Z0Q42xKnc2yWWpMclCVisTff3tK/J9eFwHr3Gz07c+Y2dK1+0NRIiij0ypmBw8bNhQDabfyeVJMIctWLogKp3zYCHO3SGQG/31OBRSRb4SvO+VdcrzxDFgqYav8itdSOqosb+mayPI8mHdn7lVeUfHjrbfPbg1jAUnC4LgFu22X5isHYjNO8oiROJWdyFPQvnEa9oL6GL9LrjIjwH8MO9QcZmiuPEqH4+ZBixzpvKo/rjTmSrUcpWFKTeq96Ral4waLt9pR1QrlyJ6QWQBOh3/+JU6Hh9m4k69rGA+6uVC0R7UZD8xhaSHECUV6VFFDZ7ewbs/ScqNYheY/k0Im2MAFTD90FXg2vpjV1gmfavUclkIQ7lEIgoF9nNbH8UJVouWUh6u169ZbOYTlovAhFhIZ9Kl9VBIZnTcrqCUHDYK1Aa/ggQhDxFHOCdExHnDPj9WlxaJJ6zHEPZBCHGbdbWPmPNdQ9AHpac8MT+ts+3ExrUWcV7eGPh5+cI6ZY3l3StwQ7bZTqyaqnOu8jSImK54rI6pGzx2x9tuOKXXSLgU8xcnuC2sQPpUh9UZtiky/jABuRcL11hdA9fqLZbhDyc9PgeZKS7o8X5i6kgPeOOVIvO4j3wWlyZK69JiX7EKXN7Fhvc6nna6MVRDGdZ5FyAPTek37PpjVEORH1M1Kj7pUxZcqoZKWjUNn/Cpddy6bia3T64db5CWmVBc9Fa5vF+grJ7JZNgG5tlx55ZxKsYgRw/2q6qgKSdFWjlVp/1YQgRPw5+TYly/d4gkB0E6K0RSI8TftnKGcb2J4NYhO8L+vQLjybUaHRPfI+mqmNxIUScmV5zHsIYy9/iIj78UQml9/JnH5ty9xz3v+5SegYdgCU0zCvGHUMRFuJWnWPahk5AetxcxXHIRH65u6Ln29xqnlPT0T5KrqjFJE4KgXJD6539sbIXvLsK0A3UId6DHriyPFo0m67peDOXyYElpFRdB2z6hWPuYqIpouH+RQSh+bCEnweVDQ3/P0tDxUlZ/2H+nEFTaLc/M58YxRSZMV9EuJyHcR3dd5cpCNqEBbA1ev5Nhl3BCnfxxjdF6w71GWKNr0JLOwzsQSs4vjCmy5un2ApI970cc9iQD/YnufV6kl4SKlXww7HleIcRyCFIE2paA4MdqVwf3eJON7/iQYVxovzJdFlfK9fo1o7/RY9srud8Hpo/0vKEgMjVyunkEVTSeIK4g0ag2IIoyhukGSq7QqVraq1t72DZ+rWHTGoPUklyEkavh8Pbbvi5UHWQlU1r9mtWWtZK2zaQz1tQyGdZNBkKwtiSnyJdBRBCCn3DXcgkyfpdfkR9ubb1Rt4YCT0PwbOlorE0YudcQz05BWochSGA9ENK7/3wiMo0nBm3nxBUhXD+ljNfKevgphX4ivAEhjBHvHeiYGlajPuqzVmvMmKVtubm8gSX1KUnDpGGDpO5vvsnUIbAkrpo2Jb+W1ZOWpZWm8TgdHceHAZRyMiBvLLsgfdbDz6tY9cIjpcFsB6GG9guUaYog8dHzecXjPq1ap7dmvLaHN+/yHYpGTy5CzvgJb/HIpSjE4+OpU5W7xweCpl1vmJhZc1eW6+DtIHJz1N33ZU1lBF0Dl8S18GBtldfPK7434G3HXVl6HYVNG1S65o8y6npHgRPoMAgAC5AN4jz+HgicFOS/cwjpQt4iklHPXZCLlDpaUvwC+ZH+7oHDt5T/LsEvoCBJD9v2hyBZKWjV81URwpihyo4FFr7PG29k7B386iFfubJMtxr2e8b7DevqBHgumvihdLaquKqIN3ywXHGFW+t1n0h2idLubdH2DEVVOYHVVf5Ege2+rlHi1fbAP5iViLgTdQKVmkhenSNEOC8hbF69ogbKeB7PPu8v7UwZ6UlJi5+rEoqk4I0DFA1vi17EfR8aUOD3EiK0Hlli+7qHSdwtfq+gfEfnj4jb7yfsFu/3uAeJifIgkxi0PdLTiTgP29LdGaYPEBthazmh++2I1x32sU6HxPPMXK///Lr3D1NHeqHLDqtBL4Jw+Qu9edhXokSJ/YAaoLNfDBMIDZaVYlGsywocQnoDeWcjF3f/MH2WnrsnUZhBiMFNQoDF/pL5SpT4ADFJcpNhB0SyK9qrb0N6frMrDHmEyP3DFLq3E0B2LKIAS5QosY/YiejGcZEKvb0qjIaitB4mcAfiY3s/MX3u7SRG8hwLtkSJEvuPO256FW00emHcwAivAIHg8NQGYVxPIb7tfL8wdaS31fwNwpz0Ztm9zx1FiRIPMWiMk2EM31Lb5O64k6D+IBgnvuJGRjhq63EfNKaP9IoQEcfwxuN421OUKFHigYObF3e7gTEC7TSuFeRH21Vz9Sdw3LUN+/cT02npFYIJZBeWSDFaeaWlV6LEfqBgtHeBt9liHbDu20W7vncODx5TRnr4/pkkox6hwhtpm1ZNG+af6qupo5DE+HA1TBjHC+h8iEeY/sZkCTfsUZgGCZco8RME7A3aW/gIF1ZccGAJod2FNN4e/T+PTTIRv2b+2jgnvhC/X5he0hPLDVMe62lZL+v4W0h4HNs/rsysegkQgqMC+CAQxzIrPDy7iPBjZZQoUWKvANnR3vybNGpj/qZkER/PkfO8Bc+EexMUaIusO+mlfDeZtHhv+9sup869pRfwngBpVWXR+UP3svrEbqMB0ihVAfF5KOLiOsvJdCVKlLh/eLsagYZGI5tsfNpSXDDq/F/YJaLztrs1g33B1JGef1rQn0ZXbyKTuKoegjdocMsbefnbKrzHCOmd4Ir1CNKNiK9EiRL3DW9TPMyMhxWitkH7oLnisVH9d3eWpb8Jh+dw+VKdN91tDfYDxpSRnvoCxuwQK6SX1KxWfLl/KEsvzAcK9h5/EXG1HMMrUeJBIRIVy8lwF4jw/EcStWW+F1JhYF7t9260+UFhqkgPUYS32irw7rh6YtUmr+3h9ROSnlgtDI5OhjHG1RCHVEuUKLF3UJuadGcjiqYY9xCw+7zJaklb5jOZbu3hyW1rtx80por0Qg8QBknzqpb11GoivWqSuvBcVC7FkLZYdbjZ7IfHWJaTKUqUKPH+ENvS9rY1DnEPVp0Hwff4ttxbDBeCD1/tr0kyVaQHEAbjAH6HyC29pru4mMkjUnRiRKAhPQgCHm+XKFHiQWCixRVW36jNwW/ui0Fs0aKr+FgeH1+36OIWpLhfmDrSQ4JDsZdbemnNag1Ze+ohRqKOYwWshygHhJcrbCfDEiVK7D1iG2O5BWx7kDVXrPsHmUR4gfT2n3Kmz9KTkPzOD0KrJf51eMYDJt1Zt/qULgrV42Ig3mNKlCixpxiN5+3cwkbtr2iTEUxXgfiCa1tE7iOmivRGIhWrpcPcZkV/7XrTmkuHrJs2bcDXv6obEmpXIdwi5ymMmkKclMwMcSZMVrX0u7wlSpS4T9COQtuqDeR9eQjTT/i0AUt/Jb/abY2HC/KOvw5f5opZ0rT1ZMYqasOM6VWHfcXmIdt9wtRZetHfp1Ph+wJWr1vSnrU84SMrMFumJIHwsP08SNjFUeH/9q6mRIkS9wVvUd6uMCggQCIYToqDTYIvfMRdxBKeiRrKwstrqVWbM+7eupsW0+8Tpo70wssFGA/QkkFP5um1WmJAkZ7ESbz/JLco+MhxoUpKlCjxIEF7G7W5bfzlLwwp2jCTk3O208RnYTjpeaKw2C9MFelF0iJguw2qiVmjacnMrA0bDcvVa3j/4cQXEY/Qf4TpAt1nqZYo8ROM2Lrc8GAZNn0FjuOpKubbMk8vgwCb8tZmMFwC6e1365w+93YYXFe+acodXEivNj9nQ1l7fUxl7eWWOJ4uQndylGCDgxsux5/9kws8MrtLlCjxQBAtPRYxhCkrOLlydtWGa+2WpbO4t6litG+fm+WUkR7P6/E9TT7NzOgd7m3DkvlFq87O2aCWeO/hX/vXEpqLggaxAkqUKPFg4CN43tAKM4N2uL3dYYRAeizl2iZzs2aQHt+v1lHhyP3D1Fl6fC4O59UtOIqXNqy2sCDim7dhvS5BUmT6kjC2xzppx6+SYj1UTokSJfYQbmk47XnrYtNfLVW0P2+DcZul2mpFbbYxD+m1lVhpiv37iakjPQYF1EFIgOG9XZbKJFZPkcrFrTYakimCCwKPPYzf9BDGomRnsVqiRIn7RCS6QHbwlnOXwGKyqYVn57mHS5qqVetpcG3l4jrpsbNor/uFKSM9CRXSYyyPJzIQDs/rtdqWtmckwPpoRveI8IrgUE24OHVcEC7/SpQosVeIZHcHYnzR9pwe1YarMloSCK9R35JmPzF1lh4C8/dvEegugITWWFq0pNlSfCLCi44taXWEQhA0CMdORJQoUeK+MGptIw/Lg+8L9p//aIfD3EkFb4zhqZrabHNh0aec+XCVt92Y3/5gqkjPx/EgKpFWo1KzRn9o3Sw3W5ix9tnTVl88YLVKQwl5m3JVgg8TISuVXELO/CZITZZgo1q3Km+dJ68SJUrcN7Dw8Lz4JTJGCHyygVbL5x2GFf+Ygw2yjqW1iuWDivWHDUsXDtvCqUtmNWZfJGq3gfL2E1Nn6UFafCrO5SnzmPE61nmvXrqwYLmsvo7iO4pEzFSGv4pagbu6/X7f+lmmjiV1i7FEiRL3j4LeRHwKNFGF0Qs+FA+REZJaYlk+sFxLppo1Fhfk2qaWYQV6Wtp2zG1/MFWsgNBq1ZoNJLQB8/V4akW9Rk/rtZkZax06ZPnionXrdQlV6XxgFFIM44AE5vd1854fh5BLlCixd4CqIDsnPLU3H3dXG8Sr8udvK6l1ern11Uarh5atefiQDZtNHh61IUaMSC9MSNs/TJkpVPHZ3LlIz4kMgcpay+TzVlpycY8cserKig1abRvUZMlVE8Qt65q0vLNL20nNMrm5/UEmAe9fb1KixE8SArUFBFdXQessQZivx0bVupm8sFbLKkdWrHFoxYb1howR7WM3xoxbevuH6fP/RF6IxCcgIyfcVrqVettqy4ctPSzim52XwGsuZP23KqTH+J4IsyrSox/B4uOZjBIlStw/giWndqY2xTr8FcE6xgf/B2JB/zb1/LxVjxy22sFlGyYNtWftV+D4YC/uH6aK9IJcgsnsVhpEhjD5oHCtYbZw0JpHjlu6cEDWnCzAfChzmhsaMprzXAJXL6Lk1ZriGBuENUuUKHGfKMhOAYtuFLTHbxbScMNe48VRlWbb0oMrIr0jIr9Ftec6vjDZqEmSz/5iqkgPQFwQlvcIbgojTgb3VNT2rNWPHbfm4cM2aNStq/0YgYwVQIBZP7ehlonIri6Lb+ourkSJDzni2F1VFl20+OA83FxeLpBVa9Y8cNDmjh+3hHbabMnrkgemNuw3MNQofR7uPmK6eEHSG8hVTSQ4p72BHFUJiukpPnWFb+AeXraFs6dt9thR62t7k4HRRGkTucUSJuL0Xkh8WZJeiRJ7AzUpDyAQX1gCCK+vxtavifTqic3JrV04edJqywetn9R9KIobHJ6HiLEkvS2QU5tLRLisuLiy5FxQsvy6Ir8ubuvCvDWPH7UDJ4/J2kusM8z9bSyM5XEjgykvjPENe30GBkO2JUqUuC+4NSemYwllxQCIw+PKmDFRT611YNHqKwd9ykouY4SUVbVRhqyGbpFw5P61zakzhhiGw8X1O0MiMAQlw1hEqF5EcT1eT7N82GqXHrX01HlZeTNWUzeTiOBSXkXNOKDS8IYWRgRLlChx/+DGonunFR4MSCzr0UIrlsrbqlYTn4zcqzatfvyc1S88YXbwqGVJUwZJzaee9ftdtU0MEr5hTbvcv7Y5VaSHGLxA3JAQfGIyS/0qmM5K0VWKwcyc2cmzNn/5cUsPHLZsKKFnSpPjDosw1ZP4WJ/nUqJEifuFU5QalL8NWau5fFuerqC9Ylzklbq8sIM2d+kxszMXzGYWLBswSFX1JzQGeV9ras+KY9RqPzFdpEdPoqVbwB4kJCw8kVjPiSzc2c35QtriATt48bLNnD1nG3Nzti6XmNvlXjEDubY8FhMHHUqUKHFfYP4sYOJ/p9KzaksUVhMBdrvWyQY2nJu3mTNnbP6Ri/LElqxfk5eW5ca3vFI1y0RtEde2X8lFmsGo2S9MFen5uEGxBMzD4wZ3rlLCZ9ymSOgpqnJxZxfMRHgLTzxhVQm7356zvnoQeqIkqVhNVnRJeiVK7A3CLUJZePxquVXqapvyqrJuZr00tdrxE7b0kY9Y9cI56yzO2aaMlAozKfCJZdqFebRaZ9xP7Xk/W+ZUkR5fVurXBtZLuDkh+qtgOIe5QTzg3JDx1sSIE/H1GStgCsvFS7b01EeteeKUZfW29Uib1NyknqqLK1HiQwyfSqZlI0mswQMEsjB6IjxLGtY4fMxmH3nMWo8+ZvnMnG3wKCkvDFELpO12s551/QkpGS3ax83Gwq7ZF0wZL8gEFtENZAKz7h0DU1gI6jH4vi0BcuyqJ+nIhLblAzZ7+ZIdePRRax09Ybkqob8pZuyqdynv3pYosScIpFexeiWxWk+GyUZPBkrd6kdk4V1+XKT3qNriIduUGTfo01arVhe94Ll11JaZylJRe6U973e7nCrSg/35YHAqobCM39eE/HjqAkLMZAlmMvKytGrdRmob9YYNVw7Z3MXLNiviq60csc6gZv2eaDP6ySVKlLgv0JK8NcnK4wZFVmta5dAxa8jCm3vscUvxtESCQ8hONos/Fa8DMFAGTCVryO7DQsxyD/uJ6SI9kRturHhNRMd0FYqn4OTFTQyRndxeBEkNcKu8N6xZ1pi1ioRef+IJaz3yuNmh49ZvziktX18qUaLE/SK8/KNiPRFXt9Gy2rET1pQ7mzzxEaueOW/D+QPWyeSRqb021DjliFlf7RR643VTaS31KS9YjOHVUvuHqbP0+M98Ht6yyoPLjA0w0YcROrgPwqtIcGkvt5QhhWGi+IZli0uWX7pgcx//qM09+ZQNDh+xvnqXEiVK7AHEYriq3ZqMjKVFm5NXNf/U02aXLtnwwLLl1YYxY4zWGu7UygVW4GPfiTyvJFObzjBY1IgZltpHTBXpwf9+t1aCyarcrKhqnSJKUO7qivqUqCbhJZ2+Jd3MWpZKhql15OZ2Vg5a8uhlW/zEx6x27ozlc3NKDCliNUKpMYBwZ9jnAobsFRVKMA78D+lIH4/cHZS66B19fcfwgDE6f4kHibG2gKJuY71v0YEdsG0Xc1K3xznucvgkxmWIiBntfHDYgxs6ThOvJbSLcci1n4cF8nbb0mPHbOGxR61++aLlhw9721OT9CepmCfL633zykDtVyTHMJWMk2E3t7yvXJKq1VKmVuwfKuvr63fKampARdyleERrN5WGYInwKAndssxm1lbt9p991Qbf+Xtbe+uKDVZvWV0JEh3DZyZ5dC3nsTb50oNhXx2ZrMdBZrVhpv2q6AGEWw9jF5XU6nnf6lnfH8Vh4nNwsTljXECOWKj0iFWrimwJXr4s914O+94pXHlUdL54/E7gklwN/d+7gIS5zko6/hVLXtoQ75Jlkgc9rpM7hxBZgCLQkRDYG9L4RoldgA66ryX1nEp4qRo+skeOrpdasq+aq+5VT4BvSYShGukSuuCR4V+v17VWs+VuIndIc+lqNZFrKH3FLeTHY5YE0qOHnCvMYaUeMQx0RiLlMfnbw6Vrw4rTluKkK8qnph+vAajwnDvDRDpPX9TWpyDoD21DP8bFM4Xbw5o1V47YwY9+zJYU7PgJEeC8dRpt12leO5XlPdft8F3cMDzFiwkoD+AGpT+GJoR37+0Pppz07o7wbO646NvHCdpSnsorL1r3B8/Zzed/YJ1XX7TqrRtW39ywRp6pUlNXJohv0+8IK0/oSvkQ/EaKXOsKQQri7+dT3LiuSBfIgqhwo0UrUvhswPRL1DPsg2QJNSkus9ilGcoLktwKz5r97wXKRKd2eXAsvXLMgXMhF95E7Q95+36ljwlGZUdFAyj1+BpL3AuSrgdE5vogMmJyRvhkvWTpdV61RPsYqyZd8DBEAsXSPZgiNyWWCilehDeA9MiXF23IrdReh89o8EoKOsYqeeI6BtLzZDasqQyytpwsh7x6TeVCWSiFyA7dphQDPq9QE2FLd+m2SRfeXq68anXrN1o2vHDR0seesJnzF6x5+qzlM/PW0/FZJZGvJd2WfvtDAWQpQHg6ia6NwEVCzCqLlI2SOy/uEz7UpBexnfBALc+d3HpX37buCz+0zos/sEwkOHz9VUtu3wzz/lRpuciPwVkecXNFVbb+rK+ydOKT1jEJk0cGcwXvtYvey38Tp6ZCefEBb23Ode7YGGJRWXrPy00av4HlEWFf/B/+RthN5QTVF5RXoV9+IOWmfB7UkPhxfaSJ+ZLW94fNAnFviXshytetai3p3DLVO8E7UiwmZC99C9aZ6ihI3ZeESFRed3L/+vIo/KP3GGY61sfAsB714zMKECjTQehoA7RHyULuSsoGaf0XY+nSCzcVHXQ1VHeOjmQ9qytJonPiJXV1SC7rryZiay0ftuHyIUueftoGjz1mtnjAbHZeVmrir3GD0BLlmkihIVaptrcDWhEf8HJCR98VAwHz+Fooo/7tE34iSA9sJz5Em6RyT/vqxd6Re3vlNeu//GPbfP45y0V8lVu3Ld3YVO2Gt7pgyUXS8/f5KY5eCnLizS9WEy0muRMec5CoTHozzsMxBGqzyoxz7/VQL6UgHwX0HUuRcnvjKMoLEYW/uAyxvqI096oczsHVxgYB8QXZhHJgtTIh1PNSUIrQQMKJHJRnYrPEewA6QgOvYjlpzeueuqBxQ1jsBihA+Auh0F/0xzvQog7Yh85ybA3rTpHoJtuer9bd0iv0yI/QSsiT3LRGFGvkq7K5Lit9GJsL56BD5LhEy5T8VW4+0yAes05zRuR20BrHT9ncuQuWnDhltTNnrHPokGUyEnK1Dy7H3WzpFO8qr+K6Kj/aAWWuDCA8JidX1V6Clg7E4jx0QNsJV78/+IkhvUl444bIZMlx97c16FnaF8G9c9U2Ze11Xn3ZstdetfyNN2x48x1rdDet1u+K3MJbWoaMxXGLXWEwVEA/lEeVsT8q2ytRCqQy+LPAUmxXcp3b3WNfhuDusZQky1AqIqSAuByon44BrgLKx6+I1bCmNNofktwViIH0TAXoi2hJTmPxZyW9oQ2tzs0c7feg/ShlXEYURSnOXGK34CYZuuby5L/+qBMcRR/KkPwleI9HuNQA5BDrAHjXqQ0nP7EGY8CJXFrqMZPH0JdeJonqUGlH59AvHh/yKvIlgswUGd6IAukptdQB3UZP/Il/6YZ/W8bz0qYst6zRtKGsuPzwMaudPGONs3Jlz5636soRq9VlQChdpuMhNvKE0z1PzAVcV0X4jQ/liGFQHQTCk7p7mXBvsfYoG7/9woeW9CLuTn4VuQk0dK3xLG6d7+GKEHpdy2+8Y71XX7X1F16w7ksv2PDK69ZYu222ftuqm+vSU3ouEsufhfww5ZUfdBaUMygag9AMRmM/oXDuDvdzdz1QdsjXe3Qpb86kTJWFOUu8MjuDYCeK7kpQbMdr2m697gydy8tn1lMDyXSSqs5Hg3Go94b0KLeXSVn7anGuyTMUUSFtid1BDbmqhoxLCiHALngO3IiIVg7yZJQ3El68+UAH6Vql/e6qqt65+UU+Xn+qy770dZjnfnMDh8NVQlalz0ggeA5FzXndBmvL7UK5rVhwlJEbZxBU6JR1nmoqHa/7uNy6OLC6dNDS48eteeq01c+cs9rxk2YHD1lfLi4vAuUmnt/IowBYoQmDQCIy5c+HuLi5R+euncpd+1WIsQUbrjuv8ngp16t4EWJR6g8cH3rS245IGAibG+MM0vZQhERKSO/J7HAqf3XdsnduWH7lLVl8b1rlnevWf/tN61+9Yr2b12ywfsus35EWBeuvljSCoihfyA31ogIx2SPYl6iyuS/WR2GVbsAzwHVZi1Lcqki4CQFBgupl7yb4qAx32z+Jisg063Ss0aAnHuqc9LpSKpSS8+v6U50zqGKA56uNcBXhfL4v7iixa9C10Pz53jKuIzqWqhNiGASWSkQq9VTk4vrAVA46yyDqQECR9BSveutphbQp+koqubp1kVtDeWxubAajUTrMe+oC2YV69bzYyTFkpmWdbz+TrzpYAjcn3NMQiQ2bczZszFq+dMBaJ0+bHVqx9OQJS44fsbriBu22z5Pt82Uz6S3DirzTMpwS0lTpdD5uetAc8Gj4fCtFCON4YRkeK5UeqmNgPI82AyHWStJ7b9jJAtpu8WF6M32AV85nSk/Pyihb8DArJnXwMYmk17dap2uD1VXrX79mvWtvW/f6VctFfPnGqg2761bN5drKgmN+YHg8Tr2mlCr22j56q5gwhiHKE8mof5YCB2VJFfq3bolUr1l1bUMVT2SwzsCI/sgq/AvYjVZI2dJ605ZWlq3WaviUA6m39/bkhaJDep6Vrhcgi7uDA3dz4hIAawsi6avzYTyXl11UpVPdG7ds7eo1q3R6NiPy4TvMDD6Ehh9EjOog6dEYl7YhT1gkrYs4pad0uD48od2rnU1rzy9Y8+ABG7ZbxeR9z8H1MtwdLnRTsXyvgjQep2RVeS0J02Fm5qw6v2Q2t2jDA0vWkoWXz81aRSFvN73x4DHQUVNG2atOyDIVQoE9dy+mtzv24xk5jaFj7OZAyqGlr42W7IIUPaN9wYeW9CaJb2TdFcuIGt/OYJxLXTDWF+Mb0cJCCdXZKB96q8zdgCoK15VLsCkLb1O9qiyoYVfrPs+NQV5cWIgv3KRQDXsl6szKiMyqsqxk7SWpFE5mv0Jz0Le0u2GrL75oN/7hWeu/9Jp1NzdU8cEx8bJwLVwTWU0s0dR7qUZ/5agd/sSn7MCFizZzYMFyXVcXopeS+RQbGo2shFBcLIExJvXOddRB5L3OWiICsXn1SeZ13D7u3Ktzu/bDH9rr/6j6vvK2zSqBqkXVKSdXS+8oHZAaeSBvOkxuLNCpikDVKaKfffRS6x3Fd0SeRy9etONPPSU39KR1ZfH1GIvDypogkqhX1Dak6PPy/BTKUHlURXxDWXLDVtusIZJrNmX9JU7YtCFuwg3ybOTK0ol7Ybg5oXxCmwm6j8Xn7Y4TKr23C3RPASsvgDJgZIQychxy2C/8xFh6YDvp0QlztwvZMxkT85s6oTIZVKXXpUdjTILKS+R2JjpoNPgqK8kfjvb0VKRWi/qlclEmnSLEc0LtZBJyjTE2zq1fQ1Zi2pN19+prdvUv/tqu/eXf2uqbr1g773ge3GiBiLkbxzSZnhoNL2pMpJwMaDMuFCe7AsqVqQfuo6AtKesTT9vjv/MvrXbipLXUU/tbo3VerIooJQbBuYZArkVkBPluiStOVGJXQAcgCR/aUB1W6UCvXrXr33vOXvj6f7Grf/d3Nr+xIa+Du6RMZAk3wLjbi/0NCfhdTQWIKZU+uFurDKlHplINq6ndxo46dtzO/+xn7PTPfMrszEm/k8or1vxRTRTOtZHKDDQKnIRURpbscV1Fn6TrBFLkDL1oycR9dDDoCdob0vpsBicsUoX9YaaAH+7tjjjIMDZBt+wUig2/zhgow5j4P3j8xI3pPQigMLi0WHkoWc9JqGqp+JDXXnEb3t//R1pValTAAUqCpSdNana71vurb9kL//FP7J3vf8sWuzeVp5SHyZ/Kp6k8ef/YxqBjN7urNjM7Y9kGT4hIMRkDVJaQcaK0G8prfSfe5+gAABojSURBVKZt9ePHbOnnPmOP/fP/xtbosTl/1DpheydQ4gEAz0GdIyQ2pFNVHba7m9Z/6w179et/Zs//8R9Z++pb6vz61nILvCoPQNaWOsamyCqlE6t2Vb88zYArSlBlD7XN/dJKXeRXt9V622ae/rid/4Uv2cyTj1tvvu2PaQbXGA2lrmN9l0363UDrLHEPhH6SHsr7YCG4JVHNir2+lKEloWIBBvVlUC+XVWbNhlUOHbT2xbPWPHbEibOvHpY7c8Osbz250Z1M1p8OaaVKK3Jj8NoHo9XrD2QlVHXSBHdDZMq4zMKZs3b0/AWdUGfTgXcjvJL8HhwQLU/a+Ff4FLCnGGKoLczZyvmztnLxvA3mZy2vp1ZTSBXqqaw8pcES4u4/LklSSVW34UYbNhbTXRJ0RLvX5Eo2lg/ayrkz1jq8Il2qO3n6JGN0jI5WGLuUMZTktxNK0tslGBvhY8Zh4FiCw2UYBaleESA7Aqk8pRTTJ3OK9Koiu7knn7D5Cxcta85Yj15axzdQ1qGIL+9yhLXTtiy6xOrVurvcuD01WZJVNRB/pKnZstaRY7b4+Eds6ZHH5KYwDSaQXgxgcr3Eg4Ek7HXidU5dq0671Pf8nM09csmOf+wpS44dtkGbcTORXVK1ugL9IM9x9xW4264Y78zQIQjL59hZKp1LrKf6Xjx33g4//phVjx42Y86cE2xh4ekvuIwcCQeSiWdUYgeUpLdLuIIVPat3zr42CfajhKQNROjp1Ah4gUFfdt9wfsHa6q0XL160xtHjljP3Sukb6vlTBf+uqHp12QSW4tYypij3CUuijucklWaCaOvgsi2pEcxcvGS2suINAEySXkl2HyAkayaGM32DdTrHHuOoS4t28NJFW7p4wWqLS9IBxs/UcSkt9hzmPHPXICv1XKpeub59UnmmSquQNq197KStPCbCO33aBnMztul1W1h52xBoMISS+HZGSXq7hKtXQWKQGcGjtCP0skHNwh3ToHTwlA/1ZQPL+yKwpG7p0kFbPHvelh59zCoHV2xTKXGMq2okVbnCPohMe1DGuY5jcBhXhwmvXbnC60rTPHHcli5ftvT4CZO/pLYS3NudEAaYi8KW2Hsgd24ecTdTFVfDbVV99CBApojIIj/y6BM2c+S4ZUlL5Kjq7WfSH+pVx0hB6CRRE3/QPxMhckdWVp+/en12TqR5yebo4BYWraM8Ge2jRulYqfXYwXonOxmvUOJOlKT3HhD6VggtAGVlsml89Ia9fpvf1xXDXWEF5vcNpeg+kVMklRw7bgc/8rS/rWKz3rQN9f5MgmFciGNpQP5WF/04B84PN0c6otGu3KbG+bO2cOGc1WRJbGBhvAvhlXiwoNNjTFXV43XF3DrG9rgj31W92/yiHbj0iHd0VXVymeqbaShSBtUqY7/Y+qpn6lv1RV1zk8NvmDWblhw+rA5OhHfsqLu1fPiKo8KdUGlLUcWB+IgLulDW/N1Rkt4u4b3nSMn4JxWXfmHloarhFToErfNTQgaVsePkuMqTEekVj4nZ4qK1Ll2yBVl7teUV66DgimZkiEYTptOoMbipKC9XpxsMtNGatfTUSWtcPm+1Y0es2mhYT5aBF6lAtOxKwvsAIR3gBkTQBKaehJtYXZ6AqDfMjh6zpUuXrX3+vFxeubmqbyc4Bd5sQufo77sTi6XcyJAO9UVw1ZUVmz9/zmbPn5GVN2eM+HIG8g9PYLAVANnxpIMPp0hpgucR95aYREl6uwTqMxmA04o2UDQesA7PGwbioufPeUGpAh9FZioV87F4WCnnaQwp9OGPPGnLclsqPOStZlLNGQ5X3688/a5evMNH4xmk1l4+bCsfedwaF8/KgpgpiC2o9iTRxfUYpuG7BD+pQKxY8JAVz2xnWVf1MbA62xW5qFjv7RmbvXjBlp58wtKjR/zBfl6GQb0lPsdPQW4u0+Z45rbT7VvWbNjsudN2RPVdP3HM+tIZRvtczyA9nYMJqOhUnPPmVp7243m4HckJStyBkvR2DZGLrDTUSWru2w5IruhlfakUrmv65y9wZFBPRkAlVVKIT2S2NshsrZZY49x5OyYLYObgQaVJ/YYHB/rdN54mcStPri+D39XU5lcO25FHH7E6dwMTWQtZ3yfEThLa9vWS7B4wqB8eURTBMf0oK14QkIq8eEktFLiKrsgyX7x43tJDy5aL0JhEzrG8TTk+1ohbTP1vdGTTydJbOnXc5i6ek3W4YB2ITPvpFkeqR2ATtRGc+7TOJxbIn1xL3Ina7/3e7/1Pxfq+g8rDLKfC3H6hzlSTvlCIA7UOrdOgGeTnpirz2LJBT3GZW1bhLSOioCFsgzIx2K9tpgJUwhQPBqHDnU7PUXlDbGhOGGPx59d8qaBE4dU5jMSEEoX/sVAiGJU1jMLpp94fJYzuLhfHD1Lk6ZBEZWBGfkP5bnY6duvWO7a5dkMH9K2dKo0shrr29ze6tp42rCnX6NjPfNpmH3/CsoVlFacteShUw9MffomU0Qulf15erdO4iGPeC+ueriizAum9vD6gXqz78u6BA6P8pi3E67+jfC6HEEbXzJLgMolB/1xucVtXPBmn4O/Ji/J0fZBlrv/+AgqpWyAc8udc0FTNGnJpeUlANcutd/u23b523Wqy6Oa0v1pPrCuPoJNn1skys9k5W/j4x2zhk89Y86Ss+qSt06hTFEH621LIW/rFY11pxiT54M72KZMuKBlUixdfhPIrdhxcQAWKCnVd1YVNBtoOF+uvk5euAvdoRLy8n1HFCLMLMpVH6/5mGdqX1oPokBtHIQcF6VeYR8hJQ1vYL0zVExmIPt4F5b8HiM13sh0EFfYgc7kEciNqNVW6iInHgUjC3DaUnoe33bXzo7RLceGlnoXAladz3AjFGbbF+X9XcF/dBiWeSH9HZU6cYGR10aMrtGSp2dW37erf/rW9+hdft43vPWvJxrotUX41jlq9aZtabsgSPPjU03b685+z5LHLtjE/L8Krq3WpIUDMco7D/b8JcG1hpQhjjK0/0mjdN/kXr3/HC50Actua592x23T3wr3KFBCuIkJrxUZYjLe3l2qkExMgbnv89m3XWWUWGza36+OLZiEOtBepNsUGw86G5T/6kV35i/9ir//l/2fJ22/bQrdruYiyq+P6SjtIm9Y8dsIOffELtvhzP2vNQ3JtRTrDVFYj36CAi6TDvEiCc6Q5FFW1nnipR2evOH+Mkgu9ax2NdYN69A5eGDWLGK9fuN5ih9bdyFDwl6Uy7KJ0XB+PeGKp+rQdIZ4ZVYrt1YukRRiL3KavHyCmjvSQTBAjxYriCnvCf0GVDjIRAg9Dx3fHBetMQlWl5Dz57/3tBOnp56RXbIWGSyWG/BzhdGRWHBfOPKQvryjPGO/HstAyBt9WIIVWgkJpXYoQ1/n5jQopeUs9e0skt6qGcP2v/85Wv/OsDd6+ZvPZ0N8Q0xOZ92QF5CeO2MLTj9vKx5+0wYnDdpuvxWcqF0F5uHvEeUbgXMUqZVHwO8eFcgPKEVbimv7zR8cR990FXEdU7rtD+13Q90q3Wyize5Ix4HxFOi3GR4w33NpXI92y11fH24BGfE/SIw1vQSEaK0YhERGlDFXoPH4bS8eEieUDa75zw25/91l746/+1vKXXrX2zVU/Kx11v9m0TrtlsxfO28rPftpaTz1p1ZlZ21S18Xqy/kC0mJBXeIUTZMdjiuh7X5fTF/HhSfD9jPCcLL4EXg0lRc9Z+EaxrvJT/4Wy0AzQhnFcaImeTgcQiHP47uI4/y/ovC6fUT1NLrWvODSYiSH//cCUPXsbhONCcwnFooWl//ckqh0JF0sOEqOXgRzpfdQalVDEIkKsy1LyV7Vj7TkhKgctQ6Wqp/I4XIaw7XHegzG9hMmmIS6EntLyZr5wHs+DZVyHXJWOV26Pj5EFBtmQp29rXUGOuPWVV6LzzOh6ajdvW/aDl6377I+t/+pbNrOmfSr3zWHfstmm2bmj1nj0rDXPHrONdmJrUpoKbgVz/5SHHKdwbQ7OUawCLxuLUKYxQnz4B9hW2bA+79ULT+b/bthSh/eJwCph/S4I16P/3ji3pVZc3K7IcgqkN9HZCeGw8VE04EmSC7vH246q8uL9dOzV9aJL0b2EgrhhwRhbpjqrNmq2lCvNlbft5nd/aPbiG9a+ump11eOMyKk717abiy2rXzprC088ZkNuYHCsdKjebPiLZ3lzUK2m8zmp8bROsLAyER7fcFFpLHU7DzJuqHwyI1Xm6OH4870E3w7pkMXoEwlacqWsky/HacU1ghBqk3xIw6q3vEK/lJRIqsDThaWrQbEeMTJg9gFT+MKBraKZRBCUAlKUhPn4Dk8rJLKI/La/lIJ3O8nO88HkrCfikkKhLPFFijTqAUu5Ch6X9USemyIliA53OHzUJyed1glYP7x6qqI8Oa8Tmc6XK559Ayc3VfpILVAA0rIMaQMxsltLNTpeRsC3EOppIuKr2szVdau+etUGr123+rV1n8DaaaphHpy14ekVG5xatny+aauDnqnkUmwpmMqh0/rE5lHeYW0EzhuB9HwramEsUwHUd7slsxNIspt0xdn2CLs5n18S/72Qk0eMyyvHSnLjxZhhq4ifSBxXdyr9ndet7UKO7uJCboWLiWvrb9FR/VJnw3rNDogkm+sdG76uen79hjWv3LbkdsfaHbP1hcQ6Fw9Y7/QBf057XUTX6fVcxxvM0et1RHKQTSrdo+RYecFqHXDjS4FxNew7yIzHE3kJwpjQeNMQhK/ANsfWUms0WtrHq6XqIlUefUx9nbfz8Jo0bqJZpSVFU+AYxYfJ9Nrn61rqXMpQbQlvKErGpTJeeuUoIDIS7BOmkPQmi+PNcLQeQW/KniHmfgWC61pn/Zat375uG2u3rNddt7y3aZtaH/Y7UnKsNognkFAgqUBmkdioENGoTh+Ia2wZsc5/3BRVrG+P93OUHxMrdDKoyF5qNsM/L3daacgFaVhXlioPpzO9YXZjYMmNdau8fdtDZ23Daktzlq4s2vDwgvUOtOXumnVFxjy5wTH0yeF7tsrVG2MoazwXiNvBVfMoIezfnlaZiAzGSnvfcOtsr6BC7Sa7WPYi7R2k5qQRQtyO8LXxP8lHmQUhBSh6lF8Bb8h0eNJJn6iOYaR4brqFfIJ7y4td+0rTlIo11Bk3ZM2n11XfV25apnqvb2QiPRHWU8dtfaXp8/TWdDR36Bsiy7rqnFfH85lG7LmMyZs6E+TGacJMAbQUwpWFphBei6bdXGNxzR4KEtSK2sLQ+qpzjxtZgCEdVpvrjeITeU1J2hQpSnfTltUU0uastdqL1p47YDMKjdac5EAHzFgm105ZQZBhID/AMq5/8Jgy0qMBhyUi8jBqOGEZ/svqIo3cPx7Ez3rrdvvmVXvn6pt28523bW31hvU2RB6Drgd3LVHMgpwCaUkhRHrujviYYNEjocSKA2HbV/3OGz028DKM/nGcllIQjmVwd3K/K5Av2Q7w+79KK8p10oOw0r6IqZNZqsZQvbVh/Q1ZA83UanJ5hgsivHZdLrGuQRYKd8/4DgZF5W51lIcXlUgWE+tg5I4UmLQASccW5cQSYPluCOedOP6uePd83ht2c74doCJsv54BP0xkYVImbExu7nSN1OckRnfnFfw9m1pFS3zyMHs8i7CP+mOKCq5vA0ttXfbf7XXLVNc1+GmmacPlOdV1w600BhqYJsWr4/Fk8r5IL5G1JgurKL5A3Ukv0CYmOFMe8qbd6NwsYxMiZSir1ovrCPsUW9yoC2SFYaDNkMSv2Sfa62KqcpmricgvbYv05kR2y7Z44IgtLB1x4quKDIeyRLl6eoB47i1QZCzHfmDqLL1wSxt4DRQIAor/3cLyWs/lHiLczLobq7YusluXddfdXFevKBcx2xAJbQZ31V3WYqmAi4t7GwfuUS4stuCmRqtQcdS+FNjn6N2loY8qkKSU6476nKxi9axSzgwF5VUbKJSfg31MQVA/2VX5erINGLSuS4FEfkxHwC2rMWcPRVZaJECZfAqBYsbFY2VyW1ABKIPT28SOsF1sCLhLIeVeQPlMluF+4EW6d2aRqEKDHV/HJFlRr+Fxwa3xYPK43ZAeOuN6w6qIgyUpnPhYVwTb7IMQ0SduQPDDEsupZ+kM+fpHvalLXEX2ez2rppUJwy3cnGPiOx2TEpKrfmiB9JUlNwhgVyaEkoO8AVWo1hS83BPrfnzYDucMbjKdaRzji+uEetKWq9tUvDyMal3p5QrX29Zsz4vslmzWLb1Zd7u5ecM5XCZ+DlDIkk3JNcbuB6aP9Pw/JLFTsUIlAZSWd/j7q5dk+mO1+TicCM3XBz2Z7RBed0R0gezGS4gvLHHpcHnVW7LfXV7loXUnMe2rap23Y1Bh4QYHpKL0rvSsQ5jsCySqQoQ4bxDa9nXihz6+A/Fxh5aXgpqIzr9B4B+D0RXKGmC8MFyu4hWJWvPJPl5cWhXx+Vm0j8bige2RyMJ5Rtva6QTu25RGK6P1AuODCwm/C+6ZAHDSYnUv4Oe8d4bxMjy55BIxXg0rsdltTwdcmvrzsdutKbctSIlcFXxTWut5FXuLtJzN4xUYS5MDqqhIaFqqQ6N+0b8G42NcgyqdxxpDnkV5UXPtCx/hgfiUjsQixaAHRPH1F8bgdB46VeXtNyV0DOTGeF5YQkwE3FltMz6nfViRTAMLsyLC+/2IT2qy7qpNP454Jz9Px7geY3q891GuvBsNgpd5J0R57rz3g8CH4kaGx2g1muRxPCKT5UZv6HeYiFcI4xBSFGk/P6cc1r01EIL7GUiATAulVYDgwhgfhMd4H0RY7MMd9mVwjdgX04Y7syGtW49so8YxvjgulEHHOtn2fVpDrafy8MUpFFq9q48NkT+E6ssQOB79TlQcSE8LrSAHxmS6vgz5R7BdrPp6PH+IDPu2pg8B+WyP34qxPCPuTBNqQ/E77XqfoPG/G6AgGv9WbN0O+xlgQGfCPo/zv5g2EEiYlkOIe+J+wVeD7qVq8B7h+SC9uB7KHHJRLFZaRUTipEeSit8sUCaWSY966rTbMzNkrJMrb1lsWGBYfnx3FrJBNxgnTGRpcZxfhgKkxsRhbnKEoOO0K5Ah1mEgvEhmbt15ei0nAkQY4nWcL8O63wxUGTkHU8QYV9YO1yvaCp8wYD/Xo+gtkGrugG2JPkBMIen95CMfcBe5p7V3Fz3KFMhKKQuiieQV4ypSNMZ6trjermVxOyy9B/YGo23Xt4n0DrZlgfY6WjqlFtiaD3Ai1nkDtuczxtht3wOozBDH3eFN3O82bm1OIX4STFnhCQfYggbN/kgOHpxJiJ48bjKfcTwWD1+jI46f/03mVeTh0z8U3g0Qcb3BHdJ3TwdiviXeO0rS2wcE6y+Sxt2Ba4FuO59BdESy9HWWtDHGgwrr7A5TKG7TI2t3seXwDfbHNNgnClsIE1CAYuko8vJ/47jJ/QEhvy1Z3Qeilb8VMXOWCkoyTjaxb5upgXfAm0xAJA8WYZUVjxIm8hitR5CvFrLIeDAhHuTU55n55ij/MOetiLwLkBj9Est7oSS994+S9PYJu9HZqNiB5Hwt/EE4ETRoT0bcZKZb1/mN47T0LCbTBPhYzx0o0hWn9dJMlsGxPS/ZLSr/nWd47whFdQq9JwIZFxt+8juPCtK8M96Tbzlme7rJeIG0kKeI6m5XGus5PBEzmdcOUNrdEB4oSe/9oyS9fYA3kN0orWom0t0I2ze9ofia/98Zxb54zpjUNyePIwLXanvZtudNqYibjN+ahhxiuF94zspoZ0KIcZ7gTi52bD3OLVr3IIvEE8eE42PE5HGsb888OMJO7tq1Ze9EQXztXoQnbDGcSzwwlKS3L9hLrSavmB9Vub06tT1qkXFfsdzmykIqYeu9lm+cxyT28ip3PgPYepat1hTrd5aC8X8spXi1HBIOU8zoePZzbDx+ez5hH/+5cebnCn+e2aizKuKcGO/R0YWjiuNKPDCUpLcvkGq/D6nv1Ghi09u5OY1Pcufa9qUQMhOIG21shZsjMX77+iS2bz8IFGUfkTdyjesgLiPCdpDXuHzhkDHdxLrxWQGebKdrURzp2OWkFxDPH/IY17OT7D1ID9zTBS5x3yhJb18QRf7uoh/NeZrA9obDXVt31zzh9kbFdoyrau3d9nsT9c1x898Ntuc5RphK5H7kfSKU6+7yivHMk7x32UekN5HUJwEVhBOvH1GPxT0+xxha92kj43FQ3xvzmSAw1iePvBuCzEYnLfEAUJLePmE3vT64W7JRe2JlODnFBMSDWIZ1b+Qxs9HgUcQ43Z00OzpREYQJy2pLPAjs64BmY773D5GG513kOXHKEBfINZAe++N5i/QT8LmcTi4xk3FmTAly6FxBZmEzpIlhDLa28qzKuTWJAxd4d5ZesfIuKK3B+0NJeh9CbFV6GuZO1lRMExsa2zFupyov4u5omJNp477CUtpx3wQgkJ1O9V6hrMkmZDV5np0yn4yL61vLxtaYgLbuGwHSJA1ZTCbxLLdHbO907sRuO7ndoiS+94+S9D6EuJP0dtOg4jE7VfdE3F2z0o4i2c4NeIe4PWqYu89lMuU9jvLijq9pKyavZadrHSPs3ZvrLPHBoCS9EiVKPFTYi1HmEiVKlPjQoCS9EiVKPFQoSa9EiRIPFUrSK1GixEOFkvRKlCjxUKEkvRIlSjxUKEmvRIkSDxVK0itRosRDhZL0SpQo8VChJL0SJUo8VChJr0SJEg8VStIrUaLEQ4WS9EqUKPFQoSS9EiVKPFQoSa9EiRIPFUrSK1GixEOFkvRKlCjxUKEkvRIlSjxUKEmvRIkSDxVK0itRosRDhZL0SpQo8VChJL0SJUo8VChJr0SJEg8VStIrUaLEQ4WS9EqUKPFQoSS9EiVKPFQoSa9EiRIPFUrSK1GixEOFkvRKlCjxUKEkvRIlSjxEMPv/Ae3zIzek6HrzAAAAAElFTkSuQmCC;imageBorder=#9f3c3c;sketch=1;curveFitting=1;jiggle=2;" vertex="1" parent="1">
                    <mxGeometry x="262.90999999999997" y="170" width="34.18" height="40" as="geometry"/>
                </mxCell>
            </root>
        </mxGraphModel>
    </diagram>
</mxfile>